<?xml version="1.0" encoding="UTF-8"?>
<svg width="120px" height="60px" viewBox="0 0 120 60" version="1.1" xmlns="http://www.w3.org/2000/svg" xmlns:xlink="http://www.w3.org/1999/xlink">
    <!-- Generator: Sketch 48.2 (47327) - http://www.bohemiancoding.com/sketch -->
    <title>Group 5</title>
    <desc>Created with Sketch.</desc>
    <defs></defs>
    <g id="Desktop-HD-Copy-3" stroke="none" stroke-width="1" fill="none" fill-rule="evenodd" transform="translate(-924.000000, -374.000000)">
        <g id="Group-4" transform="translate(396.000000, 374.000000)">
            <g id="Group-3">
                <g id="Group-5" transform="translate(528.000000, 0.000000)">
                    <rect id="Rectangle-8" fill="#F7F7F7" x="0" y="0" width="120" height="60" rx="20"></rect>
                    <g id="Group-6" transform="translate(21.000000, 15.000000)">
                        <g id="star" fill-rule="nonzero">
                            <path d="M30.6073469,10.8526531 L20.4539388,9.91095918 L16.4207143,0.545510204 C16.1383469,-0.110265306 15.2085306,-0.110265306 14.9261633,0.545510204 L10.893,9.91102041 L0.739591837,10.8526531 C0.0286530612,10.9185918 -0.258673469,11.8028571 0.277714286,12.2740408 L7.9384898,19.0039592 L5.69657143,28.9514694 C5.53959184,29.6479592 6.29179592,30.194449 6.90569388,29.8299184 L15.6734694,24.6237551 L24.4412449,29.8299184 C25.0551429,30.194449 25.8074082,29.6479592 25.6504286,28.9514694 L23.408449,19.0039592 L31.0692245,12.2740408 C31.6056122,11.8028571 31.3182857,10.9185918 30.6073469,10.8526531 Z" id="Shape" fill="#FFDC64"></path>
                            <path d="M16.4207143,0.545510204 C16.1383469,-0.110265306 15.2085306,-0.110265306 14.9261633,0.545510204 L10.893,9.91102041 L0.739591837,10.8526531 C0.0286530612,10.9185918 -0.258673469,11.8028571 0.277714286,12.2740408 L7.9384898,19.0039592 L5.69657143,28.9514694 C5.53959184,29.6479592 6.29179592,30.194449 6.90569388,29.8299184 L8.86261224,28.6679388 C9.13346939,17.518898 14.3136735,9.66765306 18.4149796,5.17628571 L16.4207143,0.545510204 Z" id="Shape" fill="#FFC850"></path>
                        </g>
                        <text id="Add" font-family="Roboto-Regular, Roboto" font-size="20" font-weight="normal" fill="#4A4A4A">
                            <tspan x="42" y="22">Add</tspan>
                        </text>
                    </g>
                </g>
            </g>
        </g>
    </g>
</svg>