<?xml version="1.0" encoding="UTF-8"?>
<svg width="230px" height="60px" viewBox="0 0 230 60" version="1.1" xmlns="http://www.w3.org/2000/svg" xmlns:xlink="http://www.w3.org/1999/xlink">
    <!-- Generator: Sketch 48.2 (47327) - http://www.bohemiancoding.com/sketch -->
    <title>Group 16</title>
    <desc>Created with Sketch.</desc>
    <defs></defs>
    <g id="Desktop-HD-Copy" stroke="none" stroke-width="1" fill="none" fill-rule="evenodd" transform="translate(-360.000000, -873.000000)">
        <g id="Group-19" transform="translate(360.000000, 873.000000)">
            <g id="Group-16">
                <rect id="Rectangle-8" fill="#F7F7F7" x="0" y="0" width="230" height="60" rx="20"></rect>
                <g id="Group-13" transform="translate(21.000000, 15.000000)">
                    <text id="Add-to-favorites" font-family="Roboto-Regular, Roboto" font-size="20" font-weight="normal" fill="#4A4A4A">
                        <tspan x="46" y="22">Add to favorites</tspan>
                    </text>
                    <g id="star" fill-rule="nonzero">
                        <path d="M30.2095906,10.8526531 L20.1881306,9.91095918 L16.2073197,0.545510204 C15.9286218,-0.110265306 15.0108889,-0.110265306 14.732191,0.545510204 L10.7514405,9.91102041 L0.729980507,10.8526531 C0.0282807018,10.9185918 -0.255311891,11.8028571 0.274105263,12.2740408 L7.83532554,19.0039592 L5.62254191,28.9514694 C5.46760234,29.6479592 6.21003119,30.194449 6.81595127,29.8299184 L15.4697856,24.6237551 L24.1236199,29.8299184 C24.72954,30.194449 25.4720292,29.6479592 25.3170897,28.9514694 L23.1042456,19.0039592 L30.6654659,12.2740408 C31.194883,11.8028571 30.9112904,10.9185918 30.2095906,10.8526531 Z" id="Shape" fill="#FFDC64"></path>
                        <path d="M16.2073197,0.545510204 C15.9286218,-0.110265306 15.0108889,-0.110265306 14.732191,0.545510204 L10.7514405,9.91102041 L0.729980507,10.8526531 C0.0282807018,10.9185918 -0.255311891,11.8028571 0.274105263,12.2740408 L7.83532554,19.0039592 L5.62254191,28.9514694 C5.46760234,29.6479592 6.21003119,30.194449 6.81595127,29.8299184 L8.7474386,28.6679388 C9.01477583,17.518898 14.1276608,9.66765306 18.1756686,5.17628571 L16.2073197,0.545510204 Z" id="Shape" fill="#FFC850"></path>
                    </g>
                </g>
            </g>
        </g>
    </g>
</svg>