<?xml version="1.0" encoding="UTF-8"?>
<svg width="24px" height="22px" viewBox="0 0 24 22" version="1.1" xmlns="http://www.w3.org/2000/svg" xmlns:xlink="http://www.w3.org/1999/xlink">
    <!-- Generator: Sketch 48.2 (47327) - http://www.bohemiancoding.com/sketch -->
    <title>amazon</title>
    <desc>Created with Sketch.</desc>
    <defs></defs>
    <g id="Desktop-HD-Copy-3" stroke="none" stroke-width="1" fill="none" fill-rule="evenodd" transform="translate(-396.000000, -598.000000)">
        <g id="Group-4-Copy-5" transform="translate(396.000000, 578.000000)" fill-rule="nonzero">
            <g id="Group-3">
                <g id="amazon" transform="translate(0.000000, 20.000000)">
                    <path d="M17.9056875,10.5291094 C17.9056875,9.66660937 17.9056875,6.39060937 17.9056875,4.46010937 C17.9056875,2.52810937 16.1491875,0.045609375 12.5626875,0.045609375 C8.9761875,0.045609375 7.1491875,1.66710937 6.3751875,4.46010937 C6.3751875,4.46010937 8.6596875,4.94310937 9.7501875,5.01210937 C10.1371875,3.83910937 10.5586875,3.35610937 12.0001875,3.35610937 C14.1451875,3.35610937 14.2501875,5.01210937 14.2501875,6.66660937 C7.3591875,6.94260937 5.2501875,8.80410938 5.2501875,11.6331094 C5.2501875,13.8396094 7.7461875,15.4956094 9.7501875,15.4956094 C11.7541875,15.4956094 12.9136875,15.1506094 14.2501875,13.8396094 C14.8831875,14.8056094 16.5001875,15.4956094 16.5001875,15.4956094 L18.7501875,13.2891094 C18.7501875,13.2891094 17.9056875,11.3916094 17.9056875,10.5291094 Z M11.4346875,13.0131094 C10.6261875,13.0131094 9.7876875,12.5301094 9.7471875,10.8066094 C9.7126875,9.32310938 12.2791875,8.60010938 14.2471875,8.60010938 C14.3866875,11.7021094 12.5596875,13.0131094 11.4346875,13.0131094 Z" id="Shape" fill="#455A64"></path>
                    <g id="Group" transform="translate(0.000000, 15.843750)" fill="#FF9800">
                        <path d="M21.7816875,5.70735938 C21.4801875,5.70735938 21.1951875,5.52435938 21.0811875,5.22585938 C20.9326875,4.83885938 21.1261875,4.40535938 21.5131875,4.25685937 C21.9706875,4.08135937 22.3381875,2.84985937 22.4596875,1.64835937 C21.5176875,1.49385937 20.0206875,1.42035938 19.3771875,2.06235937 C19.0846875,2.35485937 18.6091875,2.35485937 18.3166875,2.06235937 C18.0241875,1.76985937 18.0241875,1.29435937 18.3166875,1.00185937 C19.8796875,-0.562640625 23.0806875,0.221859375 23.4391875,0.317859375 C23.7766875,0.406359375 24.0076875,0.713859375 23.9986875,1.06035937 C23.9821875,1.70985937 23.8141875,4.98135937 22.0486875,5.65635937 C21.9631875,5.69085937 21.8716875,5.70735938 21.7816875,5.70735938 Z" id="Shape"></path>
                        <path d="M11.1436875,5.95185938 C6.7231875,5.95185938 3.2521875,4.55985937 0.2236875,1.57785937 C-0.0718125,1.28685937 -0.0748125,0.811359375 0.2161875,0.517359375 C0.5041875,0.221859375 0.9796875,0.218859375 1.2766875,0.508359375 C4.0651875,3.25635937 7.1506875,3.70035937 11.2471875,3.70185937 C14.6896875,3.68385937 17.7031875,3.72735937 20.4571875,2.28735937 C20.8231875,2.09985937 21.2761875,2.23785937 21.4696875,2.60535937 C21.6616875,2.97135937 21.5191875,3.42585937 21.1516875,3.61785937 C18.1816875,5.17035937 14.9431875,5.93385937 11.2546875,5.95335937 C11.2171875,5.95185938 11.1796875,5.95185938 11.1436875,5.95185938 Z" id="Shape"></path>
                    </g>
                </g>
            </g>
        </g>
    </g>
</svg>