<?xml version="1.0" encoding="UTF-8"?>
<svg width="22px" height="26px" viewBox="0 0 22 26" version="1.1" xmlns="http://www.w3.org/2000/svg" xmlns:xlink="http://www.w3.org/1999/xlink">
    <!-- Generator: Sketch 48.2 (47327) - http://www.bohemiancoding.com/sketch -->
    <title>apple-2</title>
    <desc>Created with Sketch.</desc>
    <defs></defs>
    <g id="Desktop-HD-Copy-3" stroke="none" stroke-width="1" fill="none" fill-rule="evenodd" transform="translate(-397.000000, -798.000000)">
        <g id="Group-4-Copy-6" transform="translate(397.000000, 782.000000)" fill="#455A64" fill-rule="nonzero">
            <g id="Group-3">
                <g id="apple-2" transform="translate(0.000000, 16.000000)">
                    <path d="M14.5768584,4.17417352 C15.4158721,3.09245662 16.050758,1.56230137 15.8209132,0 C14.4498813,0.0948310502 12.8473973,0.972420091 11.9135525,2.11521461 C11.0616804,3.15192694 10.360895,4.69172603 10.634137,6.18812785 C12.1321461,6.23473973 13.6799817,5.33625571 14.5768584,4.17417352 Z" id="Shape"></path>
                    <path d="M21.2391416,8.62801826 C19.922758,6.97731507 18.0727489,6.01936073 16.3256073,6.01936073 C14.0191233,6.01936073 13.0434886,7.12357991 11.4410046,7.12357991 C9.78869406,7.12357991 8.53338813,6.02257534 6.53872146,6.02257534 C4.57941553,6.02257534 2.49313242,7.22001826 1.17031963,9.26772603 C-0.689333333,12.1512329 -0.371086758,17.5726758 2.64261187,22.1904658 C3.72111416,23.8427763 5.16126027,25.7008219 7.04502283,25.716895 C8.72144292,25.732968 9.19399087,24.6416073 11.4651142,24.6303562 C13.7362374,24.6174977 14.1669954,25.7313607 15.8402009,25.7136804 C17.7255708,25.6992146 19.2444749,23.6402557 20.3229772,21.9879452 C21.0960913,20.8033607 21.3837991,20.2070502 21.9833242,18.8697717 C17.6227032,17.2094247 16.9235251,11.0084384 21.2391416,8.62801826 Z" id="Shape"></path>
                </g>
            </g>
        </g>
    </g>
</svg>