<?xml version="1.0" encoding="UTF-8"?>
<svg width="120px" height="154px" viewBox="0 0 120 154" version="1.1" xmlns="http://www.w3.org/2000/svg" xmlns:xlink="http://www.w3.org/1999/xlink">
    <!-- Generator: Sketch 48.2 (47327) - http://www.bohemiancoding.com/sketch -->
    <title>Group 5</title>
    <desc>Created with Sketch.</desc>
    <defs></defs>
    <g id="Desktop-HD-Copy-2" stroke="none" stroke-width="1" fill="none" fill-rule="evenodd" transform="translate(-354.000000, -694.000000)">
        <g id="Group-11" transform="translate(354.000000, 694.000000)">
            <g id="Group-5">
                <text id="Energy" font-family="Roboto-Regular, Roboto" font-size="20" font-weight="normal" fill="#4A4A4A">
                    <tspan x="30" y="149">Energy</tspan>
                </text>
                <g id="Group-2">
                    <circle id="Oval-7" fill="#F7F7F7" cx="60" cy="60" r="60"></circle>
                    <g id="creativity" transform="translate(60.000000, 60.000000) scale(-1, 1) translate(-60.000000, -60.000000) translate(31.000000, 20.000000)" fill-rule="nonzero">
                        <path d="M46.1961793,5.95992203 C39.1037817,0.478908382 29.9292008,-1.33302144 21.0251852,0.988382066 C11.142924,3.56522417 3.45434698,11.3339571 0.96,21.262846 C-2.12849903,33.5560234 2.75040936,46.01154 13.1362183,52.717037 L28.6889669,57.8438986 L44.2417154,52.7157895 C47.9795712,50.2945809 51.1242105,47.0215984 53.3900975,43.1797271 C55.9773879,38.7928265 57.3448733,33.7687329 57.3448733,28.6502924 C57.3448733,19.7054191 53.2812476,11.4353216 46.1961793,5.95992203 Z" id="Shape" fill="#FFE98F"></path>
                        <path d="M46.1961793,5.95992203 C41.1354386,2.04896686 35.0148928,0.00779727096 28.6889669,0.00155945419 L28.6889669,57.8437427 L44.2417154,52.7156335 C47.9795712,50.294425 51.1242105,47.0214425 53.3900975,43.1795712 C55.9773879,38.7926706 57.3448733,33.768577 57.3448733,28.6501365 C57.3448733,19.7054191 53.2812476,11.4353216 46.1961793,5.95992203 Z" id="Shape" fill="#FFDA44"></path>
                        <path d="M14.8385185,28.5097856 L9.95009747,28.5097856 C9.95009747,18.1760624 18.3563353,9.76873294 28.6889669,9.76873294 L28.6889669,14.6577778 C21.0516959,14.6579337 14.8385185,20.8718908 14.8385185,28.5097856 Z" id="Shape" fill="#FFFFFF"></path>
                        <path d="M36.0215205,28.5097856 C36.0215205,24.4661209 32.7321637,21.1762963 28.6889669,21.1762963 C24.64577,21.1762963 21.3564133,24.4659649 21.3564133,28.5097856 C21.3564133,31.6965302 23.399922,34.4137232 26.2448343,35.4226901 L26.2448343,54.5843275 L31.1332554,54.5843275 L31.1332554,35.422846 C33.9778558,34.4137232 36.0215205,31.6965302 36.0215205,28.5097856 Z M28.6889669,30.954386 C27.3412865,30.954386 26.2448343,29.8577778 26.2448343,28.5097856 C26.2448343,27.1617934 27.3412865,26.0651852 28.6889669,26.0651852 C30.0366472,26.0651852 31.1330994,27.1617934 31.1330994,28.5097856 C31.1330994,29.8577778 30.0366472,30.954386 28.6889669,30.954386 Z" id="Shape" fill="#FFAD41"></path>
                        <path d="M41.8063158,41.8934893 L38.3840936,38.4023392 C41.0635478,35.7751267 42.5392593,32.2619883 42.5392593,28.5097856 L47.4276803,28.5097856 C47.4278363,33.5862768 45.431423,38.3393372 41.8063158,41.8934893 Z" id="Shape" fill="#FFFFFF"></path>
                        <path d="M16.3683431,65.0775828 L16.3683431,67.5221832 C16.3683431,74.3165692 21.8953606,79.8442105 28.6889669,79.8442105 C35.4825731,79.8442105 41.0095906,74.3165692 41.0095906,67.5221832 L41.0095906,65.0775828 L16.3683431,65.0775828 Z" id="Shape" fill="#858585"></path>
                        <path d="M28.6889669,79.8440546 C35.4825731,79.8440546 41.0095906,74.3164133 41.0095906,67.5220273 L41.0095906,65.0774269 L28.6889669,65.0774269" id="Shape" fill="#565659"></path>
                        <polygon id="Shape" fill="#AED5F3" points="13.1359064 52.7168811 13.1044055 68.4364912 44.2733723 68.4364912 44.2417154 52.7156335"></polygon>
                        <polygon id="Shape" fill="#78B9EB" points="28.6889669 52.7168811 28.6573099 68.4364912 44.2733723 68.4364912 44.2417154 52.7156335"></polygon>
                    </g>
                </g>
            </g>
        </g>
    </g>
</svg>