<?xml version="1.0" encoding="UTF-8"?>
<svg width="240px" height="60px" viewBox="0 0 240 60" version="1.1" xmlns="http://www.w3.org/2000/svg" xmlns:xlink="http://www.w3.org/1999/xlink">
    <!-- Generator: Sketch 48.2 (47327) - http://www.bohemiancoding.com/sketch -->
    <title>Group 17</title>
    <desc>Created with Sketch.</desc>
    <defs></defs>
    <g id="Desktop-HD-Copy-4" stroke="none" stroke-width="1" fill="none" fill-rule="evenodd" transform="translate(-600.000000, -873.000000)">
        <g id="Group-19" transform="translate(350.000000, 873.000000)">
            <g id="Group-17" transform="translate(250.000000, 0.000000)">
                <rect id="Rectangle-8-Copy" fill="#E7EFF6" x="0" y="0" width="240" height="60" rx="20"></rect>
                <g id="Group-14" transform="translate(25.000000, 15.000000)">
                    <g id="scale" transform="translate(15.000000, 15.000000) scale(-1, 1) translate(-15.000000, -15.000000) " fill-rule="nonzero">
                        <g id="Group" transform="translate(12.342857, 0.000000)" fill="#FEA832">
                            <path d="M3.54285714,6.27026239 L3.54285714,22.0924198 C3.54285714,22.5847233 3.1532019,22.9714286 2.65714286,22.9714286 C2.16108381,22.9714286 1.77142857,22.5847233 1.77142857,22.0924198 L1.77142857,6.27026239 C1.77142857,5.77795889 2.16108381,5.39125364 2.65714286,5.39125364 C3.1532019,5.39125364 3.54285714,5.77795889 3.54285714,6.27026239 Z" id="Shape"></path>
                            <path d="M3.54285714,0.879008746 L3.54285714,2.75422741 C3.54285714,3.2465309 3.1532019,3.63323615 2.65714286,3.63323615 C2.16108381,3.63323615 1.77142857,3.2465309 1.77142857,2.75422741 L1.77142857,0.879008746 C1.77142857,0.298804373 2.21428571,0 2.65714286,0 C3.1,0 3.54285714,0.298804373 3.54285714,0.879008746 Z" id="Shape"></path>
                            <path d="M2.65714286,1.87521866 C1.18673905,1.87521866 0,3.05303178 0,4.5122449 C0,5.97145802 1.18673905,7.14927114 2.65714286,7.14927114 C4.12754667,7.14927114 5.31428571,5.97145802 5.31428571,4.5122449 C5.31428571,3.05303178 4.12754667,1.87521866 2.65714286,1.87521866 Z M2.65714286,5.39125364 C2.16108381,5.39125364 1.77142857,5.0045484 1.77142857,4.5122449 C1.77142857,4.0199414 2.16108381,3.63323615 2.65714286,3.63323615 C3.1532019,3.63323615 3.54285714,4.0199414 3.54285714,4.5122449 C3.54285714,5.0045484 3.1532019,5.39125364 2.65714286,5.39125364 Z" id="Shape"></path>
                        </g>
                        <path d="M20.2428571,21.1714286 L9.67142857,21.1714286 C8.20893016,21.1714286 7.02857143,22.3582267 7.02857143,23.8285714 L7.02857143,25.6 C7.02857143,26.096059 7.41613175,26.4857143 7.90952381,26.4857143 L22.0047619,26.4857143 C22.498154,26.4857143 22.8857143,26.096059 22.8857143,25.6 L22.8857143,23.8285714 C22.8857143,22.3582267 21.7053556,21.1714286 20.2428571,21.1714286 Z" id="Shape" fill="#FEDB41"></path>
                        <path d="M6.47442357,6.04971125 C5.84780759,5.47772386 5.11851847,5.17027185 4.40290351,5.18745023 C4.39776109,5.18745023 4.39437176,5.18745023 4.390924,5.18745023 C3.91156833,5.18745023 3.52121165,4.80096593 3.51437457,4.3191504 C3.50753748,3.83393436 3.89614106,3.43455162 4.37894449,3.42857143 C4.39951419,3.42857143 4.41833078,3.42857143 4.43714737,3.42857143 C5.59617947,3.42857143 6.70898819,3.88459007 7.65572002,4.75031022 C8.91234128,5.90114462 10.4770989,5.90114462 11.7337202,4.75031022 C12.048752,4.46173684 12.3911322,4.2126796 12.7489397,4.01345726 C13.7589584,3.44909168 14.6166912,4.98582409 13.6015301,5.55077596 C13.3618231,5.68392309 13.1307062,5.85224779 12.9167113,6.04976988 C10.9880688,7.80976264 8.40113765,7.81421847 6.47442357,6.04971125 Z" id="Shape" fill="#FEA832"></path>
                        <g id="Group" transform="translate(15.771429, 3.428571)" fill="#FE9923">
                            <path d="M1.26792381,2.6474087 C1.02949277,2.43158478 0.775603527,2.25103696 0.514863492,2.11433478 C-0.515331922,1.57321957 0.306294885,0.0140282609 1.33139612,0.554673913 C1.72423351,0.761047826 2.09991464,1.02670435 2.44989065,1.34571522 C3.71248607,2.49955435 5.39579048,2.49873261 6.65487266,1.34659565 C7.58464832,0.495391304 8.68083386,0.037976087 9.82673157,0.0233608696 C10.3636698,-0.0471326087 10.7084931,0.405997826 10.7153439,0.892643478 C10.7204966,1.37928913 10.332812,1.77824348 9.8473425,1.78423043 C9.14059824,1.7928 8.44579894,2.09115 7.83853757,2.64746739 C5.90889735,4.40992174 3.19803245,4.41344348 1.26792381,2.6474087 Z" id="Shape"></path>
                            <path d="M12.4719577,9.91956522 C12.4719577,9.57220435 12.3999365,9.22484348 12.2592317,8.88693261 L9.83703704,3.15982174 L7.41314427,8.89039565 C7.27413757,9.22484348 7.2021164,9.57220435 7.2021164,9.91956522 C7.2021164,11.0801543 5.44550265,11.0849087 5.44550265,9.91956522 C5.44550265,9.3366 5.56383986,8.76056087 5.79547866,8.20600435 L9.02911182,0.559780435 C9.30361199,-0.0902152174 10.3705792,-0.0902152174 10.6450794,0.559780435 L13.8769559,8.2025413 C14.1102342,8.76056087 14.2285714,9.3366 14.2285714,9.91956522 C14.2285714,11.0801543 12.4719577,11.0849087 12.4719577,9.91956522 Z" id="Shape"></path>
                        </g>
                        <g id="Group" transform="translate(0.000000, 3.428571)" fill="#FEA832">
                            <path d="M7.02857143,9.83606557 C7.02857143,9.48957845 6.95652857,9.14309133 6.81578143,8.80603044 L4.39285714,3.09332553 L1.96823429,8.80948478 C1.82918571,9.14309133 1.75714286,9.48957845 1.75714286,9.83606557 C1.75714286,10.9937354 0,10.9984778 0,9.83606557 C0,9.25456674 0.118372857,8.67997658 0.350081429,8.12681499 L3.58463,0.499824356 C3.85921286,-0.1485363 4.92650143,-0.1485363 5.20108429,0.499824356 L8.43393429,8.12336066 C8.66734143,8.67997658 8.78571429,9.25456674 8.78571429,9.83606557 C8.78571429,10.9937354 7.02857143,10.9984778 7.02857143,9.83606557 Z" id="Shape"></path>
                            <path d="M16.6928571,7.20140515 L13.1785714,7.20140515 C12.0190329,7.20140515 12.0190329,5.44496487 13.1785714,5.44496487 L16.6928571,5.44496487 C17.8523957,5.44496487 17.8523957,7.20140515 16.6928571,7.20140515 Z" id="Shape"></path>
                        </g>
                        <g id="Group" transform="translate(14.914286, 0.000000)" fill="#FE9923">
                            <path d="M0,3.63323615 L0,0 C0.442857143,0 0.885714286,0.298804373 0.885714286,0.879008746 L0.885714286,2.75422741 C0.885714286,3.2465309 0.496059048,3.63323615 0,3.63323615 Z" id="Shape"></path>
                            <path d="M0,22.9714286 L0,5.39125364 C0.496059048,5.39125364 0.885714286,5.77795889 0.885714286,6.27026239 L0.885714286,22.0924198 C0.885714286,22.5847233 0.496059048,22.9714286 0,22.9714286 Z" id="Shape"></path>
                            <path d="M2.65714286,4.5122449 C2.65714286,5.97145802 1.47040381,7.14927114 0,7.14927114 L0,5.39125364 C0.496059048,5.39125364 0.885714286,5.0045484 0.885714286,4.5122449 C0.885714286,4.0199414 0.496059048,3.63323615 0,3.63323615 L0,1.87521866 C1.47040381,1.87521866 2.65714286,3.05303178 2.65714286,4.5122449 Z" id="Shape"></path>
                            <path d="M1.77142857,10.6653061 L0,10.6653061 L0,8.90728863 L1.77142857,8.90728863 C2.94039429,8.90728863 2.94039429,10.6653061 1.77142857,10.6653061 Z" id="Shape"></path>
                        </g>
                        <g id="Group" transform="translate(14.914286, 12.428571)" fill="#FFCC33">
                            <path d="M7.92440245,11.4214286 L7.92440245,13.1785714 C7.92440245,13.67063 7.53704591,14.0571429 7.04391329,14.0571429 L0,14.0571429 L0,8.78571429 L5.28293496,8.78571429 C6.74466437,8.78571429 7.92440245,9.96294143 7.92440245,11.4214286 Z" id="Shape"></path>
                            <path d="M10.6832685,5.27142857 C8.25505548,5.27142857 6.28082268,3.30067571 6.28082268,0.878571429 C6.28082268,0.392955714 6.67463613,0 7.16131184,0 L14.2052251,0 C14.6919008,0 15.0857143,0.392955714 15.0857143,0.878571429 C15.0857143,3.30067571 13.1114815,5.27142857 10.6832685,5.27142857 Z" id="Shape"></path>
                        </g>
                        <path d="M4.41428571,17.7428571 C1.97954229,17.7428571 0,15.7560819 0,13.3142857 C0,12.8247219 0.394872571,12.4285714 0.882857143,12.4285714 L7.94571429,12.4285714 C8.43369886,12.4285714 8.82857143,12.8247219 8.82857143,13.3142857 C8.82857143,15.7560819 6.84902914,17.7428571 4.41428571,17.7428571 Z" id="Shape" fill="#FEDB41"></path>
                        <path d="M23.7593407,24.6857143 L6.15494505,24.6857143 C4.69366286,24.6857143 3.51428571,25.8725124 3.51428571,27.3428571 L3.51428571,29.1142857 C3.51428571,29.6103448 3.90152374,30 4.39450549,30 L25.5197802,30 C26.012762,30 26.4,29.6103448 26.4,29.1142857 L26.4,27.3428571 C26.4,25.8725124 25.2206229,24.6857143 23.7593407,24.6857143 Z" id="Shape" fill="#994C0F"></path>
                        <path d="M26.3142857,27.3428571 L26.3142857,29.1142857 C26.3142857,29.6103448 25.928498,30 25.4373626,30 L14.9142857,30 L14.9142857,24.6857143 L23.6835165,24.6857143 C25.1393257,24.6857143 26.3142857,25.8725124 26.3142857,27.3428571 Z" id="Shape" fill="#713708"></path>
                    </g>
                    <text id="Exit-comparison" font-family="Roboto-Regular, Roboto" font-size="20" font-weight="normal" fill="#4A4A4A">
                        <tspan x="45" y="22">Exit comparison</tspan>
                    </text>
                </g>
            </g>
        </g>
    </g>
</svg>