<?xml version="1.0" encoding="UTF-8"?>
<svg width="230px" height="60px" viewBox="0 0 230 60" version="1.1" xmlns="http://www.w3.org/2000/svg" xmlns:xlink="http://www.w3.org/1999/xlink">
    <!-- Generator: Sketch 48.2 (47327) - http://www.bohemiancoding.com/sketch -->
    <title>Group 18</title>
    <desc>Created with Sketch.</desc>
    <defs></defs>
    <g id="Desktop-HD-Copy-6" stroke="none" stroke-width="1" fill="none" fill-rule="evenodd" transform="translate(-853.000000, -873.000000)">
        <g id="Group-19" transform="translate(360.000000, 873.000000)">
            <g id="Group-18" transform="translate(493.000000, 0.000000)">
                <rect id="Rectangle-8-Copy-2" fill="#E7EFF6" x="0" y="0" width="230" height="60" rx="20"></rect>
                <g id="Group-15" transform="translate(28.000000, 15.000000)">
                    <g id="newspaper" fill-rule="nonzero">
                        <path d="M2.5887931,30 C1.16637931,30 0.0025862069,28.8362069 0.0025862069,27.4137931 L0.0025862069,15.5172414 L5.175,15.5172414 L5.175,27.4137931 C5.175,28.8362069 4.0112069,30 2.5887931,30 Z" id="Shape" fill="#CEC9AE"></path>
                        <rect id="Rectangle-path" fill="#CEC9AE" x="5.175" y="0" width="23.787931" height="5.68965517"></rect>
                        <path d="M5.175,18.1034483 L5.175,21.7241379 L5.175,27.4137931 C5.175,28.8362069 4.0112069,30 2.5887931,30 L5.175,30 L8.27844828,30 L26.3818966,30 C27.8074138,30 28.962931,28.8444828 28.962931,27.4189655 L28.962931,6.72413793 L5.175,6.72413793 L5.175,18.1034483 Z" id="Shape" fill="#EDEADA"></path>
                        <rect id="Rectangle-path" fill="#F4F3ED" x="5.175" y="5.68965517" width="23.787931" height="1.03448276"></rect>
                        <rect id="Rectangle-path" fill="#61B872" x="8.27844828" y="8.27586207" width="6.20689655" height="6.20689655"></rect>
                        <path d="M25.8646552,8.79310345 L17.5887931,8.79310345 C17.3027586,8.79310345 17.0715517,8.56189655 17.0715517,8.27586207 C17.0715517,7.98982759 17.3027586,7.75862069 17.5887931,7.75862069 L25.8646552,7.75862069 C26.1506897,7.75862069 26.3818966,7.98982759 26.3818966,8.27586207 C26.3818966,8.56189655 26.1506897,8.79310345 25.8646552,8.79310345 Z" id="Shape" fill="#CEC9AE"></path>
                        <path d="M25.8646552,11.8965517 L17.5887931,11.8965517 C17.3027586,11.8965517 17.0715517,11.6653448 17.0715517,11.3793103 C17.0715517,11.0932759 17.3027586,10.862069 17.5887931,10.862069 L25.8646552,10.862069 C26.1506897,10.862069 26.3818966,11.0932759 26.3818966,11.3793103 C26.3818966,11.6653448 26.1506897,11.8965517 25.8646552,11.8965517 Z" id="Shape" fill="#CEC9AE"></path>
                        <path d="M25.8646552,15 L17.5887931,15 C17.3027586,15 17.0715517,14.7687931 17.0715517,14.4827586 C17.0715517,14.1967241 17.3027586,13.9655172 17.5887931,13.9655172 L25.8646552,13.9655172 C26.1506897,13.9655172 26.3818966,14.1967241 26.3818966,14.4827586 C26.3818966,14.7687931 26.1506897,15 25.8646552,15 Z" id="Shape" fill="#CEC9AE"></path>
                        <path d="M25.8646552,18.1034483 L8.79568966,18.1034483 C8.50965517,18.1034483 8.27844828,17.8722414 8.27844828,17.5862069 C8.27844828,17.3001724 8.50965517,17.0689655 8.79568966,17.0689655 L25.8646552,17.0689655 C26.1506897,17.0689655 26.3818966,17.3001724 26.3818966,17.5862069 C26.3818966,17.8722414 26.1506897,18.1034483 25.8646552,18.1034483 Z" id="Shape" fill="#CEC9AE"></path>
                        <path d="M16.5543103,21.2068966 L8.79568966,21.2068966 C8.50965517,21.2068966 8.27844828,20.9756897 8.27844828,20.6896552 C8.27844828,20.4036207 8.50965517,20.1724138 8.79568966,20.1724138 L16.5543103,20.1724138 C16.8403448,20.1724138 17.0715517,20.4036207 17.0715517,20.6896552 C17.0715517,20.9756897 16.8403448,21.2068966 16.5543103,21.2068966 Z" id="Shape" fill="#CEC9AE"></path>
                        <path d="M16.5543103,24.3103448 L8.79568966,24.3103448 C8.50965517,24.3103448 8.27844828,24.0791379 8.27844828,23.7931034 C8.27844828,23.507069 8.50965517,23.2758621 8.79568966,23.2758621 L16.5543103,23.2758621 C16.8403448,23.2758621 17.0715517,23.507069 17.0715517,23.7931034 C17.0715517,24.0791379 16.8403448,24.3103448 16.5543103,24.3103448 Z" id="Shape" fill="#CEC9AE"></path>
                        <path d="M16.5543103,27.4137931 L8.79568966,27.4137931 C8.50965517,27.4137931 8.27844828,27.1825862 8.27844828,26.8965517 C8.27844828,26.6105172 8.50965517,26.3793103 8.79568966,26.3793103 L16.5543103,26.3793103 C16.8403448,26.3793103 17.0715517,26.6105172 17.0715517,26.8965517 C17.0715517,27.1825862 16.8403448,27.4137931 16.5543103,27.4137931 Z" id="Shape" fill="#CEC9AE"></path>
                        <rect id="Rectangle-path" fill="#F7B563" x="19.6577586" y="20.6896552" width="6.20689655" height="6.20689655"></rect>
                        <rect id="Rectangle-path" fill="#8E8872" x="11.3818966" y="2.06896552" width="11.3793103" height="2.06896552"></rect>
                    </g>
                    <text id="Exit-the-news" font-family="Roboto-Regular, Roboto" font-size="20" font-weight="normal" fill="#4A4A4A">
                        <tspan x="44" y="22">Exit the news</tspan>
                    </text>
                </g>
            </g>
        </g>
    </g>
</svg>