<?xml version="1.0" encoding="UTF-8"?>
<svg width="60px" height="60px" viewBox="0 0 60 60" version="1.1" xmlns="http://www.w3.org/2000/svg" xmlns:xlink="http://www.w3.org/1999/xlink">
    <!-- Generator: Sketch 48.2 (47327) - http://www.bohemiancoding.com/sketch -->
    <title>Group Copy</title>
    <desc>Created with Sketch.</desc>
    <defs></defs>
    <g id="Desktop-HD-Copy" stroke="none" stroke-width="1" fill="none" fill-rule="evenodd" transform="translate(-1023.000000, -80.000000)">
        <g id="Group-Copy" transform="translate(1023.000000, 80.000000)">
            <circle id="Oval-7-Copy-3" fill="#F7F7F7" cx="30" cy="30" r="30"></circle>
            <g id="star" transform="translate(8.500000, 10.000000)" fill-rule="nonzero">
                <path d="M40.8097959,14.4702041 L27.2719184,13.2146122 L21.8942857,0.727346939 C21.5177959,-0.147020408 20.2780408,-0.147020408 19.901551,0.727346939 L14.524,13.2146939 L0.986122449,14.4702041 C0.0382040816,14.5581224 -0.344897959,15.7371429 0.370285714,16.3653878 L10.5846531,25.3386122 L7.59542857,38.6019592 C7.38612245,39.5306122 8.38906122,40.2592653 9.20759184,39.7732245 L20.8979592,32.8316735 L32.5883265,39.7732245 C33.4068571,40.2592653 34.4098776,39.5306122 34.2005714,38.6019592 L31.2112653,25.3386122 L41.4256327,16.3653878 C42.1408163,15.7371429 41.7577143,14.5581224 40.8097959,14.4702041 Z" id="Shape" fill="#FFDC64"></path>
                <path d="M21.8942857,0.727346939 C21.5177959,-0.147020408 20.2780408,-0.147020408 19.901551,0.727346939 L14.524,13.2146939 L0.986122449,14.4702041 C0.0382040816,14.5581224 -0.344897959,15.7371429 0.370285714,16.3653878 L10.5846531,25.3386122 L7.59542857,38.6019592 C7.38612245,39.5306122 8.38906122,40.2592653 9.20759184,39.7732245 L11.8168163,38.2239184 C12.1779592,23.3585306 19.084898,12.8902041 24.5533061,6.90171429 L21.8942857,0.727346939 Z" id="Shape" fill="#FFC850"></path>
            </g>
        </g>
    </g>
</svg>