<?xml version="1.0" encoding="UTF-8"?>
<svg width="120px" height="150px" viewBox="0 0 120 150" version="1.1" xmlns="http://www.w3.org/2000/svg" xmlns:xlink="http://www.w3.org/1999/xlink">
    <!-- Generator: Sketch 48.2 (47327) - http://www.bohemiancoding.com/sketch -->
    <title>Group 6</title>
    <desc>Created with Sketch.</desc>
    <defs></defs>
    <g id="Desktop-HD-Copy-2" stroke="none" stroke-width="1" fill="none" fill-rule="evenodd" transform="translate(-504.000000, -694.000000)">
        <g id="Group-11" transform="translate(354.000000, 694.000000)">
            <g id="Group-6" transform="translate(150.000000, 0.000000)">
                <text id="Finance" font-family="Roboto-Regular, Roboto" font-size="20" font-weight="normal" fill="#4A4A4A">
                    <tspan x="25" y="149">Finance</tspan>
                </text>
                <g id="Group-3">
                    <circle id="Oval-7-Copy" fill="#F7F7F7" cx="60" cy="60" r="60"></circle>
                    <g id="coins" transform="translate(20.000000, 20.000000)" fill-rule="nonzero">
                        <path d="M70.5125424,39.6081356 L70.5125424,41.2867797 C70.5125424,50.6861017 54.7281356,58.3050847 35.2583051,58.3050847 C24.5111864,58.3050847 14.8935593,55.9810169 8.42711864,52.32 C10.6074576,60.7877966 25.4250847,67.7966102 43.3938983,67.7966102 C62.8637288,67.7966102 78.6481356,59.5688136 78.6481356,50.1694915 C78.6481356,46.0366102 75.5891525,42.3945763 70.5125424,39.6081356" id="XMLID_143_" fill="#FCC62D"></path>
                        <path d="M43.3938983,67.7966102 C23.9240678,67.7966102 8.13966102,59.5688136 8.13966102,50.1694915 L8.13966102,61.6244068 C8.13966102,71.0237288 23.9240678,78.6440678 43.3938983,78.6440678 C62.8637288,78.6440678 78.6481356,71.0237288 78.6481356,61.6244068 L78.6481356,50.1694915 C78.6481356,59.5688136 62.8637288,67.7966102 43.3938983,67.7966102" id="XMLID_142_" fill="#E4AF18"></path>
                        <path d="M12.2074576,69.6257627 C13.0074576,70.3566102 13.9145763,71.0562712 14.919322,71.720678 L14.919322,60.4786441 C13.9145763,59.7871186 13.0074576,59.0616949 12.2074576,58.3050847 L12.2074576,69.6257627 Z" id="XMLID_141_" fill="#CE9912"></path>
                        <path d="M71.8684746,60.4786441 L71.8684746,71.720678 C72.8732203,71.0576271 73.780339,70.3566102 74.580339,69.6257627 L74.580339,58.3050847 C73.7816949,59.0616949 72.8745763,59.7871186 71.8684746,60.4786441" id="XMLID_140_" fill="#CE9912"></path>
                        <path d="M17.6311864,73.3016949 C18.4881356,73.7450847 19.3938983,74.1640678 20.3430508,74.5613559 L20.3430508,63.4522034 C19.3938983,63.0345763 18.4881356,62.5938983 17.6311864,62.1301695 L17.6311864,73.3016949 Z" id="XMLID_139_" fill="#CE9912"></path>
                        <path d="M66.4447458,74.56 C67.3938983,74.1640678 68.299661,73.7437288 69.1566102,73.300339 L69.1566102,62.1288136 C68.299661,62.5925424 67.3938983,63.0345763 66.4447458,63.4508475 L66.4447458,74.56 Z" id="XMLID_138_" fill="#CE9912"></path>
                        <path d="M23.0549153,75.5864407 C23.9308475,75.8861017 24.8352542,76.1654237 25.7667797,76.4257627 L25.7667797,65.4237288 C24.8352542,65.1471186 23.9308475,64.8501695 23.0549153,64.5342373 L23.0549153,75.5864407 Z" id="XMLID_137_" fill="#CE9912"></path>
                        <path d="M61.0210169,76.4257627 C61.9525424,76.1654237 62.8569492,75.8861017 63.7328814,75.5864407 L63.7328814,64.5342373 C62.8569492,64.8501695 61.9525424,65.1471186 61.0210169,65.4237288 L61.0210169,76.4257627 Z" id="XMLID_136_" fill="#CE9912"></path>
                        <path d="M29.8345763,77.4020339 C30.72,77.5810169 31.6257627,77.7410169 32.5464407,77.8833898 L32.5464407,66.9762712 C31.6257627,66.8230508 30.72,66.6522034 29.8345763,66.4623729 L29.8345763,77.4020339 Z" id="XMLID_135_" fill="#CE9912"></path>
                        <path d="M54.2413559,77.8833898 C55.1620339,77.739661 56.0677966,77.579661 56.9532203,77.4020339 L56.9532203,66.4610169 C56.0677966,66.6508475 55.1620339,66.8216949 54.2413559,66.9762712 L54.2413559,77.8833898 Z" id="XMLID_134_" fill="#CE9912"></path>
                        <path d="M37.9701695,78.5071186 C38.8623729,78.5735593 39.7681356,78.619661 40.6820339,78.6522034 L40.6820339,67.800678 C39.7681356,67.7654237 38.8623729,67.7166102 37.9701695,67.6447458 L37.9701695,78.5071186 Z" id="XMLID_133_" fill="#CE9912"></path>
                        <path d="M46.1057627,78.6535593 C47.019661,78.619661 47.9254237,78.5749153 48.8176271,78.5084746 L48.8176271,67.6447458 C47.9254237,67.7166102 47.019661,67.7654237 46.1057627,67.8020339 L46.1057627,78.6535593 Z" id="XMLID_132_" fill="#CE9912"></path>
                        <path d="M35.2583051,47.4481356 C15.7884746,47.4481356 0.00406779661,39.220339 0.00406779661,29.8210169 L0.00406779661,41.2759322 C0.00406779661,50.6752542 15.7884746,58.2955932 35.2583051,58.2955932 C54.7281356,58.2955932 70.5125424,50.6752542 70.5125424,41.2759322 L70.5125424,29.8210169 C70.5125424,39.220339 54.7281356,47.4481356 35.2583051,47.4481356" id="XMLID_131_" fill="#E4AF18"></path>
                        <path d="M4.07186441,49.2772881 C4.87186441,50.0081356 5.77898305,50.7077966 6.78372881,51.3722034 L6.78372881,40.1301695 C5.77898305,39.4386441 4.87186441,38.7132203 4.07186441,37.9579661 L4.07186441,49.2772881 Z" id="XMLID_130_" fill="#CE9912"></path>
                        <path d="M63.7328814,40.1301695 L63.7328814,51.3722034 C64.7376271,50.7091525 65.6447458,50.0081356 66.4447458,49.2772881 L66.4447458,37.9566102 C65.6461017,38.7132203 64.7389831,39.4386441 63.7328814,40.1301695" id="XMLID_129_" fill="#CE9912"></path>
                        <path d="M9.49559322,52.9532203 C10.3525424,53.3966102 11.2583051,53.8155932 12.2074576,54.2128814 L12.2074576,43.1037288 C11.2583051,42.6861017 10.3525424,42.2454237 9.49559322,41.7816949 L9.49559322,52.9532203 Z" id="XMLID_128_" fill="#CE9912"></path>
                        <path d="M58.3091525,54.2115254 C59.2583051,53.8155932 60.1640678,53.3966102 61.0210169,52.9518644 L61.0210169,41.780339 C60.1640678,42.2440678 59.2583051,42.6861017 58.3091525,43.1023729 L58.3091525,54.2115254 Z" id="XMLID_127_" fill="#CE9912"></path>
                        <path d="M14.919322,55.2379661 C15.7952542,55.5376271 16.699661,55.8169492 17.6311864,56.0772881 L17.6311864,45.0752542 C16.699661,44.7986441 15.7952542,44.5016949 14.919322,44.1857627 L14.919322,55.2379661 Z" id="XMLID_126_" fill="#CE9912"></path>
                        <path d="M52.8854237,56.0772881 C53.8169492,55.8169492 54.7213559,55.5376271 55.5972881,55.2379661 L55.5972881,44.1857627 C54.7213559,44.5016949 53.8169492,44.7986441 52.8854237,45.0752542 L52.8854237,56.0772881 Z" id="XMLID_125_" fill="#CE9912"></path>
                        <path d="M21.6989831,57.0535593 C22.5844068,57.2325424 23.4901695,57.3925424 24.4108475,57.5349153 L24.4108475,46.6277966 C23.4901695,46.4745763 22.5844068,46.3037288 21.6989831,46.1138983 L21.6989831,57.0535593 Z" id="XMLID_124_" fill="#CE9912"></path>
                        <path d="M46.1057627,57.5362712 C47.0264407,57.3925424 47.9322034,57.2325424 48.8176271,57.0549153 L48.8176271,46.1138983 C47.9322034,46.3037288 47.0264407,46.4745763 46.1057627,46.6291525 L46.1057627,57.5362712 Z" id="XMLID_123_" fill="#CE9912"></path>
                        <path d="M29.8345763,58.16 C30.7267797,58.2264407 31.6325424,58.2725424 32.5464407,58.3050847 L32.5464407,47.4535593 C31.6325424,47.4183051 30.7267797,47.3694915 29.8345763,47.2976271 L29.8345763,58.16 Z" id="XMLID_122_" fill="#CE9912"></path>
                        <path d="M37.9701695,58.3050847 C38.8840678,58.2711864 39.7898305,58.2264407 40.6820339,58.16 L40.6820339,47.2962712 C39.7898305,47.3681356 38.8840678,47.4169492 37.9701695,47.4535593 L37.9701695,58.3050847 Z" id="XMLID_121_" fill="#CE9912"></path>
                        <path d="M69.5864407,45.1552542 C65.9566102,52.6888136 51.9715254,58.3050847 35.2583051,58.3050847 C29.0155932,58.3050847 23.1552542,57.5186441 18.0691525,56.1450847 C22.9884746,59.4847458 31.7437288,62.3267797 43.3938983,62.3267797 C61.9457627,62.3267797 73.2244068,55.1254237 73.2244068,50.1694915 C73.2244068,48.5152542 71.9511864,46.760678 69.5864407,45.1552542" id="XMLID_120_" fill="#FFD949"></path>
                        <path d="M42.0379661,44.7457627 C22.5681356,44.7457627 6.78372881,37.1254237 6.78372881,27.7261017 L6.78372881,20.0623729 C2.52474576,22.7322034 0.00406779661,26.08 0.00406779661,29.8305085 C0.00406779661,39.2298305 15.7884746,47.4576271 35.2583051,47.4576271 C44.6332203,47.4576271 53.1457627,45.5471186 59.460339,42.519322 C54.32,43.9335593 48.3769492,44.7457627 42.0379661,44.7457627" id="XMLID_119_" fill="#FFD949"></path>
                        <path d="M42.0379661,33.8888136 C22.5681356,33.8888136 6.78372881,25.6610169 6.78372881,16.2616949 L6.78372881,27.7166102 C6.78372881,37.1159322 22.5681356,44.7362712 42.0379661,44.7362712 C61.5077966,44.7362712 77.2922034,37.1159322 77.2922034,27.7166102 L77.2922034,16.2616949 C77.2922034,25.6610169 61.5077966,33.8888136 42.0379661,33.8888136" id="XMLID_118_" fill="#E4AF18"></path>
                        <path d="M10.8515254,35.7179661 C11.6515254,36.4488136 12.5586441,37.1484746 13.5633898,37.8128814 L13.5633898,26.5708475 C12.5586441,25.879322 11.6515254,25.1538983 10.8515254,24.3986441 L10.8515254,35.7179661 Z" id="XMLID_117_" fill="#CE9912"></path>
                        <path d="M70.5125424,26.5708475 L70.5125424,37.8128814 C71.5172881,37.1498305 72.4244068,36.4488136 73.2244068,35.7179661 L73.2244068,24.3972881 C72.4257627,25.1538983 71.5186441,25.879322 70.5125424,26.5708475" id="XMLID_116_" fill="#CE9912"></path>
                        <path d="M16.2752542,39.3938983 C17.1322034,39.8372881 18.0379661,40.2562712 18.9871186,40.6535593 L18.9871186,29.5444068 C18.0379661,29.1267797 17.1322034,28.6861017 16.2752542,28.2223729 L16.2752542,39.3938983 Z" id="XMLID_115_" fill="#CE9912"></path>
                        <path d="M65.0888136,40.6522034 C66.0379661,40.2562712 66.9437288,39.8372881 67.800678,39.3925424 L67.800678,28.2210169 C66.9437288,28.6847458 66.0379661,29.1267797 65.0888136,29.5430508 L65.0888136,40.6522034 Z" id="XMLID_114_" fill="#CE9912"></path>
                        <path d="M21.6989831,41.6786441 C22.5749153,41.9783051 23.479322,42.2576271 24.4108475,42.5179661 L24.4108475,31.5159322 C23.479322,31.239322 22.5749153,30.9423729 21.6989831,30.6264407 L21.6989831,41.6786441 Z" id="XMLID_113_" fill="#CE9912"></path>
                        <path d="M59.6650847,42.5179661 C60.5966102,42.2576271 61.5010169,41.9783051 62.3769492,41.6786441 L62.3769492,30.6264407 C61.5010169,30.9423729 60.5966102,31.239322 59.6650847,31.5159322 L59.6650847,42.5179661 Z" id="XMLID_112_" fill="#CE9912"></path>
                        <path d="M28.4786441,43.4942373 C29.3640678,43.6732203 30.2698305,43.8332203 31.1905085,43.9755932 L31.1905085,33.0684746 C30.2698305,32.9152542 29.3640678,32.7444068 28.4786441,32.5545763 L28.4786441,43.4942373 Z" id="XMLID_111_" fill="#CE9912"></path>
                        <path d="M52.8854237,43.9769492 C53.8061017,43.8332203 54.7118644,43.6732203 55.5972881,43.4955932 L55.5972881,32.5545763 C54.7118644,32.7444068 53.8061017,32.9152542 52.8854237,33.0698305 L52.8854237,43.9769492 Z" id="XMLID_110_" fill="#CE9912"></path>
                        <path d="M36.6142373,44.600678 C37.5064407,44.6671186 38.4122034,44.7132203 39.3261017,44.7457627 L39.3261017,33.8942373 C38.4122034,33.8589831 37.5064407,33.8101695 36.6142373,33.7383051 L36.6142373,44.600678 Z" id="XMLID_109_" fill="#CE9912"></path>
                        <path d="M44.7498305,44.7457627 C45.6637288,44.7118644 46.5694915,44.6671186 47.4616949,44.600678 L47.4616949,33.7369492 C46.5694915,33.8088136 45.6637288,33.8576271 44.7498305,33.8942373 L44.7498305,44.7457627 Z" id="XMLID_108_" fill="#CE9912"></path>
                        <path d="M77.2922034,16.2711864 C77.2922034,25.6705085 61.5077966,33.8983051 42.0379661,33.8983051 C22.5681356,33.8983051 6.78372881,25.6705085 6.78372881,16.2711864 C6.78372881,6.87186441 22.5681356,0 42.0379661,0 C61.5077966,0 77.2922034,6.87186441 77.2922034,16.2711864" id="XMLID_107_" fill="#FCC62D"></path>
                        <path d="M42.0379661,28.4284746 C23.4861017,28.4284746 12.2074576,21.2284746 12.2074576,16.2711864 C12.2074576,11.3152542 23.4861017,4.06779661 42.0379661,4.06779661 C60.5898305,4.06779661 71.8684746,11.3152542 71.8684746,16.2711864 C71.8684746,21.2284746 60.5898305,28.4284746 42.0379661,28.4284746" id="XMLID_106_" fill="#FFD949"></path>
                        <path d="M51.2325424,18.1138983 C52.3444068,17.8779661 52.9966102,17.1918644 52.7566102,16.4094915 L52.4989831,15.5742373 C52.3105085,14.96 51.5769492,14.4474576 50.6779661,14.1925424 C49.4549153,11.579661 46.3362712,10.6332203 41.7044068,10.6332203 C41.4847458,10.6332203 41.2705085,10.6386441 41.0589831,10.6467797 C39.4779661,10.7118644 37.9010169,10.56 36.6711864,10.1098305 C36.1694915,9.92677966 35.7613559,9.73559322 35.4915254,9.53627119 C35.3694915,9.44677966 35.0738983,9.50372881 35.0738983,9.61762712 C35.0738983,9.81559322 35.0888136,10.0501695 35.1322034,10.3105085 C35.300339,11.3233898 35.099661,11.1715254 34.0989831,12.1816949 C33.5186441,12.7701695 33.0562712,13.4481356 32.7213559,14.1966102 C31.8277966,14.4528814 31.0983051,14.9640678 30.9098305,15.5755932 L30.6522034,16.4108475 C30.4122034,17.1932203 31.0644068,17.879322 32.1762712,18.1152542 C32.4935593,20.1166102 33.8535593,21.8738983 36.8189831,22.8420339 L36.6562712,24.2481356 C36.6128814,24.6237288 36.2888136,24.9708475 35.8169492,25.1416949 L29.8359322,27.300339 C33.3288136,28.0325424 37.3098305,28.4745763 41.7044068,28.4745763 C46.0379661,28.4745763 49.9688136,28.0447458 53.4264407,27.3328814 L47.5755932,25.1457627 C47.1132203,24.9722034 46.7959322,24.6277966 46.7538983,24.2589831 L46.5898305,22.8420339 C49.5552542,21.8738983 50.9152542,20.1152542 51.2325424,18.1138983" id="XMLID_105_" fill="#F0C41B"></path>
                    </g>
                </g>
            </g>
        </g>
    </g>
</svg>