<?xml version="1.0" encoding="UTF-8"?>
<svg width="32px" height="32px" viewBox="0 0 32 32" version="1.1" xmlns="http://www.w3.org/2000/svg" xmlns:xlink="http://www.w3.org/1999/xlink">
    <!-- Generator: Sketch 48.2 (47327) - http://www.bohemiancoding.com/sketch -->
    <title>search</title>
    <desc>Created with Sketch.</desc>
    <defs></defs>
    <g id="Desktop-HD-Copy" stroke="none" stroke-width="1" fill="none" fill-rule="evenodd" transform="translate(-538.000000, -225.000000)">
        <g id="Group-20" transform="translate(538.000000, 220.000000)" fill-rule="nonzero">
            <g id="search" transform="translate(0.000000, 5.000000)">
                <path d="M7,19.7387576 L5.90055521,23.9135327 L1.88210981,24 C0.681184454,21.7343443 0,19.142146 0,16.3874922 C0,13.7237607 0.636890808,11.2118176 1.76582357,9 L1.76668723,9 L5.34423196,9.66714077 L6.91141271,13.2842083 C6.58340531,14.2568709 6.40462677,15.301004 6.40462677,16.3874922 C6.40475015,17.5666597 6.61474399,18.6964443 7,19.7387576 Z" id="Shape" fill="#FBBB00"></path>
                <path d="M31.7141533,13 C31.9020338,13.9386896 32,14.9081111 32,15.8988693 C32,17.0098278 31.8768552,18.0935093 31.6422603,19.1388213 C30.8458773,22.6959129 28.7649418,25.8019656 25.8822552,28 L25.8813605,27.9991514 L21.2134903,27.7732379 L20.5528414,23.8614252 C22.4656431,22.797383 23.9605068,21.1322183 24.7479431,19.1388213 L16,19.1388213 L16,13 L24.8755612,13 L31.7141533,13 Z" id="Shape" fill="#518EF8"></path>
                <path d="M25.999129,28.3824257 L26,28.383324 C23.2705582,30.6461047 19.8033067,32 16.0289612,32 C9.96354191,32 4.69012179,28.5033837 2,23.357696 L7.16143282,19 C8.5064626,22.7024053 11.9692968,25.3380061 16.0289612,25.3380061 C17.7739101,25.3380061 19.4086759,24.8514791 20.8114414,24.0021422 L25.999129,28.3824257 Z" id="Shape" fill="#28B446"></path>
                <path d="M26,3.70946626 L20.9066175,7.98288016 C19.4734838,7.0648288 17.7793951,6.53449144 15.9644404,6.53449144 C11.8662368,6.53449144 8.38397052,9.23823011 7.12273914,13 L2.00085982,8.70266868 L2,8.70266868 C4.61667434,3.5324144 9.88797789,0 15.9644404,0 C19.7792722,0 23.2770766,1.39262336 26,3.70946626 Z" id="Shape" fill="#F14336"></path>
            </g>
        </g>
    </g>
</svg>