<?xml version="1.0" encoding="UTF-8"?>
<svg width="36px" height="36px" viewBox="0 0 36 36" version="1.1" xmlns="http://www.w3.org/2000/svg" xmlns:xlink="http://www.w3.org/1999/xlink">
    <!-- Generator: Sketch 48.2 (47327) - http://www.bohemiancoding.com/sketch -->
    <title>smile</title>
    <desc>Created with Sketch.</desc>
    <defs></defs>
    <g id="Desktop-HD-Copy" stroke="none" stroke-width="1" fill="none" fill-rule="evenodd" transform="translate(-818.000000, -605.000000)">
        <g id="Group-10" transform="translate(580.000000, 302.000000)" fill-rule="nonzero">
            <g id="Group-4">
                <g id="Group-12" transform="translate(20.000000, 300.000000)">
                    <g id="smile" transform="translate(218.000000, 3.000000)">
                        <circle id="Oval" fill="#FDDF6D" cx="17.9649825" cy="17.9649825" r="17.9649825"></circle>
                        <path d="M21.8146667,33.2777544 C11.8929123,33.2777544 3.84975439,25.2345965 3.84975439,15.3128421 C3.84975439,10.012 6.14603509,5.24814035 9.79761404,1.95978947 C3.98161404,4.93354386 0,10.9842105 0,17.9649123 C0,27.8866667 8.04315789,35.9298246 17.9649123,35.9298246 C22.5858947,35.9298246 26.798807,34.1845614 29.9819649,31.3180351 C27.5315789,32.5708772 24.7557895,33.2777544 21.8146667,33.2777544 Z" id="Shape" fill="#FCC56B"></path>
                        <g id="Group" transform="translate(11.578947, 9.192982)" fill="#7F184C">
                            <path d="M8.99985965,20.8346667 C4.9837193,20.8346667 1.728,17.5789474 1.728,13.562807 L16.2717193,13.562807 C16.2717193,17.5789474 13.0159298,20.8346667 8.99985965,20.8346667 Z" id="Shape"></path>
                            <path d="M5.67712281,3.94196491 C5.27347368,3.94196491 4.94631579,3.61473684 4.94631579,3.21115789 C4.94631579,2.26849123 4.1794386,1.50154386 3.23670175,1.50154386 C2.29403509,1.50154386 1.52708772,2.2685614 1.52708772,3.21115789 C1.52708772,3.61480702 1.19985965,3.94196491 0.796280702,3.94196491 C0.392631579,3.94196491 0.0654736842,3.61473684 0.0654736842,3.21115789 C0.0654736842,1.46252632 1.48814035,0.0399298246 3.23670175,0.0399298246 C4.98526316,0.0399298246 6.40792982,1.46252632 6.40792982,3.21115789 C6.408,3.61473684 6.08077193,3.94196491 5.67712281,3.94196491 Z" id="Shape"></path>
                            <path d="M18.0209123,3.94196491 C17.6172632,3.94196491 17.2901053,3.61473684 17.2901053,3.21115789 C17.2901053,2.26849123 16.5232281,1.50154386 15.5804912,1.50154386 C14.6377544,1.50154386 13.8708772,2.2685614 13.8708772,3.21115789 C13.8708772,3.61480702 13.5436491,3.94196491 13.1400702,3.94196491 C12.7364912,3.94196491 12.4092632,3.61473684 12.4092632,3.21115789 C12.4092632,1.46252632 13.8319298,0.0399298246 15.5804912,0.0399298246 C17.3290526,0.0399298246 18.7517193,1.46252632 18.7517193,3.21115789 C18.7517895,3.61473684 18.4245614,3.94196491 18.0209123,3.94196491 Z" id="Shape"></path>
                        </g>
                        <g id="Group" transform="translate(7.789474, 16.491228)" fill="#F9A880">
                            <path d="M2.45522807,0.36154386 C1.12112281,0.36154386 0.0395789474,1.44308772 0.0395789474,2.77719298 L4.87101754,2.77719298 C4.87087719,1.44308772 3.78933333,0.36154386 2.45522807,0.36154386 Z" id="Shape"></path>
                            <path d="M23.526386,0.0378245614 C22.1922807,0.0378245614 21.1107368,1.11936842 21.1107368,2.45347368 L25.9421754,2.45347368 C25.9421754,1.11936842 24.8606316,0.0378245614 23.526386,0.0378245614 Z" id="Shape"></path>
                        </g>
                        <path d="M15.081193,22.7557895 L15.081193,23.8909474 C15.081193,24.369614 15.469193,24.7575439 15.9477895,24.7575439 L25.2096842,24.7575439 C25.6883509,24.7575439 26.0762807,24.3695439 26.0762807,23.8909474 L26.0762807,22.7557895 L15.081193,22.7557895 Z" id="Shape" fill="#F2F2F2"></path>
                        <path d="M20.7313684,27.0107368 C18.7656842,26.0974737 16.5844211,26.2301754 14.8155789,27.1773333 C16.1447018,28.9096842 18.2349474,30.0275789 20.5871579,30.0275789 C21.6237895,30.0275789 22.6088421,29.809193 23.5012632,29.4183158 C22.8465965,28.4054035 21.9078596,27.5573333 20.7313684,27.0107368 Z" id="Shape" fill="#FC4C59"></path>
                        <ellipse id="Oval" fill="#FCEB88" transform="translate(21.240971, 4.995101) rotate(-74.198630) translate(-21.240971, -4.995101) " cx="21.2409709" cy="4.99510106" rx="2.09499254" ry="3.75153417"></ellipse>
                    </g>
                </g>
            </g>
        </g>
    </g>
</svg>