<?xml version="1.0" encoding="UTF-8"?>
<svg width="120px" height="150px" viewBox="0 0 120 150" version="1.1" xmlns="http://www.w3.org/2000/svg" xmlns:xlink="http://www.w3.org/1999/xlink">
    <!-- Generator: Sketch 48.2 (47327) - http://www.bohemiancoding.com/sketch -->
    <title>Group 7</title>
    <desc>Created with Sketch.</desc>
    <defs></defs>
    <g id="Desktop-HD-Copy-2" stroke="none" stroke-width="1" fill="none" fill-rule="evenodd" transform="translate(-654.000000, -694.000000)">
        <g id="Group-11" transform="translate(354.000000, 694.000000)">
            <g id="Group-7" transform="translate(300.000000, 0.000000)">
                <text id="Healthcare" font-family="Roboto-Regular, Roboto" font-size="20" font-weight="normal" fill="#4A4A4A">
                    <tspan x="12" y="149">Healthcare</tspan>
                </text>
                <g id="Group-4">
                    <circle id="Oval-7-Copy-2" fill="#F7F7F7" cx="60" cy="60" r="60"></circle>
                    <g id="medicine-2" transform="translate(20.000000, 18.000000)">
                        <g id="Group" transform="translate(33.729730, 0.000000)" fill="#D43D21" fill-rule="nonzero">
                            <path d="M3.92886486,27.1967568 C3.84454054,27.2092973 3.76237838,27.2142703 3.67956757,27.2227027 L3.67956757,41.6268108 C5.60172973,41.9686486 7.74075676,41.6601081 9.26659459,41.4495135 L9.26659459,27.2979459 C9.10637838,27.2774054 8.94832432,27.2460541 8.79481081,27.1984865 C6.80432432,26.5833514 6.52259459,26.8123243 3.92886486,27.1967568 Z" id="Shape"></path>
                            <path d="M6.50854054,0 C3.02291892,0 0.197405405,2.82551351 0.197405405,6.31113514 C0.197405405,8.77924324 1.61491892,10.915027 3.67935135,11.9526486 L3.67935135,12.8121081 C3.71762162,12.8105946 3.75589189,12.8092973 3.79308108,12.8075676 L8.98378378,12.8075676 C9.07481081,12.8121081 9.16951351,12.8149189 9.26637838,12.8164324 L9.26637838,11.9894054 C11.3699459,10.9658378 12.8198919,8.808 12.8198919,6.31135135 C12.8198919,2.82551351 9.99437838,0 6.50854054,0 Z" id="Shape"></path>
                        </g>
                        <path d="M45.1736216,57.1785946 C46.5788108,55.9814054 47.3191351,54.7284324 47.3191351,53.5381622 C47.3191351,52.4056216 47.6244324,50.1401081 42.9963243,48.0771892 L42.9963243,58.7208649 C43.7182703,58.307027 44.4702703,57.7779459 45.1736216,57.1785946 Z" id="Shape"></path>
                        <path d="M32.3835676,53.3256216 C32.3835676,54.5744865 33.0624865,56.0488649 34.5223784,57.1785946 C35.6646486,58.0627027 36.3485405,58.3347027 37.4092973,59.0004324 L37.4092973,47.7701622 C32.0348108,49.8774054 32.3835676,52.1076757 32.3835676,53.3256216 Z" id="Shape"></path>
                        <path d="M37.4090811,47.5537297 L37.4090811,59.2164324 C39.6023784,60.5260541 41.5139459,59.6938378 42.4064865,59.2531892 C42.5995676,59.1580541 42.796973,59.0508108 42.9961081,58.9368649 L42.9961081,47.8607568 C42.7602162,47.7556757 42.5156757,47.6508108 42.2536216,47.547027 L42.2534054,47.5667027 C40.7022703,46.8460541 39.7615135,47.0073514 37.8263784,47.3932973 C37.6828108,47.4467027 37.5455135,47.5003243 37.4090811,47.5537297 Z" id="Shape" fill="#D43D21" fill-rule="nonzero"></path>
                        <path d="M37.4090811,67.1775135 L37.4090811,79.2828108 C37.4071351,79.3236757 37.403027,79.3643243 37.403027,79.4058378 C37.403027,80.952 38.6553514,82.2056216 40.1997838,82.2056216 C41.7442162,82.2056216 42.9958919,80.9522162 42.9963243,79.4060541 L42.9963243,67.6681081 C42.6864865,67.4268108 42.3582703,67.1917838 42.0108108,66.9651892 C40.4808649,66.1238919 38.9269189,66.1465946 37.4090811,67.1775135 Z" id="Shape" fill="#D43D21" fill-rule="nonzero"></path>
                        <path d="M42.2536216,47.7831351 L42.2538378,47.7634595 C42.5158919,47.8672432 42.7604324,47.9721081 42.9963243,48.0771892 C47.6244324,50.1401081 47.3191351,52.4056216 47.3191351,53.5381622 C47.3191351,54.7284324 46.5788108,55.9814054 45.1736216,57.1785946 C44.4702703,57.7779459 43.7184865,58.307027 42.9963243,58.7208649 C42.7971892,58.8348108 42.5997838,58.9418378 42.4067027,59.0371892 C41.5141622,59.4778378 39.6023784,60.3100541 37.4092973,59.0004324 C36.3487568,58.3347027 35.6648649,58.0627027 34.5223784,57.1785946 C33.0624865,56.0486486 32.3835676,54.5744865 32.3835676,53.3256216 C32.3835676,52.1076757 32.0348108,49.8776216 37.4090811,47.7701622 C37.5455135,47.7167568 37.6828108,47.6631351 37.8265946,47.6099459 C39.7615135,47.2237838 40.7024865,47.0624865 42.2536216,47.7831351 Z M37.4090811,41.4105946 C37.2838919,41.3883243 37.1593514,41.3641081 37.0361081,41.336 C34.8916757,40.848 32.792,40.4168649 28.3035676,39.1731892 C24.0051892,38.0341622 19.2743784,36.1924324 18.5708108,35.2531892 C18.6255135,35.1991351 18.7063784,35.1414054 18.8419459,35.0873514 C19.2196757,34.8711351 19.896,34.6854054 20.6527568,34.5195676 C22.2475676,34.1952432 24.3837838,34.0330811 26.5465946,33.924973 C30.8454054,33.7932973 31.1723243,34.0095135 31.6832432,33.979027 C32.1939459,33.9483243 34.8067027,33.9161081 34.8888649,31.9297297 C34.9708108,29.9433514 33.5565405,29.7984865 32.4484324,29.5751351 C30.6916757,29.3353514 31.4395676,29.4097297 29.0605405,29.4404324 C25.1139459,29.7377297 13.028973,28.7608649 11.5152432,35.1141622 C11.5152432,35.2998919 11.4884324,35.4116757 11.4611892,35.5772973 C11.9744865,41.1126486 23.4646486,43.5256216 31.7638919,45.1677838 C28.9522162,47.0940541 27.4382703,49.6082162 26.8441081,52.8795676 C26.5465946,56.3401081 29.304,59.6382703 35.7117838,63.3081081 C30.8454054,66.7416216 27.6547027,69.9857297 27.9256216,73.8856216 C28.3191351,76.7872432 30.7238919,80.5848649 35.2977297,83.2579459 C35.7526486,83.5236757 36.4088649,83.4942703 35.936,82.7024865 C34.7898378,80.7827027 32.8017297,77.1617297 32.6291892,74.8791351 C32.3922162,73.2242162 33.1971892,70.8715676 36.5591351,68.076973 C36.8408649,67.8112432 37.1243243,67.5865946 37.4090811,67.3932973 C38.9269189,66.3623784 40.4806486,66.3396757 42.0105946,67.1811892 C42.3578378,67.4077838 42.6862703,67.6428108 42.9961081,67.8841081 C46.0371892,70.2534054 47.2873514,73.2415135 47.0663784,74.8793514 C46.8951351,77.1483243 44.9563243,80.7556757 43.7801081,82.6676757 C43.3865946,83.3074595 43.792,83.6317838 44.4164324,83.2486486 C48.944,80.4704865 51.376,76.7928649 51.7699459,73.8858378 C52.0410811,69.9859459 48.8501622,66.7418378 44.0043243,63.3083243 C50.3915676,59.6382703 53.1491892,56.3401081 52.8514595,52.8797838 C52.2572973,49.6356757 50.7433514,47.1212973 47.9316757,45.168 C56.2311351,43.5256216 67.7210811,41.1126486 68.2343784,35.5775135 C68.2071351,35.4118919 68.1803243,35.3003243 68.1803243,35.1143784 C66.6663784,28.7610811 54.5814054,29.7379459 50.6352432,29.4406486 C48.256,29.4099459 48.5517838,29.3954595 47.4382703,29.4 C46.3245405,29.4043243 44.884973,29.9902703 44.8488649,31.7656216 C44.812973,33.5407568 46.8614054,33.9982703 48.0123243,33.979027 C48.684973,33.9677838 48.8501622,33.7932973 53.1491892,33.952 C55.3117838,34.0330811 57.448,34.1952432 59.0153514,34.5195676 C59.7997838,34.6854054 60.4486486,34.8711351 60.8538378,35.0873514 C60.9619459,35.1414054 61.0700541,35.1991351 61.1247568,35.2531892 C60.4211892,36.1924324 55.6903784,38.0341622 51.392,39.1731892 C47.4488649,40.2659459 44.1762162,41.0021622 43.3044324,41.1909189 C43.204973,41.2043243 43.1018378,41.2185946 42.9961081,41.2330811 C41.4704865,41.4438919 39.3312432,41.7524324 37.4090811,41.4105946 Z" id="Shape" fill="#2B3237" fill-rule="nonzero"></path>
                        <path d="M76.8845405,19.6291892 C66.4871351,17.7022703 58.2691892,8.26140541 55.9610811,6.38010811 C53.3388108,4.24064865 51.5271351,4.73081081 48.9050811,9.43156757 C47.2674595,12.352 44.7094054,12.8436757 42.9963243,12.8162162 C42.8996757,12.8147027 42.8047568,12.8116757 42.7137297,12.8073514 L37.523027,12.8073514 C37.4858378,12.8092973 37.4473514,12.8105946 37.4092973,12.8118919 C35.6994595,12.8737297 33.0242162,12.4492973 31.3318919,9.43135135 C28.7098378,4.73059459 26.8713514,4.24043243 24.2761081,6.37989189 C21.9312432,8.29081081 13.4797838,17.8994595 2.85967568,19.7031351 C-0.0908108108,20.2041081 -0.616432432,21.5993514 1.28432432,22.9494054 C2.77318919,24.0067027 4.94291892,24.7961081 7.94681081,24.2499459 C7.94681081,24.2499459 11.596973,28.035027 17.5171892,25.3855135 C17.5171892,25.3855135 20.5991351,28.1667027 25.5195676,25.6252973 C25.5195676,25.6252973 29.1422703,28.4064865 33.0354595,26.0073514 C33.0354595,26.0073514 34.9368649,27.4752432 37.4092973,27.2227027 C37.4923243,27.2142703 37.5744865,27.2090811 37.6585946,27.1967568 C40.2523243,26.8125405 40.5340541,26.5833514 42.5245405,27.1984865 C42.6780541,27.2460541 42.8358919,27.2774054 42.9963243,27.2979459 C44.9137297,27.544 47.2015135,26.0073514 47.2015135,26.0073514 C51.0678919,28.4067027 54.7174054,25.6252973 54.7174054,25.6252973 C59.6376216,28.1667027 62.6923243,25.3855135 62.6923243,25.3855135 C68.6402162,28.035027 72.2901622,24.2499459 72.2901622,24.2499459 C74.7762162,24.7020541 76.691027,24.2391351 78.1210811,23.4668108 C80.6252973,22.1143784 80.3775135,20.2765405 76.8845405,19.6291892 Z" id="Shape" fill="#E0DCD3" fill-rule="nonzero"></path>
                    </g>
                </g>
            </g>
        </g>
    </g>
</svg>