<?xml version="1.0" encoding="UTF-8"?>
<svg width="160px" height="160px" viewBox="0 0 160 160" version="1.1" xmlns="http://www.w3.org/2000/svg" xmlns:xlink="http://www.w3.org/1999/xlink">
    <!-- Generator: Sketch 48.2 (47327) - http://www.bohemiancoding.com/sketch -->
    <title>Group 3</title>
    <desc>Created with Sketch.</desc>
    <defs></defs>
    <g id="Desktop-HD-Copy-2" stroke="none" stroke-width="1" fill="none" fill-rule="evenodd" transform="translate(-640.000000, -140.000000)">
        <g id="Title" transform="translate(534.000000, 140.000000)">
            <g id="Group-3" transform="translate(106.000000, 0.000000)">
                <circle id="Oval-4" fill="#F7F7F7" cx="80" cy="80" r="80"></circle>
                <g id="Group-2" transform="translate(28.000000, 23.000000)" fill-rule="nonzero">
                    <g id="bar-chart-3">
                        <rect id="Rectangle-path" fill="#ACB3BA" x="0" y="95.065873" width="101.587302" height="5.29107143"></rect>
                        <rect id="Rectangle-path" fill="#CDD6E0" x="4.2327381" y="52.5261905" width="15.6613095" height="38.3075397"></rect>
                        <rect id="Rectangle-path" fill="#4CDBC4" x="23.7043651" y="34.1132937" width="15.6613095" height="56.7202381"></rect>
                        <rect id="Rectangle-path" fill="#FFD15C" x="42.9623016" y="42.7918651" width="15.6613095" height="48.0416667"></rect>
                        <rect id="Rectangle-path" fill="#84DBFF" x="62.4345238" y="60.7799603" width="15.6613095" height="29.8412698"></rect>
                        <rect id="Rectangle-path" fill="#FF7058" x="81.6924603" y="27.3414683" width="15.6613095" height="63.2797619"></rect>
                        <polygon id="Shape" fill="#CDD6E0" points="66.4549603 37.9234127 36.6136905 8.08234127 10.5819444 34.1138889 7.61904762 31.1509921 36.6136905 2.15654762 66.4549603 31.997619 91.0053571 7.44742063 93.968254 10.4103175"></polygon>
                        <g id="Group" transform="translate(3.769841, 0.000000)" fill="#40596B">
                            <circle id="Oval" cx="5.33075397" cy="32.6331349" r="5.29107143"></circle>
                            <circle id="Oval" cx="32.843254" cy="5.33115079" r="5.29107143"></circle>
                            <circle id="Oval" cx="62.4742063" cy="35.1728175" r="5.29107143"></circle>
                            <circle id="Oval" cx="88.7162698" cy="8.92896825" r="5.29107143"></circle>
                        </g>
                    </g>
                    <g id="smile" transform="translate(68.841270, 78.571429)">
                        <circle id="Oval" fill="#FDDF6D" cx="24.9513645" cy="24.9513645" r="24.9513645"></circle>
                        <path d="M30.2981481,46.2191033 C16.5179337,46.2191033 5.34688109,35.0480507 5.34688109,21.2678363 C5.34688109,13.9055556 8.53615984,7.28908382 13.6077973,2.72192982 C5.53001949,6.85214425 0,15.255848 0,24.9512671 C0,38.7314815 11.1710526,49.9025341 24.9512671,49.9025341 C31.3692982,49.9025341 37.2205653,47.4785575 41.6416179,43.497271 C38.2383041,45.2373294 34.3830409,46.2191033 30.2981481,46.2191033 Z" id="Shape" fill="#FCC56B"></path>
                        <g id="Group" transform="translate(16.081871, 12.768031)" fill="#7F184C">
                            <path d="M12.4998051,28.937037 C6.92183236,28.937037 2.4,24.4152047 2.4,18.837232 L22.5996101,18.837232 C22.5996101,24.4152047 18.0776803,28.937037 12.4998051,28.937037 Z" id="Shape"></path>
                            <path d="M7.88489279,5.47495127 C7.32426901,5.47495127 6.86988304,5.02046784 6.86988304,4.45994152 C6.86988304,3.15068226 5.80477583,2.08547758 4.4954191,2.08547758 C3.18615984,2.08547758 2.12095517,3.15077973 2.12095517,4.45994152 C2.12095517,5.0205653 1.66647173,5.47495127 1.10594542,5.47495127 C0.545321637,5.47495127 0.0909356725,5.02046784 0.0909356725,4.45994152 C0.0909356725,2.03128655 2.0668616,0.0554580897 4.4954191,0.0554580897 C6.92397661,0.0554580897 8.89990253,2.03128655 8.89990253,4.45994152 C8.9,5.02046784 8.44551657,5.47495127 7.88489279,5.47495127 Z" id="Shape"></path>
                            <path d="M25.0290448,5.47495127 C24.4684211,5.47495127 24.0140351,5.02046784 24.0140351,4.45994152 C24.0140351,3.15068226 22.9489279,2.08547758 21.6395712,2.08547758 C20.3302144,2.08547758 19.2651072,3.15077973 19.2651072,4.45994152 C19.2651072,5.0205653 18.8106238,5.47495127 18.2500975,5.47495127 C17.6895712,5.47495127 17.2350877,5.02046784 17.2350877,4.45994152 C17.2350877,2.03128655 19.2110136,0.0554580897 21.6395712,0.0554580897 C24.0681287,0.0554580897 26.0440546,2.03128655 26.0440546,4.45994152 C26.044152,5.02046784 25.5896686,5.47495127 25.0290448,5.47495127 Z" id="Shape"></path>
                        </g>
                        <g id="Group" transform="translate(10.818713, 22.904483)" fill="#F9A880">
                            <path d="M3.41003899,0.50214425 C1.55711501,0.50214425 0.0549707602,2.0042885 0.0549707602,3.85721248 L6.76530214,3.85721248 C6.76510721,2.0042885 5.26296296,0.50214425 3.41003899,0.50214425 Z" id="Shape"></path>
                            <path d="M32.6755361,0.0525341131 C30.8226121,0.0525341131 29.3204678,1.55467836 29.3204678,3.40760234 L36.0307992,3.40760234 C36.0307992,1.55467836 34.528655,0.0525341131 32.6755361,0.0525341131 Z" id="Shape"></path>
                        </g>
                        <path d="M20.9461014,31.6052632 L20.9461014,33.1818713 C20.9461014,33.8466862 21.4849903,34.3854776 22.1497076,34.3854776 L35.0134503,34.3854776 C35.6782651,34.3854776 36.2170565,33.8465887 36.2170565,33.1818713 L36.2170565,31.6052632 L20.9461014,31.6052632 Z" id="Shape" fill="#F2F2F2"></path>
                        <path d="M28.7935673,37.5149123 C26.0634503,36.2464912 23.0339181,36.4307992 20.577193,37.7462963 C22.4231969,40.1523392 25.3263158,41.7049708 28.5932749,41.7049708 C30.0330409,41.7049708 31.4011696,41.4016569 32.6406433,40.8587719 C31.731384,39.4519493 30.4275828,38.2740741 28.7935673,37.5149123 Z" id="Shape" fill="#FC4C59"></path>
                        <ellipse id="Oval" fill="#FCEB88" transform="translate(29.501348, 6.937640) rotate(-74.198630) translate(-29.501348, -6.937640) " cx="29.5013484" cy="6.93764036" rx="2.90971186" ry="5.21046413"></ellipse>
                    </g>
                </g>
            </g>
        </g>
    </g>
</svg>