<?xml version="1.0" encoding="UTF-8"?>
<svg width="40px" height="40px" viewBox="0 0 40 40" version="1.1" xmlns="http://www.w3.org/2000/svg" xmlns:xlink="http://www.w3.org/1999/xlink">
    <!-- Generator: Sketch 48.2 (47327) - http://www.bohemiancoding.com/sketch -->
    <title>neutral</title>
    <desc>Created with Sketch.</desc>
    <defs></defs>
    <g id="Desktop-HD-Copy-3" stroke="none" stroke-width="1" fill="none" fill-rule="evenodd" transform="translate(-844.000000, -588.000000)">
        <g id="Group-4-Copy-5" transform="translate(396.000000, 578.000000)" fill-rule="nonzero">
            <g id="Group-3">
                <g id="neutral" transform="translate(448.000000, 10.000000)">
                    <circle id="Oval" fill="#FDDF6D" cx="19.9610916" cy="19.9610916" r="19.9610916"></circle>
                    <path d="M24.2385185,36.9752827 C13.214347,36.9752827 4.27750487,28.0384405 4.27750487,17.014269 C4.27750487,11.1244444 6.82892788,5.83126706 10.8862378,2.17754386 C4.42401559,5.4817154 0,12.2046784 0,19.9610136 C0,30.9851852 8.93684211,39.9220273 19.9610136,39.9220273 C25.0954386,39.9220273 29.7764522,37.982846 33.3132943,34.7978168 C30.5906433,36.1898635 27.5064327,36.9752827 24.2385185,36.9752827 Z" id="Shape" fill="#FCC56B"></path>
                    <g id="Group" transform="translate(14.035088, 11.306043)" fill="#7F184C">
                        <circle id="Oval" cx="2.4494347" cy="2.47594542" r="2.43610136"></circle>
                        <circle id="Oval" cx="16.1653801" cy="2.47594542" r="2.43610136"></circle>
                    </g>
                    <g id="Group" transform="translate(8.654971, 18.323587)" fill="#F9A880">
                        <path d="M2.72803119,0.4017154 C1.24569201,0.4017154 0.0438206628,1.6034308 0.0438206628,3.08592593 L5.41208577,3.08592593 C5.41208577,1.6034308 4.21037037,0.4017154 2.72803119,0.4017154 Z" id="Shape"></path>
                        <path d="M26.1404288,0.0420272904 C24.6580897,0.0420272904 23.4562183,1.24374269 23.4562183,2.72623782 L28.8244834,2.72623782 C28.8246394,1.24374269 27.622924,0.0420272904 26.1404288,0.0420272904 Z" id="Shape"></path>
                    </g>
                    <path d="M31.3111891,28.0082651 L16.6566082,28.0082651 C16.2080312,28.0082651 15.8446004,27.6446784 15.8446004,27.1962573 C15.8446004,26.7478363 16.2081092,26.3842495 16.6566082,26.3842495 L31.3111891,26.3842495 C31.7597661,26.3842495 32.1231969,26.7478363 32.1231969,27.1962573 C32.1231969,27.6446784 31.7597661,28.0082651 31.3111891,28.0082651 Z" id="Shape" fill="#7F184C"></path>
                    <ellipse id="Oval" fill="#FCEB88" transform="translate(22.572700, 6.034177) rotate(-74.198630) translate(-22.572700, -6.034177) " cx="22.5727002" cy="6.03417716" rx="2.32776949" ry="4.1683713"></ellipse>
                </g>
            </g>
        </g>
    </g>
</svg>