<?xml version="1.0" encoding="UTF-8"?>
<svg width="40px" height="40px" viewBox="0 0 40 40" version="1.1" xmlns="http://www.w3.org/2000/svg" xmlns:xlink="http://www.w3.org/1999/xlink">
    <!-- Generator: Sketch 48.2 (47327) - http://www.bohemiancoding.com/sketch -->
    <title>cry</title>
    <desc>Created with Sketch.</desc>
    <defs></defs>
    <g id="Desktop-HD-Copy-3" stroke="none" stroke-width="1" fill="none" fill-rule="evenodd" transform="translate(-844.000000, -690.000000)">
        <g id="Group-4-Copy-7" transform="translate(396.000000, 680.000000)" fill-rule="nonzero">
            <g id="Group-3" transform="translate(2.000000, 0.000000)">
                <g id="cry" transform="translate(446.000000, 10.000000)">
                    <circle id="Oval" fill="#FDDF6D" cx="19.9610916" cy="19.9610916" r="19.9610916"></circle>
                    <path d="M24.2385185,36.9752827 C13.214347,36.9752827 4.27750487,28.0384405 4.27750487,17.014269 C4.27750487,11.1244444 6.82892788,5.83126706 10.8862378,2.17754386 C4.42401559,5.4817154 0,12.2046784 0,19.9610136 C0,30.9851852 8.93684211,39.9220273 19.9610136,39.9220273 C25.0954386,39.9220273 29.7764522,37.982846 33.3132943,34.7978168 C30.5906433,36.1898635 27.5064327,36.9752827 24.2385185,36.9752827 Z" id="Shape" fill="#FCC56B"></path>
                    <g id="Group" transform="translate(13.567251, 16.140351)" fill="#3FA9F5">
                        <path d="M3.17816764,0.0371929825 C1.17707602,0.118830409 0.125847953,1.74230019 0.0388304094,1.88187135 L0.0388304094,22.7482261 C2.03500975,23.4181676 4.17192982,23.7816764 6.39376218,23.7816764 C6.47461988,23.7816764 6.55508772,23.7794932 6.63586745,23.7786355 C6.63586745,16.4796881 6.63586745,9.18081871 6.63586745,1.88179337 C5.88896686,0.687875244 4.56709552,-0.0195711501 3.17816764,0.0371929825 Z" id="Shape"></path>
                        <path d="M17.0318908,0.0371929825 C15.0307992,0.118830409 13.9795712,1.74230019 13.8925536,1.88187135 L13.8925536,22.3238207 C16.3805848,21.3145419 18.6193372,19.8190253 20.4895127,17.9537622 C20.4895127,12.5965692 20.4895127,7.23922027 20.4895127,1.88187135 C19.7426901,0.687875244 18.4208187,-0.0195711501 17.0318908,0.0371929825 Z" id="Shape"></path>
                    </g>
                    <g id="Group" transform="translate(11.461988, 15.360624)" fill="#7F184C">
                        <path d="M23.6696296,4.18838207 C23.3845614,4.18838207 23.1079922,4.03812865 22.9594542,3.77130604 C22.2221442,2.44764133 20.8240156,1.62557505 19.3108772,1.62557505 C17.8361793,1.62557505 16.4219103,2.45637427 15.6201949,3.79376218 C15.3897076,4.17832359 14.8907602,4.30315789 14.5061988,4.07267057 C14.1214815,3.84202729 13.9966472,3.34331384 14.2272904,2.95867446 C15.3209357,1.1345809 17.2688499,0.00140350877 19.3110331,0.00140350877 C21.4129435,0.00140350877 23.3545419,1.14315789 24.3784016,2.98105263 C24.5966472,3.37278752 24.4560624,3.86736842 24.0641715,4.08553606 C23.9388694,4.15539961 23.8032749,4.18838207 23.6696296,4.18838207 Z" id="Shape"></path>
                        <path d="M9.56803119,4.18838207 C9.28296296,4.18846004 9.00639376,4.03812865 8.85785575,3.77130604 C8.12062378,2.44764133 6.72249513,1.62557505 5.20927875,1.62557505 C3.7345809,1.62557505 2.32038986,2.45637427 1.51859649,3.79376218 C1.28795322,4.17832359 0.789161793,4.30315789 0.40460039,4.07267057 C0.0198830409,3.84202729 -0.104951267,3.34331384 0.125692008,2.95867446 C1.21933723,1.1345809 3.16725146,0.00140350877 5.2094347,0.00140350877 C7.31134503,0.00140350877 9.25309942,1.14315789 10.2768031,2.98105263 C10.4950487,3.37278752 10.354308,3.86736842 9.9625731,4.08553606 C9.83727096,4.15539961 9.70167641,4.18838207 9.56803119,4.18838207 Z" id="Shape"></path>
                        <circle id="Oval" cx="12.3699025" cy="13.954152" r="3.62830409"></circle>
                    </g>
                    <ellipse id="Oval" fill="#FCEB88" transform="translate(23.579709, 5.735624) rotate(-74.198630) translate(-23.579709, -5.735624) " cx="23.5797092" cy="5.73562358" rx="2.32776949" ry="4.1683713"></ellipse>
                </g>
            </g>
        </g>
    </g>
</svg>