<?xml version="1.0" encoding="UTF-8"?>
<svg width="720px" height="105px" viewBox="0 0 720 105" version="1.1" xmlns="http://www.w3.org/2000/svg" xmlns:xlink="http://www.w3.org/1999/xlink">
    <!-- Generator: Sketch 48.2 (47327) - http://www.bohemiancoding.com/sketch -->
    <title>Group 3</title>
    <desc>Created with Sketch.</desc>
    <defs></defs>
    <g id="Desktop-HD-Copy" stroke="none" stroke-width="1" fill="none" fill-rule="evenodd" transform="translate(-360.000000, -688.000000)">
        <g id="Group-3" transform="translate(360.000000, 684.000000)">
            <g id="Group-2" transform="translate(0.000000, 44.000000)" stroke="#4A4A4A" stroke-linecap="square" stroke-width="2">
                <path d="M1,0 L1,20" id="Line"></path>
                <path d="M361,1 L361,21" id="Line-Copy-2"></path>
                <path d="M719,0 L719,20" id="Line-Copy"></path>
                <path d="M2,10 L718,10" id="Line-2"></path>
            </g>
            <g id="Group-9" transform="translate(0.000000, 85.000000)">
                <g id="Group-8" transform="translate(316.000000, 0.000000)">
                    <text id="Neutral" font-family="Roboto-Regular, Roboto" font-size="20" font-weight="normal" fill="#4A4A4A">
                        <tspan x="0" y="19">Neutral</tspan>
                    </text>
                    <g id="neutral" transform="translate(69.000000, 2.000000)" fill-rule="nonzero">
                        <circle id="Oval" fill="#FDDF6D" cx="9.98054581" cy="9.98054581" r="9.98054581"></circle>
                        <path d="M12.1192593,18.4876413 C6.60717349,18.4876413 2.13875244,14.0192203 2.13875244,8.5071345 C2.13875244,5.56222222 3.41446394,2.91563353 5.44311891,1.08877193 C2.2120078,2.7408577 0,6.10233918 0,9.98050682 C0,15.4925926 4.46842105,19.9610136 9.98050682,19.9610136 C12.5477193,19.9610136 14.8882261,18.991423 16.6566472,17.3989084 C15.2953216,18.0949318 13.7532164,18.4876413 12.1192593,18.4876413 Z" id="Shape" fill="#FCC56B"></path>
                        <g id="Group" transform="translate(7.017544, 5.653021)" fill="#7F184C">
                            <circle id="Oval" cx="1.22471735" cy="1.23797271" r="1.21805068"></circle>
                            <circle id="Oval" cx="8.08269006" cy="1.23797271" r="1.21805068"></circle>
                        </g>
                        <g id="Group" transform="translate(4.327485, 9.161793)" fill="#F9A880">
                            <path d="M1.36401559,0.2008577 C0.622846004,0.2008577 0.0219103314,0.8017154 0.0219103314,1.54296296 L2.70604288,1.54296296 C2.70604288,0.8017154 2.10518519,0.2008577 1.36401559,0.2008577 Z" id="Shape"></path>
                            <path d="M13.0702144,0.0210136452 C12.3290448,0.0210136452 11.7281092,0.621871345 11.7281092,1.36311891 L14.4122417,1.36311891 C14.4123197,0.621871345 13.811462,0.0210136452 13.0702144,0.0210136452 Z" id="Shape"></path>
                        </g>
                        <path d="M15.6555945,14.0041326 L8.32830409,14.0041326 C8.10401559,14.0041326 7.92230019,13.8223392 7.92230019,13.5981287 C7.92230019,13.3739181 8.10405458,13.1921248 8.32830409,13.1921248 L15.6555945,13.1921248 C15.879883,13.1921248 16.0615984,13.3739181 16.0615984,13.5981287 C16.0615984,13.8223392 15.879883,14.0041326 15.6555945,14.0041326 Z" id="Shape" fill="#7F184C"></path>
                        <ellipse id="Oval" fill="#FCEB88" transform="translate(11.286350, 3.017089) rotate(-74.198630) translate(-11.286350, -3.017089) " cx="11.2863501" cy="3.01708858" rx="1.16388474" ry="2.08418565"></ellipse>
                    </g>
                </g>
                <g id="Group-6">
                    <text id="Negative" font-family="Roboto-Regular, Roboto" font-size="20" font-weight="normal" fill="#4A4A4A">
                        <tspan x="0" y="19">Negative</tspan>
                    </text>
                    <g id="cry" transform="translate(83.000000, 2.000000)" fill-rule="nonzero">
                        <circle id="Oval" fill="#FDDF6D" cx="10" cy="10" r="10"></circle>
                        <path d="M12.3690804,18.5166535 C6.74337087,18.5166535 2.18283974,14.0179828 2.18283974,8.46858222 C2.18283974,5.50373394 3.4848482,2.83922879 5.55532098,1 C2.25760516,2.6632698 0,6.0475073 0,9.95192874 C0,15.5013293 4.56053113,20 10.1862406,20 C12.8063725,20 15.1951255,19.0238456 17,17.4205502 C15.6106127,18.1212854 14.0367192,18.5166535 12.3690804,18.5166535 Z" id="Shape" fill="#FCC56B"></path>
                        <g id="Group" transform="translate(7.000000, 8.000000)" fill="#3FA9F5">
                            <path d="M1.54980989,0.0187672131 C0.573992395,0.0599606557 0.0613688213,0.879147541 0.0189353612,0.94957377 L0.0189353612,11.4785311 C0.992357414,11.816577 2.03441065,12 3.11787072,12 C3.15730038,12 3.19653992,11.9988984 3.23593156,11.9984656 C3.23593156,8.31548852 3.23593156,4.63255082 3.23593156,0.949534426 C2.87171103,0.347095082 2.22711027,-0.00987540984 1.54980989,0.0187672131 Z" id="Shape"></path>
                            <path d="M8.30547529,0.0187672131 C7.32965779,0.0599606557 6.81703422,0.879147541 6.77460076,0.94957377 L6.77460076,11.2643803 C7.98787072,10.7551082 9.07958175,10.0004852 9.99155894,9.0592918 C9.99155894,6.35610492 9.99155894,3.65283934 9.99155894,0.94957377 C9.62737643,0.347095082 8.98277567,-0.00987540984 8.30547529,0.0187672131 Z" id="Shape"></path>
                        </g>
                        <g id="Group" transform="translate(6.000000, 8.000000)" fill="#7F184C">
                            <path d="M11.6011338,2.13913274 C11.461414,2.13913274 11.3258599,2.06239381 11.2530573,1.92611947 C10.8916815,1.25008407 10.2064204,0.830230088 9.46478981,0.830230088 C8.742,0.830230088 8.04882803,1.25454425 7.65588535,1.9375885 C7.5429172,2.13399558 7.29836943,2.19775221 7.10988535,2.0800354 C6.92132484,1.96223894 6.86014013,1.70753097 6.97318471,1.51108407 C7.50921019,0.579464602 8.46393631,0.000716814159 9.46486624,0.000716814159 C10.4950701,0.000716814159 11.4467006,0.583845133 11.9485223,1.52251327 C12.0554904,1.72258407 11.986586,1.97518142 11.7945096,2.08660619 C11.7330955,2.12228761 11.6666369,2.13913274 11.6011338,2.13913274 Z" id="Shape"></path>
                            <path d="M4.68955414,2.13913274 C4.54983439,2.13917257 4.41428025,2.06239381 4.34147771,1.92611947 C3.98014013,1.25008407 3.29487898,0.830230088 2.55321019,0.830230088 C1.83042038,0.830230088 1.13728662,1.25454425 0.744305732,1.9375885 C0.631261146,2.13399558 0.386789809,2.19775221 0.198305732,2.0800354 C0.00974522293,1.96223894 -0.0514394904,1.70753097 0.0616050955,1.51108407 C0.597630573,0.579464602 1.55235669,0.000716814159 2.55328662,0.000716814159 C3.58349045,0.000716814159 4.53519745,0.583845133 5.03694268,1.52251327 C5.14391083,1.72258407 5.07492994,1.97518142 4.88292994,2.08660619 C4.82151592,2.12228761 4.75505732,2.13913274 4.68955414,2.13913274 Z" id="Shape"></path>
                            <ellipse id="Oval" cx="6.06282803" cy="7.12680531" rx="1.77833121" ry="1.85308407"></ellipse>
                        </g>
                        <ellipse id="Oval" fill="#FCEB88" transform="translate(12.000000, 3.000000) rotate(-74.198630) translate(-12.000000, -3.000000) " cx="12" cy="3" rx="1" ry="2"></ellipse>
                    </g>
                </g>
                <g id="Group-7" transform="translate(625.000000, 0.000000)">
                    <text id="Positive" font-family="Roboto-Regular, Roboto" font-size="20" font-weight="normal" fill="#4A4A4A">
                        <tspan x="0" y="19">Positive</tspan>
                    </text>
                    <g id="smile" transform="translate(75.000000, 2.000000)" fill-rule="nonzero">
                        <circle id="Oval" fill="#FDDF6D" cx="9.98054581" cy="9.98054581" r="9.98054581"></circle>
                        <path d="M12.1192593,18.4876413 C6.60717349,18.4876413 2.13875244,14.0192203 2.13875244,8.5071345 C2.13875244,5.56222222 3.41446394,2.91563353 5.44311891,1.08877193 C2.2120078,2.7408577 0,6.10233918 0,9.98050682 C0,15.4925926 4.46842105,19.9610136 9.98050682,19.9610136 C12.5477193,19.9610136 14.8882261,18.991423 16.6566472,17.3989084 C15.2953216,18.0949318 13.7532164,18.4876413 12.1192593,18.4876413 Z" id="Shape" fill="#FCC56B"></path>
                        <g id="Group" transform="translate(6.432749, 5.107212)" fill="#7F184C">
                            <path d="M4.99992203,11.5748148 C2.76873294,11.5748148 0.96,9.76608187 0.96,7.53489279 L9.03984405,7.53489279 C9.03984405,9.76608187 7.23107212,11.5748148 4.99992203,11.5748148 Z" id="Shape"></path>
                            <path d="M3.15395712,2.18998051 C2.9297076,2.18998051 2.74795322,2.00818713 2.74795322,1.78397661 C2.74795322,1.2602729 2.32191033,0.834191033 1.79816764,0.834191033 C1.27446394,0.834191033 0.848382066,1.26031189 0.848382066,1.78397661 C0.848382066,2.00822612 0.666588694,2.18998051 0.442378168,2.18998051 C0.218128655,2.18998051 0.036374269,2.00818713 0.036374269,1.78397661 C0.036374269,0.81251462 0.826744639,0.0221832359 1.79816764,0.0221832359 C2.76959064,0.0221832359 3.55996101,0.81251462 3.55996101,1.78397661 C3.56,2.00818713 3.37820663,2.18998051 3.15395712,2.18998051 Z" id="Shape"></path>
                            <path d="M10.0116179,2.18998051 C9.78736842,2.18998051 9.60561404,2.00818713 9.60561404,1.78397661 C9.60561404,1.2602729 9.17957115,0.834191033 8.65582846,0.834191033 C8.13208577,0.834191033 7.70604288,1.26031189 7.70604288,1.78397661 C7.70604288,2.00822612 7.52424951,2.18998051 7.30003899,2.18998051 C7.07582846,2.18998051 6.89403509,2.00818713 6.89403509,1.78397661 C6.89403509,0.81251462 7.68440546,0.0221832359 8.65582846,0.0221832359 C9.62725146,0.0221832359 10.4176218,0.81251462 10.4176218,1.78397661 C10.4176608,2.00818713 10.2358674,2.18998051 10.0116179,2.18998051 Z" id="Shape"></path>
                        </g>
                        <g id="Group" transform="translate(4.327485, 9.161793)" fill="#F9A880">
                            <path d="M1.36401559,0.2008577 C0.622846004,0.2008577 0.0219883041,0.8017154 0.0219883041,1.54288499 L2.70612086,1.54288499 C2.70604288,0.8017154 2.10518519,0.2008577 1.36401559,0.2008577 Z" id="Shape"></path>
                            <path d="M13.0702144,0.0210136452 C12.3290448,0.0210136452 11.7281871,0.621871345 11.7281871,1.36304094 L14.4123197,1.36304094 C14.4123197,0.621871345 13.811462,0.0210136452 13.0702144,0.0210136452 Z" id="Shape"></path>
                        </g>
                        <path d="M8.37844055,12.6421053 L8.37844055,13.2727485 C8.37844055,13.5386745 8.5939961,13.754191 8.85988304,13.754191 L14.0053801,13.754191 C14.271306,13.754191 14.4868226,13.5386355 14.4868226,13.2727485 L14.4868226,12.6421053 L8.37844055,12.6421053 Z" id="Shape" fill="#F2F2F2"></path>
                        <path d="M11.5174269,15.0059649 C10.4253801,14.4985965 9.21356725,14.5723197 8.23087719,15.0985185 C8.96927875,16.0609357 10.1305263,16.6819883 11.4373099,16.6819883 C12.0132164,16.6819883 12.5604678,16.5606628 13.0562573,16.3435088 C12.6925536,15.7807797 12.1710331,15.3096296 11.5174269,15.0059649 Z" id="Shape" fill="#FC4C59"></path>
                        <ellipse id="Oval" fill="#FCEB88" transform="translate(11.800539, 2.775056) rotate(-74.198630) translate(-11.800539, -2.775056) " cx="11.8005394" cy="2.77505614" rx="1.16388474" ry="2.08418565"></ellipse>
                    </g>
                </g>
            </g>
            <g id="Group-5" fill="#4A4A4A" font-family="Roboto-Regular, Roboto" font-size="20" font-weight="normal">
                <text id="0">
                    <tspan x="356" y="19">0</tspan>
                </text>
                <text id="-1">
                    <tspan x="0" y="19">-1</tspan>
                </text>
                <text id="1">
                    <tspan x="711" y="19">1</tspan>
                </text>
            </g>
        </g>
    </g>
</svg>