<?xml version="1.0" encoding="UTF-8"?>
<svg width="120px" height="154px" viewBox="0 0 120 154" version="1.1" xmlns="http://www.w3.org/2000/svg" xmlns:xlink="http://www.w3.org/1999/xlink">
    <!-- Generator: Sketch 48.2 (47327) - http://www.bohemiancoding.com/sketch -->
    <title>Group 8</title>
    <desc>Created with Sketch.</desc>
    <defs></defs>
    <g id="Desktop-HD-Copy-2" stroke="none" stroke-width="1" fill="none" fill-rule="evenodd" transform="translate(-804.000000, -694.000000)">
        <g id="Group-11" transform="translate(354.000000, 694.000000)">
            <g id="Group-8" transform="translate(450.000000, 0.000000)">
                <text id="Technology" font-family="Roboto-Regular, Roboto" font-size="20" font-weight="normal" fill="#4A4A4A">
                    <tspan x="8" y="149">Technology</tspan>
                </text>
                <circle id="Oval-7-Copy-3" fill="#F7F7F7" cx="60" cy="60" r="60"></circle>
                <g id="ipad" transform="translate(32.000000, 20.000000)" fill-rule="nonzero">
                    <path d="M3.87516832,0 L52.5405149,0 C54.5994455,0 56.2840396,1.68459406 56.2840396,3.74352475 L56.2840396,76.117703 C56.2840396,78.1766337 54.5994455,79.8612277 52.5405149,79.8612277 L3.87516832,79.8612277 C1.81623762,79.8612277 0.131643564,78.1766337 0.131643564,76.117703 L0.131643564,3.74352475 C0.131643564,1.68459406 1.81623762,0 3.87516832,0 Z" id="Shape" fill="#CDD4D4"></path>
                    <path d="M5.12285149,11.2304158 L51.2925149,11.2304158 C51.9787723,11.2304158 52.5403564,11.792 52.5403564,12.4782574 L52.5403564,67.3828119 C52.5403564,68.0690693 51.9787723,68.6306535 51.2925149,68.6306535 L5.12285149,68.6306535 C4.43659406,68.6306535 3.8750099,68.0690693 3.8750099,67.3828119 L3.8750099,12.4782574 C3.87516832,11.792 4.43659406,11.2304158 5.12285149,11.2304158 Z" id="Shape" fill="#3F5E6D"></path>
                    <path d="M34.0101386,36.4365941 C33.2614653,35.5006733 32.2007129,34.9392475 31.2025347,34.9392475 C29.8922772,34.9392475 29.3308515,35.5630891 28.4573465,35.5630891 C27.5214257,35.5630891 26.8351683,34.9392475 25.6497426,34.9392475 C24.5267327,34.9392475 23.3413069,35.625505 22.5926337,36.8109307 C21.5320396,38.4331089 21.7191287,41.5526337 23.4037228,44.1731485 C24.0275644,45.1090693 24.8386535,46.1696634 25.8994059,46.1696634 C26.8353267,46.1696634 27.1472475,45.5458218 28.3950891,45.5458218 C29.7053465,45.5458218 29.9548515,46.1696634 30.8907723,46.1696634 C31.9513663,46.1696634 32.8248713,44.9842376 33.4488713,44.0483168 C33.8856238,43.3620594 34.0727129,43.0499802 34.3847921,42.2388911 C31.9512079,41.3031287 31.5768713,37.8092673 34.0101386,36.4365941 Z M30.5786931,33.7538218 C31.0778614,33.1299802 31.452198,32.1940594 31.3273663,31.2581386 C30.5162772,31.3205545 29.5803564,31.8197228 29.0189307,32.5059802 C28.5197624,33.1298218 28.0830099,34.0657426 28.2702574,34.9392475 C29.143604,34.9392475 30.0795248,34.4400792 30.5786931,33.7538218 Z" id="Shape" fill="#4E6B78"></path>
                    <path d="M28.2078416,71.1263366 C29.9548515,71.1263366 31.3273663,72.4990099 31.3273663,74.2458614 C31.3273663,75.9928713 29.9546931,77.3653861 28.2078416,77.3653861 C26.4608317,77.3653861 25.0883168,75.9927129 25.0883168,74.2458614 C25.0881584,72.4988515 26.4608317,71.1263366 28.2078416,71.1263366 Z M28.2078416,4.36736634 C28.894099,4.36736634 29.4556832,4.9289505 29.4556832,5.61520792 C29.4556832,6.30146535 28.894099,6.8630495 28.2078416,6.8630495 C27.5215842,6.8630495 26.96,6.30146535 26.96,5.61520792 C26.96,4.9289505 27.5214257,4.36736634 28.2078416,4.36736634 Z" id="Shape" fill="#BFC3C5"></path>
                </g>
            </g>
        </g>
    </g>
</svg>