<?xml version="1.0" encoding="UTF-8"?>
<svg width="131px" height="154px" viewBox="0 0 131 154" version="1.1" xmlns="http://www.w3.org/2000/svg" xmlns:xlink="http://www.w3.org/1999/xlink">
    <!-- Generator: Sketch 48.2 (47327) - http://www.bohemiancoding.com/sketch -->
    <title>Group 10</title>
    <desc>Created with Sketch.</desc>
    <defs></defs>
    <g id="Desktop-HD-Copy-2" stroke="none" stroke-width="1" fill="none" fill-rule="evenodd" transform="translate(-954.000000, -694.000000)">
        <g id="Group-11" transform="translate(354.000000, 694.000000)">
            <g id="Group-10" transform="translate(600.000000, 0.000000)">
                <text id="Transportation" font-family="Roboto-Regular, Roboto" font-size="20" font-weight="normal" fill="#4A4A4A">
                    <tspan x="0.21875" y="149">Transportation</tspan>
                </text>
                <g id="Group-9" transform="translate(6.000000, 0.000000)">
                    <circle id="Oval-7-Copy-4" fill="#F7F7F7" cx="60" cy="60" r="60"></circle>
                    <g id="car-2" transform="translate(20.000000, 26.000000)" fill-rule="nonzero">
                        <path d="M59.8957624,54.3512079 L59.8957624,58.7185743 C59.8957624,60.4655842 61.2684356,61.838099 62.9528713,61.838099 L68.0066535,61.838099 L68.0066535,54.3510495 L59.8957624,54.3510495 L59.8957624,54.3512079 Z M11.8544158,61.8382574 L16.908198,61.8382574 C18.5927921,61.8382574 19.9653069,60.4655842 19.9653069,58.7187327 L19.9653069,54.3513663 L11.8544158,54.3513663 C11.8544158,54.3515248 11.8544158,61.8382574 11.8544158,61.8382574 Z" id="Shape" fill="#1E2E37"></path>
                        <path d="M65.5109703,54.3512079 L65.5109703,64.5210297 C65.5109703,66.8294653 67.3826535,68.7013069 69.6288317,68.7013069 L71.9372673,68.7013069 C74.245703,68.7013069 76.0551287,66.8296238 76.0551287,64.5210297 L76.0551287,53.1033663 C76.0551287,53.1033663 65.5109703,54.3512079 65.5109703,54.3512079 Z M3.74352475,64.5210297 C3.74352475,66.8294653 5.61520792,68.7013069 7.86138614,68.7013069 L10.1698218,68.7013069 C12.4782574,68.7013069 14.2876832,66.8296238 14.2876832,64.5210297 L14.2876832,54.3512079 L3.74352475,53.1033663 C3.74352475,53.1033663 3.74352475,64.5210297 3.74352475,64.5210297 Z" id="Shape" fill="#324D5B"></path>
                        <path d="M39.6809505,0.0706534653 L39.868198,0.0706534653 C61.0189307,0.0706534653 66.1349703,9.11746535 66.1349703,26.2750099 L13.726099,26.2750099 C13.726099,9.11746535 18.9045545,0.0706534653 39.6809505,0.0706534653 Z" id="Shape" fill="#BF392B"></path>
                        <path d="M39.7433663,3.19017822 L39.9306139,3.19017822 C58.5232475,3.19017822 63.0154455,11.1762376 63.0154455,26.2750099 L16.8456238,26.2750099 C16.8456238,11.176396 21.4002376,3.19017822 39.7433663,3.19017822 Z" id="Shape" fill="#85C6DC"></path>
                        <path d="M39.9306139,47.4883168 C52.6585347,47.4883168 63.0154455,49.8591683 63.0154455,52.791604 C63.0154455,55.7240396 52.6585347,58.0948911 39.9306139,58.0948911 C27.2026931,58.0948911 16.8457822,55.7240396 16.8457822,52.791604 C16.8456238,49.8590099 27.2026931,47.4883168 39.9306139,47.4883168 Z" id="Shape" fill="#85281E"></path>
                        <path d="M13.9757624,28.1468515 L39.9930297,24.4033267 L65.8854653,28.1468515 C73.6220198,28.1468515 79.8612277,34.4483168 79.8612277,42.309703 L79.8612277,45.3668119 C79.8612277,47.6128317 78.8628911,49.4222574 75.868198,49.4222574 L3.9930297,49.4222574 C1.06059406,49.36 0,47.5505743 0,45.3045545 L0,42.2474455 C0,34.4483168 6.23920792,28.1468515 13.9757624,28.1468515 Z" id="Shape" fill="#BF392B"></path>
                        <path d="M3.18194059,48.736 L76.6167129,48.736 C77.6773069,48.736 78.5508119,49.5470891 78.5508119,50.6076832 C78.5508119,52.6666139 76.803802,54.3512079 74.620198,54.3512079 L5.17845545,54.3512079 C2.99469307,54.3512079 1.24784158,52.6666139 1.24784158,50.6076832 C1.24784158,49.5470891 2.12134653,48.736 3.18194059,48.736 Z" id="Shape" fill="#E4E7E7"></path>
                        <path d="M66.9460594,26.2127525 C66.9460594,26.2127525 59.7086733,29.0827723 55.9027327,41.7482772 C55.9027327,41.7482772 53.7813861,48.7361584 48.9148515,48.7361584 L30.9462178,48.7361584 C26.0796832,48.7361584 23.9583366,41.7482772 23.9583366,41.7482772 C20.152396,29.0827723 12.9774257,26.3375842 12.9774257,26.3375842 C10.4817426,25.3392475 12.9774257,23.841901 12.9774257,23.841901 C23.0848317,18.1018614 39.9306139,18.7881188 39.9306139,18.7881188 C39.9306139,18.7881188 56.7139802,18.0394455 66.9460594,23.841901 C66.9460594,23.841901 69.254495,25.152 66.9460594,26.2127525 Z" id="Shape" fill="#E2574C"></path>
                        <path d="M26.7035248,40.8747723 C27.0154455,41.8731089 28.6376238,45.6164752 30.6965545,45.6164752 L36.1869307,45.6164752 L36.1869307,21.9076436 C26.7033663,21.9076436 20.5267327,23.6546535 16.8456238,25.2768317 C19.7156436,27.4605941 24.0207525,32.0150495 26.7035248,40.8747723 Z M43.6739802,21.9076436 L43.6739802,45.6164752 L48.6029307,45.6164752 C50.7242772,45.6164752 52.2840396,41.8729505 52.5959604,40.8747723 C55.2164752,32.1400396 59.4590099,27.5230099 62.3290297,25.2768317 C58.7727525,23.6546535 52.7832079,21.9700594 43.6739802,21.9076436 Z" id="Shape" fill="#BF392B"></path>
                        <polygon id="Shape" fill="#E87970" points="38.6827723 18.7881188 41.1784554 18.7881188 41.1784554 48.736 38.6827723 48.736 38.6827723 18.7881188"></polygon>
                        <path d="M11.2304158,33.7620594 C8.11089109,33.7620594 5.61520792,36.2577426 5.61520792,39.3772673 C5.61520792,42.4967921 8.11089109,44.9924752 11.2304158,44.9924752 C14.3499406,44.9924752 16.8456238,42.4967921 16.8456238,39.3772673 C16.8456238,36.257901 14.350099,33.7620594 11.2304158,33.7620594 Z M68.6306535,33.7620594 C65.5111287,33.7620594 63.0154455,36.2577426 63.0154455,39.3772673 C63.0154455,42.4967921 65.5111287,44.9924752 68.6306535,44.9924752 C71.7501782,44.9924752 74.2458614,42.4967921 74.2458614,39.3772673 C74.2458614,36.257901 71.7501782,33.7620594 68.6306535,33.7620594 Z" id="Shape" fill="#E0E3E4"></path>
                        <path d="M11.2304158,37.5055842 C10.1698218,37.5055842 9.35873267,38.3166733 9.35873267,39.3772673 C9.35873267,40.4378614 10.1698218,41.2489505 11.2304158,41.2489505 C12.2910099,41.2489505 13.102099,40.4378614 13.102099,39.3772673 C13.102099,38.3166733 12.2287525,37.5055842 11.2304158,37.5055842 Z M68.6306535,37.5055842 C67.5700594,37.5055842 66.7589703,38.3166733 66.7589703,39.3772673 C66.7589703,40.4378614 67.5700594,41.2489505 68.6306535,41.2489505 C69.6912475,41.2489505 70.5023366,40.4378614 70.5023366,39.3772673 C70.5023366,38.3166733 69.6912475,37.5055842 68.6306535,37.5055842 Z" id="Shape" fill="#C0C8CB"></path>
                        <path d="M67.569901,25.0273267 L66.4468911,25.0273267 C65.1990495,25.0273267 64.2008713,25.9632475 64.2008713,27.2110891 L64.2008713,28.2716832 C64.2008713,28.8955248 65.4487129,29.3322772 66.9460594,29.3322772 C68.5058218,29.3322772 69.6912475,28.8331089 69.6912475,28.2716832 L69.6912475,27.2110891 C69.8160792,26.025505 68.8177426,25.0273267 67.569901,25.0273267 Z M13.2893465,25.0273267 L12.1663366,25.0273267 C10.918495,25.0273267 9.92031683,25.9632475 9.92031683,27.2110891 L9.92031683,28.2716832 C9.92031683,28.8955248 11.1681584,29.3322772 12.665505,29.3322772 C14.1628515,29.3322772 15.4106931,28.8331089 15.4106931,28.2716832 L15.4106931,27.2110891 C15.5355248,26.025505 14.5371881,25.0273267 13.2893465,25.0273267 Z" id="Shape" fill="#F4B459"></path>
                        <path d="M18.5926337,13.8591683 C21.7121584,12.2994059 30.7589703,8.30637624 39.8057822,8.30637624 C48.9150099,8.30637624 58.086495,12.2994059 61.2060198,13.8591683 C58.585505,6.80887129 52.4712871,3.19017822 39.9304554,3.19017822 L39.7432079,3.19017822 C27.3897822,3.19017822 21.2755644,6.8090297 18.5926337,13.8591683 Z" id="Shape" fill="#92D2E8"></path>
                        <path d="M68.6306535,35.009901 C71.0639208,35.009901 72.9980198,36.944 72.9980198,39.3772673 C72.9980198,41.8105347 71.0639208,43.7446337 68.6306535,43.7446337 C66.1973861,43.7446337 64.2632871,41.8105347 64.2632871,39.3772673 C64.2632871,36.9441584 66.1973861,35.009901 68.6306535,35.009901 Z M11.2304158,35.009901 C13.6636832,35.009901 15.5977822,36.944 15.5977822,39.3772673 C15.5977822,41.8105347 13.6636832,43.7446337 11.2304158,43.7446337 C8.79714851,43.7446337 6.8630495,41.8105347 6.8630495,39.3772673 C6.8630495,36.9441584 8.79714851,35.009901 11.2304158,35.009901 Z M68.6306535,33.7620594 C65.5111287,33.7620594 63.0154455,36.2577426 63.0154455,39.3772673 C63.0154455,42.4967921 65.5111287,44.9924752 68.6306535,44.9924752 C71.7501782,44.9924752 74.2458614,42.4967921 74.2458614,39.3772673 C74.2458614,36.257901 71.7501782,33.7620594 68.6306535,33.7620594 Z M11.2304158,33.7620594 C8.11089109,33.7620594 5.61520792,36.2577426 5.61520792,39.3772673 C5.61520792,42.4967921 8.11089109,44.9924752 11.2304158,44.9924752 C14.3499406,44.9924752 16.8456238,42.4967921 16.8456238,39.3772673 C16.8456238,36.257901 14.350099,33.7620594 11.2304158,33.7620594 Z" id="Shape" fill="#CCD0D2"></path>
                    </g>
                </g>
            </g>
        </g>
    </g>
</svg>