<?xml version="1.0" encoding="UTF-8"?>
<svg width="794px" height="133px" viewBox="0 0 794 133" version="1.1" xmlns="http://www.w3.org/2000/svg" xmlns:xlink="http://www.w3.org/1999/xlink">
    <!-- Generator: Sketch 51.3 (57544) - http://www.bohemiancoding.com/sketch -->
    <title>Hiker - Design Process</title>
    <desc>Created with Sketch.</desc>
    <defs></defs>
    <g id="Hiker---Design-Process" stroke="none" stroke-width="1" fill="none" fill-rule="evenodd">
        <rect fill="#FFFFFF" x="0" y="0" width="794" height="133"></rect>
        <g id="Group-7">
            <g id="Group-3" transform="translate(0.000000, 30.000000)">
                <text id="Research" font-family="Roboto-Regular, Roboto" font-size="18" font-weight="normal" fill="#333333">
                    <tspan x="0" y="17">Research</tspan>
                </text>
                <text id="Interviews-Competito" font-family="Roboto-Light, Roboto" font-size="14" font-weight="300" line-spacing="18" fill="#000000">
                    <tspan x="0" y="43">Interviews</tspan>
                    <tspan x="0" y="61">Competitor Analysis</tspan>
                    <tspan x="0" y="79">Assumptions</tspan>
                </text>
            </g>
            <g id="searching-tool" fill="#000000" fill-rule="nonzero">
                <path d="M11.2853834,6.76022838 C11.2853834,5.51021207 10.7789886,4.37853181 9.96195759,3.56146819 L9.96130506,3.56081566 L9.96065253,3.56146819 C9.14228385,2.74309951 8.01057096,2.2360522 6.76189233,2.2360522 C5.51190865,2.2360522 4.38019576,2.74244698 3.56182708,3.56013051 C2.74411093,4.37849918 2.23774878,5.51021207 2.23774878,6.76019576 C2.23774878,8.00952692 2.74476346,9.14055465 3.56251223,9.95895595 C4.38088091,10.7773246 5.5125938,11.2843719 6.76192496,11.2843719 C8.01060359,11.2843719 9.14231648,10.7779772 9.96068515,9.95895595 L9.97631321,9.94466558 C10.784894,9.12955954 11.2853834,8.00306688 11.2853834,6.76022838 Z M10.4007178,3.12075041 C11.3328222,4.05288744 11.9093964,5.33993475 11.9093964,6.76022838 C11.9093964,8.17141925 11.34,9.45132137 10.4188581,10.3815008 L10.4013051,10.4003589 C9.46985318,11.3318108 8.18277325,11.908385 6.7612398,11.908385 C5.33964111,11.908385 4.05194127,11.3318108 3.1211093,10.4003589 C2.19027732,9.46887439 1.61305057,8.18176183 1.61305057,6.76022838 C1.61305057,5.33928222 2.1896248,4.05223491 3.12045677,3.12140294 L3.12241436,3.12009788 C4.05324633,2.18926591 5.34094617,1.61203915 6.7612398,1.61203915 C8.1828385,1.61203915 9.46988581,2.18861338 10.4013051,3.12009788 L10.4007178,3.12075041 Z" id="Shape"></path>
                <path d="M12.5847961,10.1949429 C12.4977162,10.3425122 12.3059054,10.3919086 12.1584013,10.3042088 C12.0108646,10.2170962 11.9614356,10.0253507 12.0492007,9.8777814 C12.7512235,8.68825449 13.0177488,7.31151713 12.8493312,5.98091354 C12.6842088,4.68088091 12.1004894,3.42176183 11.1001305,2.42075041 C9.90212072,1.22339315 8.33102773,0.624078303 6.7612398,0.624078303 C5.19014682,0.624078303 3.61902121,1.22274062 2.42300163,2.42009788 L2.42169657,2.42075041 L2.4223491,2.42140294 C1.22437194,3.6193801 0.625057096,5.19050571 0.625057096,6.76029364 C0.625057096,8.33008157 1.22437194,9.90120718 2.4223491,11.0991517 C3.62032626,12.2971615 5.19079935,12.8964763 6.76058728,12.8964763 C8.33168026,12.8964763 9.90280587,12.2971615 11.100783,11.0991517 C11.2223491,10.9782708 11.4199347,10.9788581 11.5408483,11.1004894 C11.6617292,11.2220228 11.6611093,11.4195759 11.5395432,11.540522 C10.2193475,12.8600326 8.48965742,13.520522 6.76058728,13.520522 C5.0308646,13.520522 3.29986949,12.8594127 1.98032626,11.540522 C0.660783034,10.2209135 0.00101141925,8.48995106 0.00101141925,6.76022838 C0.00101141925,5.03050571 0.660783034,3.2995106 1.98097879,1.97996737 L1.98163132,1.9806199 C3.30182708,0.660424144 5.03220228,0 6.7612398,0 C8.49096248,0 10.2213051,0.659771615 11.5415008,1.97996737 C12.6413377,3.07980424 13.2842088,4.46760196 13.4662316,5.90349103 C13.652137,7.36929853 13.3583361,8.88515498 12.5847961,10.1949429 Z" id="Shape"></path>
                <path d="M6.7612398,3.22411093 C6.93347471,3.22411093 7.07324633,3.36388254 7.07324633,3.53611746 C7.07324633,3.70835237 6.93347471,3.84812398 6.7612398,3.84812398 C6.55843393,3.84812398 6.3640783,3.86828711 6.18009788,3.90466558 C5.98835237,3.94365416 5.80244698,4.00150082 5.62626427,4.07628059 C5.45725938,4.14776509 5.29216966,4.23810767 5.13484502,4.3440783 L5.11990212,4.35383361 C4.97301794,4.45327896 4.8325938,4.57092985 4.70192496,4.70159869 C4.43735726,4.9667863 4.2228385,5.28075041 4.07660685,5.62593801 C4.00251223,5.80208809 3.94466558,5.98799347 3.90564437,6.17977162 C3.86923328,6.36306688 3.84910277,6.55742251 3.84910277,6.76026101 C3.84910277,6.93252855 3.70933116,7.07226754 3.53709625,7.07226754 C3.36486134,7.07226754 3.22508972,6.93252855 3.22508972,6.76026101 C3.22508972,6.52430669 3.25044046,6.28900489 3.29595432,6.05823817 C3.34274062,5.82489396 3.41360522,5.59931485 3.5039478,5.38479608 C3.68401305,4.95970636 3.94336052,4.57748777 4.26055465,4.26026101 C4.41265905,4.10815661 4.58362153,3.96646003 4.76822186,3.84032626 L4.78642741,3.82734095 C4.97168026,3.70254486 5.17252855,3.59399674 5.38574225,3.50365416 C5.59960848,3.41327896 5.82515498,3.34244698 6.05918434,3.29497553 C6.28998369,3.24946166 6.52528548,3.22411093 6.7612398,3.22411093 Z" id="Shape"></path>
                <path d="M11.1001305,11.540522 C10.9785644,11.4189233 10.9785644,11.2206852 11.1001305,11.0991517 C11.2217292,10.9775856 11.4199674,10.9775856 11.5414682,11.0991517 L13.3212398,12.878956 C13.4428385,13.0004894 13.4428385,13.1987928 13.3212398,13.320261 C13.1996737,13.4418923 13.0014356,13.4418923 12.8799347,13.320261 L11.1001305,11.540522 Z" id="Shape"></path>
                <path d="M12.9312887,12.9315498 C13.1490701,12.713801 13.4357259,12.6052202 13.7217292,12.6052202 C14.0070799,12.6052202 14.2931158,12.713801 14.5108646,12.9315498 L14.5115498,12.9322349 L14.5122023,12.9315498 L14.5128874,12.9322349 L16.2223817,14.6417618 L17.9319413,16.3519739 L19.6414682,18.062186 L19.6421207,18.062186 C19.8598369,18.2792822 19.968385,18.5666232 19.968385,18.8519739 C19.968385,19.1373573 19.8598369,19.4233605 19.6420555,19.6411093 L19.6413703,19.6417945 L19.6420555,19.6424796 L19.6413703,19.6431321 L19.6407178,19.6431321 C19.4236215,19.8609135 19.1362806,19.9694943 18.8502447,19.9694943 C18.5642088,19.9694943 18.277553,19.8609135 18.0604568,19.6431321 L18.0598042,19.6431321 L16.3495922,17.9329201 L14.6393801,16.2233931 L12.9298206,14.5138336 L12.929168,14.5131811 C12.7120718,14.2954323 12.6028711,14.0088091 12.6028711,13.722708 C12.6042741,13.4359543 12.7135073,13.1492659 12.9312887,12.9315498 Z M13.373279,13.3728874 L13.3725938,13.3735726 C13.277031,13.4691028 13.2289396,13.5958238 13.2289396,13.7219576 C13.2289396,13.8480914 13.2770962,13.9754649 13.3725938,14.0710277 L13.373279,14.0716803 L15.0828059,15.7812398 L16.7923328,17.4914519 L18.5018597,19.2016639 L18.5025449,19.2016639 C18.5981077,19.2971941 18.7247961,19.3452529 18.8509625,19.3452529 C18.9771289,19.3452529 19.1045024,19.2971289 19.2000326,19.2016639 L19.2006852,19.2009788 L19.2013703,19.2016639 C19.2962806,19.1060359 19.3437194,18.9799674 19.3437194,18.8519413 C19.3437194,18.7258401 19.2955954,18.5990865 19.2006852,18.5034584 L19.2000326,18.5028059 L17.4904731,16.7925938 L15.780261,15.0823817 L14.0707667,13.3728222 L14.0707667,13.3721697 L14.0714192,13.3714845 C13.9758564,13.2766069 13.8497553,13.2291354 13.7216966,13.2291354 C13.5949429,13.2292659 13.4681892,13.2773573 13.373279,13.3728874 Z" id="Shape"></path>
            </g>
        </g>
        <g id="Group-5" transform="translate(354.000000, 0.000000)">
            <g id="Group" transform="translate(0.000000, 30.000000)">
                <text id="Design" font-family="Roboto-Regular, Roboto" font-size="18" font-weight="normal" fill="#333333">
                    <tspan x="0" y="17">Design</tspan>
                </text>
                <text id="Task-Flow-Wireframes" font-family="Roboto-Light, Roboto" font-size="14" font-weight="300" line-spacing="18" fill="#000000">
                    <tspan x="0" y="43">Task Flow</tspan>
                    <tspan x="0" y="61">Wireframes</tspan>
                    <tspan x="0" y="79">Mockups</tspan>
                    <tspan x="0" y="97">Prototype</tspan>
                </text>
            </g>
            <g id="edit" fill="#000000" fill-rule="nonzero">
                <path d="M18.7921429,0.939642857 C17.5385714,-0.313214286 15.4996429,-0.313214286 14.2460714,0.939642857 L1.36678571,13.8189286 C1.36071429,13.825 1.35714286,13.8325 1.35178571,13.8389286 C1.34428571,13.8475 1.33785714,13.8567857 1.33107143,13.8660714 C1.31214286,13.8925 1.2975,13.9207143 1.28642857,13.9514286 C1.28321429,13.9607143 1.27857143,13.9689286 1.27607143,13.9782143 C1.275,13.9817857 1.27285714,13.9853571 1.27178571,13.9889286 L0.00928571429,19.2925 C0.00357142857,19.3164286 0.00214285714,19.3407143 0.00142857143,19.3646429 C0.00142857143,19.3692857 0,19.3735714 0,19.3782143 C0.000357142857,19.4189286 0.00928571429,19.4585714 0.0232142857,19.4967857 C0.0264285714,19.5057143 0.03,19.5135714 0.0339285714,19.5221429 C0.0514285714,19.5603571 0.0732142857,19.5971429 0.103928571,19.6278571 C0.137857143,19.6617857 0.177857143,19.6878571 0.221071429,19.7057143 C0.264285714,19.7235714 0.310357143,19.7325 0.356428571,19.7325 C0.383928571,19.7325 0.411785714,19.7292857 0.438928571,19.7228571 L5.7425,18.4603571 C5.75214286,18.4582143 5.76071429,18.4528571 5.77,18.4496429 C5.78214286,18.4457143 5.79357143,18.4410714 5.80535714,18.4357143 C5.83107143,18.4239286 5.855,18.4092857 5.87714286,18.3917857 C5.88571429,18.385 5.89464286,18.38 5.90285714,18.3725 C5.90571429,18.3696429 5.90928571,18.3682143 5.91214286,18.3653571 L18.7917857,5.48571429 C20.0453571,4.23214286 20.0453571,2.19285714 18.7921429,0.939642857 Z M18.2871429,1.44464286 C19.1757143,2.33357143 19.2514286,3.72928571 18.5192857,4.70785714 L15.0239286,1.2125 C16.0028571,0.480357143 17.3985714,0.556071429 18.2871429,1.44464286 Z M16.5192857,6.74821429 L12.9835714,3.2125 L13.4885714,2.7075 L17.0242857,6.24321429 L16.5192857,6.74821429 Z M1.77178571,17.96 C1.63214286,17.8203571 1.40642857,17.8203571 1.26678571,17.96 L0.996428571,18.2303571 L1.90857143,14.3989286 L3.48785714,14.2235714 L3.28464286,16.0528571 C3.28321429,16.0664286 3.28821429,16.0789286 3.28821429,16.0921429 C3.28821429,16.1057143 3.28321429,16.1178571 3.28464286,16.1314286 C3.28607143,16.1432143 3.29214286,16.1528571 3.29464286,16.1642857 C3.29892857,16.185 3.305,16.2039286 3.3125,16.2232143 C3.32178571,16.2464286 3.33285714,16.2675 3.34642857,16.2878571 C3.3575,16.3042857 3.36857143,16.3189286 3.38214286,16.3332143 C3.39928571,16.3514286 3.41785714,16.3667857 3.43821429,16.3810714 C3.45428571,16.3921429 3.46964286,16.4025 3.4875,16.4110714 C3.51107143,16.4221429 3.53571429,16.4285714 3.56142857,16.4346429 C3.575,16.4378571 3.58607143,16.4453571 3.6,16.4471429 C3.61285714,16.4485714 3.62571429,16.4492857 3.63892857,16.4492857 C3.63892857,16.4492857 3.63928571,16.4492857 3.63928571,16.4492857 C3.63928571,16.4492857 3.63964286,16.4492857 3.63964286,16.4492857 L3.64,16.4492857 C3.64,16.4492857 3.64035714,16.4492857 3.64035714,16.4492857 C3.65321429,16.4492857 3.66642857,16.4485714 3.67928571,16.4471429 L5.50857143,16.2439286 L5.33321429,17.8232143 L1.50142857,18.7353571 L1.77178571,18.465 C1.91107143,18.3257143 1.91107143,18.0996429 1.77178571,17.96 Z M6.25392857,16.0032143 L14.2460714,8.01071429 C14.3857143,7.87107143 14.3857143,7.64535714 14.2460714,7.50571429 C14.1064286,7.36607143 13.8807143,7.36607143 13.7410714,7.50571429 L5.74892857,15.4982143 L4.04428571,15.6875 L4.23357143,13.9828571 L12.2264286,5.99071429 C12.3660714,5.85107143 12.3660714,5.62535714 12.2264286,5.48571429 C12.0867857,5.34607143 11.8610714,5.34607143 11.7214286,5.48571429 L3.72857143,13.4778571 L2.59178571,13.6042857 L12.4785714,3.7175 L16.0142857,7.25321429 L6.1275,17.14 L6.25392857,16.0032143 Z M17.5292857,5.73821429 L13.9935714,2.2025 L14.4989286,1.69714286 L18.0346429,5.23285714 L17.5292857,5.73821429 Z" id="Shape"></path>
            </g>
        </g>
        <g id="Group-4" transform="translate(699.000000, 0.000000)">
            <g id="Group-Copy" transform="translate(0.000000, 34.000000)">
                <text id="Testing" font-family="Roboto-Regular, Roboto" font-size="18" font-weight="normal" fill="#333333">
                    <tspan x="0" y="17">Testing</tspan>
                </text>
                <text id="Think-Aloud-Intervie" font-family="Roboto-Light, Roboto" font-size="14" font-weight="300" line-spacing="18" fill="#000000">
                    <tspan x="0" y="43">Think-Aloud</tspan>
                    <tspan x="0" y="61">Interviews</tspan>
                </text>
            </g>
            <g id="test" fill="#000000" fill-rule="nonzero">
                <path d="M19.9113333,20.5850851 C19.9176667,20.5770085 19.9239444,20.5689319 19.9296667,20.5604128 C19.9312222,20.5581447 19.9324444,20.5557106 19.9339444,20.5533872 C19.9398333,20.5443149 19.9455556,20.5350766 19.9506667,20.5255064 C19.9516111,20.5238468 19.9522778,20.5220213 19.9531667,20.5203064 C19.9585,20.5099617 19.9636111,20.4995617 19.9681111,20.4888298 C19.9686111,20.4876128 19.9689444,20.4863404 19.9694444,20.4851787 C19.974,20.4738936 19.9782778,20.4624426 19.9818333,20.4507149 C19.9822778,20.4493319 19.9825,20.4478383 19.9829444,20.4464553 C19.9863333,20.4349489 19.9893889,20.4233319 19.9917778,20.4114936 C19.9924444,20.4081191 19.9927222,20.4047447 19.9933333,20.4013702 C19.9950556,20.3913574 19.9968333,20.3814553 19.9978333,20.3712213 C19.9992222,20.3575021 19.9999444,20.3436723 19.9999444,20.3297872 L19.9999444,0.414893617 C19.9999444,0.185706383 19.8133889,0 19.5832778,0 L0.416611111,0 C0.186555556,0 0,0.185706383 0,0.414893617 L0,25.5851064 C0,25.8142936 0.186555556,26 0.416666667,26 L14.3055556,26 C14.3195,26 14.3333889,25.9992809 14.3471667,25.9978979 C14.3575,25.9968468 14.3676111,25.9951319 14.3776667,25.9933617 C14.3809444,25.9928085 14.3842778,25.9925319 14.3875556,25.9919234 C14.3994444,25.9895447 14.4110556,25.9864468 14.4225556,25.983183 C14.424,25.9827404 14.4255556,25.9824638 14.427,25.9820213 C14.4385556,25.9785362 14.4497778,25.9743872 14.4608333,25.9699617 C14.4623333,25.9693532 14.4638333,25.9689106 14.4653333,25.9683574 C14.4758333,25.9639872 14.4859444,25.9590638 14.496,25.9539191 C14.4980556,25.9528128 14.5002222,25.951983 14.5022222,25.9508766 C14.5113889,25.9460085 14.5201667,25.9405319 14.5288889,25.935 C14.5316667,25.9332851 14.5345556,25.9317362 14.5372778,25.9299106 C14.5453889,25.9244894 14.5531111,25.9185702 14.5607778,25.9125957 C14.5638333,25.910217 14.5670556,25.9081149 14.5700556,25.9056809 C14.5794444,25.8979915 14.5883889,25.8898043 14.5970556,25.8813957 C14.5980556,25.8803447 14.5992222,25.8795702 14.6002222,25.8785191 L19.878,20.6232 C19.8788333,20.6223702 19.8795,20.6214851 19.8803333,20.6206553 C19.8890556,20.6118043 19.8974444,20.6027319 19.9053889,20.5931064 C19.9074444,20.5905064 19.9092778,20.5876851 19.9113333,20.5850851 Z M0.833333333,0.829787234 L19.1666667,0.829787234 L19.1666667,19.9148936 L14.3055556,19.9148936 C14.0754444,19.9148936 13.8888889,20.1006 13.8888889,20.3297872 L13.8888889,25.1702128 L0.833333333,25.1702128 L0.833333333,0.829787234 Z M18.5774444,20.7446809 L14.7222222,24.5834979 L14.7222222,20.7446809 L18.5774444,20.7446809 Z" id="Shape"></path>
                <path d="M8.26183333,5.25531915 L16.25,5.25531915 C16.4801111,5.25531915 16.6666667,5.06961277 16.6666667,4.84042553 C16.6666667,4.6112383 16.4801111,4.42553191 16.25,4.42553191 L8.26183333,4.42553191 C8.03172222,4.42553191 7.84516667,4.6112383 7.84516667,4.84042553 C7.84516667,5.06961277 8.03172222,5.25531915 8.26183333,5.25531915 Z" id="Shape"></path>
                <path d="M4.5665,6.24022128 C4.64783333,6.32120851 4.7545,6.36170213 4.86111111,6.36170213 C4.96772222,6.36170213 5.07438889,6.32120851 5.15572222,6.24022128 L7.37794444,4.02745532 C7.54066667,3.86537021 7.54066667,3.60271489 7.37794444,3.44068511 C7.21522222,3.27871064 6.95138889,3.27871064 6.78872222,3.44068511 L4.86111111,5.36009362 L4.32238889,4.82366383 C4.15966667,4.66168936 3.89583333,4.66168936 3.73316667,4.82366383 C3.57044444,4.98574894 3.57044444,5.24840426 3.73316667,5.41043404 L4.5665,6.24022128 Z" id="Shape"></path>
                <path d="M7.22222222,8.71276596 C7.22222222,8.94195319 7.40877778,9.12765957 7.63888889,9.12765957 L16.25,9.12765957 C16.4801111,9.12765957 16.6666667,8.94195319 16.6666667,8.71276596 C16.6666667,8.48357872 16.4801111,8.29787234 16.25,8.29787234 L7.63888889,8.29787234 C7.40877778,8.29787234 7.22222222,8.48357872 7.22222222,8.71276596 Z" id="Shape"></path>
                <path d="M5.97222222,7.19148936 L3.75,7.19148936 C3.51988889,7.19148936 3.33333333,7.37719574 3.33333333,7.60638298 L3.33333333,9.81914894 C3.33333333,10.0483362 3.51988889,10.2340426 3.75,10.2340426 L5.97222222,10.2340426 C6.20233333,10.2340426 6.38888889,10.0483362 6.38888889,9.81914894 L6.38888889,7.60638298 C6.38888889,7.37719574 6.20233333,7.19148936 5.97222222,7.19148936 Z M5.55555556,9.40425532 L4.16666667,9.40425532 L4.16666667,8.0212766 L5.55555556,8.0212766 L5.55555556,9.40425532 Z" id="Shape"></path>
                <path d="M16.25,12.1702128 L7.63888889,12.1702128 C7.40877778,12.1702128 7.22222222,12.3559191 7.22222222,12.5851064 C7.22222222,12.8142936 7.40877778,13 7.63888889,13 L16.25,13 C16.4801111,13 16.6666667,12.8142936 16.6666667,12.5851064 C16.6666667,12.3559191 16.4801111,12.1702128 16.25,12.1702128 Z" id="Shape"></path>
                <path d="M5.97222222,11.0638298 L3.75,11.0638298 C3.51988889,11.0638298 3.33333333,11.2495362 3.33333333,11.4787234 L3.33333333,13.6914894 C3.33333333,13.9206766 3.51988889,14.106383 3.75,14.106383 L5.97222222,14.106383 C6.20233333,14.106383 6.38888889,13.9206766 6.38888889,13.6914894 L6.38888889,11.4787234 C6.38888889,11.2495362 6.20233333,11.0638298 5.97222222,11.0638298 Z M5.55555556,13.2765957 L4.16666667,13.2765957 L4.16666667,11.893617 L5.55555556,11.893617 L5.55555556,13.2765957 Z" id="Shape"></path>
                <path d="M16.25,16.0425532 L7.63888889,16.0425532 C7.40877778,16.0425532 7.22222222,16.2282596 7.22222222,16.4574468 C7.22222222,16.686634 7.40877778,16.8723404 7.63888889,16.8723404 L16.25,16.8723404 C16.4801111,16.8723404 16.6666667,16.686634 16.6666667,16.4574468 C16.6666667,16.2282596 16.4801111,16.0425532 16.25,16.0425532 Z" id="Shape"></path>
                <path d="M5.97222222,14.9361702 L3.75,14.9361702 C3.51988889,14.9361702 3.33333333,15.1218766 3.33333333,15.3510638 L3.33333333,17.5638298 C3.33333333,17.793017 3.51988889,17.9787234 3.75,17.9787234 L5.97222222,17.9787234 C6.20233333,17.9787234 6.38888889,17.793017 6.38888889,17.5638298 L6.38888889,15.3510638 C6.38888889,15.1218766 6.20233333,14.9361702 5.97222222,14.9361702 Z M5.55555556,17.1489362 L4.16666667,17.1489362 L4.16666667,15.7659574 L5.55555556,15.7659574 L5.55555556,17.1489362 Z" id="Shape"></path>
                <path d="M12.6388889,19.9148936 L7.63888889,19.9148936 C7.40877778,19.9148936 7.22222222,20.1006 7.22222222,20.3297872 C7.22222222,20.5589745 7.40877778,20.7446809 7.63888889,20.7446809 L12.6388889,20.7446809 C12.869,20.7446809 13.0555556,20.5589745 13.0555556,20.3297872 C13.0555556,20.1006 12.869,19.9148936 12.6388889,19.9148936 Z" id="Shape"></path>
                <path d="M5.97222222,18.8085106 L3.75,18.8085106 C3.51988889,18.8085106 3.33333333,18.994217 3.33333333,19.2234043 L3.33333333,21.4361702 C3.33333333,21.6653574 3.51988889,21.8510638 3.75,21.8510638 L5.97222222,21.8510638 C6.20233333,21.8510638 6.38888889,21.6653574 6.38888889,21.4361702 L6.38888889,19.2234043 C6.38888889,18.994217 6.20233333,18.8085106 5.97222222,18.8085106 Z M5.55555556,21.0212766 L4.16666667,21.0212766 L4.16666667,19.6382979 L5.55555556,19.6382979 L5.55555556,21.0212766 Z" id="Shape"></path>
            </g>
        </g>
        <g id="right-arrow" transform="translate(191.000000, 34.000000)" fill="#5F5D6D" fill-rule="nonzero">
            <path d="M20.8750397,0.300785837 C20.4527151,-0.100261946 19.7498253,-0.100261946 19.3127342,0.300785837 C18.8904097,0.688284708 18.8904097,1.3332129 19.3127342,1.71980851 L27.2345189,8.98834794 L1.09371229,8.98834794 C0.484344236,8.9892512 0,9.4336555 0,9.99277391 C0,10.5518923 0.484344236,11.0107488 1.09371229,11.0107488 L27.2345189,11.0107488 L19.3127342,18.2657393 C18.8904097,18.6667871 18.8904097,19.3126186 19.3127342,19.6992142 C19.7498253,20.1002619 20.4536996,20.1002619 20.8750397,19.6992142 L30.6721816,10.709963 C31.1092728,10.3224641 31.1092728,9.6775359 30.6721816,9.29094029 L20.8750397,0.300785837 Z" id="Shape"></path>
        </g>
        <g id="right-arrow-copy-2" transform="translate(548.000000, 34.000000)" fill="#5F5D6D" fill-rule="nonzero">
            <path d="M21.8676562,0.875652174 C21.42525,0.489565217 20.6889375,0.489565217 20.2310625,0.875652174 C19.7886562,1.24869565 19.7886562,1.86956522 20.2310625,2.24173913 L28.5295312,9.23913043 L1.14571875,9.23913043 C0.507375,9.24 0,9.66782609 0,10.206087 C0,10.7443478 0.507375,11.186087 1.14571875,11.186087 L28.5295312,11.186087 L20.2310625,18.1704348 C19.7886562,18.5565217 19.7886562,19.1782609 20.2310625,19.5504348 C20.6889375,19.9365217 21.4262812,19.9365217 21.8676562,19.5504348 L32.1306562,10.8965217 C32.5885312,10.5234783 32.5885312,9.9026087 32.1306562,9.53043478 L21.8676562,0.875652174 Z" id="Shape"></path>
        </g>
        <g id="right-arrow-copy-3" transform="translate(555.500000, 65.000000) scale(-1, 1) translate(-555.500000, -65.000000) translate(539.000000, 55.000000)" fill="#5F5D6D" fill-rule="nonzero">
            <path d="M21.8676562,0.875652174 C21.42525,0.489565217 20.6889375,0.489565217 20.2310625,0.875652174 C19.7886562,1.24869565 19.7886562,1.86956522 20.2310625,2.24173913 L28.5295312,9.23913043 L1.14571875,9.23913043 C0.507375,9.24 0,9.66782609 0,10.206087 C0,10.7443478 0.507375,11.186087 1.14571875,11.186087 L28.5295312,11.186087 L20.2310625,18.1704348 C19.7886562,18.5565217 19.7886562,19.1782609 20.2310625,19.5504348 C20.6889375,19.9365217 21.4262812,19.9365217 21.8676562,19.5504348 L32.1306562,10.8965217 C32.5885312,10.5234783 32.5885312,9.9026087 32.1306562,9.53043478 L21.8676562,0.875652174 Z" id="Shape"></path>
        </g>
    </g>
</svg>