<?xml version="1.0" encoding="UTF-8"?>
<svg width="180px" height="113px" viewBox="0 0 180 113" version="1.1" xmlns="http://www.w3.org/2000/svg" xmlns:xlink="http://www.w3.org/1999/xlink">
    <!-- Generator: Sketch 49.2 (51160) - http://www.bohemiancoding.com/sketch -->
    <title>mountains</title>
    <desc>Created with Sketch.</desc>
    <defs></defs>
    <g id="Page-1" stroke="none" stroke-width="1" fill="none" fill-rule="evenodd">
        <g id="Home-Copy-7" transform="translate(-1071.000000, -2141.000000)" fill-rule="nonzero">
            <g id="mountains" transform="translate(1071.000000, 2141.000000)">
                <polygon id="Shape" fill="#009100" points="180 112.167422 38.0861719 112.167422 75.0413672 55.4298047 87.9401953 34.9171875 109.682227 0.339609375 109.685742 0.332578125 131.297695 34.7030859"></polygon>
                <polygon id="Shape" fill="#008300" points="180 112.167422 109.682227 112.167422 109.682227 0.339609375 109.685742 0.332578125 131.297695 34.7030859"></polygon>
                <polygon id="Shape" fill="#EFE6DE" points="131.297695 34.7030859 126.486563 36.950625 121.678594 39.2016797 121.053516 39.493125 109.682227 34.1412891 109.418906 34.0182422 97.7839453 39.493125 97.5698438 39.3946875 92.7551953 37.1576953 87.9401953 34.9171875 109.682227 0.339609375 109.685742 0.332578125"></polygon>
                <polygon id="Shape" fill="#DECCBC" points="131.297695 34.7030859 126.486562 36.950625 121.678594 39.2016797 121.053516 39.493125 109.682227 34.1412891 109.682227 0.339609375 109.685742 0.332578125"></polygon>
                <polygon id="Shape" fill="#67BD00" points="110.714766 112.167422 0 112.167422 38.0861719 51.5914453 55.3573828 24.1217578 72.6285937 51.5914453 75.0413672 55.4298047 78.1526953 60.3780469 81.264375 65.3262891 104.091328 101.631797"></polygon>
                <polygon id="Shape" fill="#5EAD00" points="110.714766 112.167422 55.3573828 112.167422 55.3573828 24.1217578 72.6285938 51.5914453 75.0413672 55.4298047 78.1526953 60.3780469 81.264375 65.3262891 104.091328 101.631797"></polygon>
                <polygon id="Shape" fill="#EFE6DE" points="72.6285938 51.5914453 67.8209766 53.8389844 64.2459375 55.5106641 61.9773047 54.4433203 55.3855078 51.3386719 55.3573828 51.3527344 48.7163672 54.478125 46.5215625 55.5106641 42.9008203 53.8284375 38.0861719 51.5914453 55.3573828 24.1217578"></polygon>
                <polygon id="Shape" fill="#DECCBC" points="72.6285938 51.5914453 67.8209766 53.8389844 64.2459375 55.5106641 61.9773047 54.4433203 55.3855078 51.3386719 55.3573828 51.3527344 55.3573828 24.1217578"></polygon>
            </g>
        </g>
    </g>
</svg>