<?xml version="1.0" encoding="UTF-8"?>
<svg width="11px" height="18px" viewBox="0 0 11 18" version="1.1" xmlns="http://www.w3.org/2000/svg" xmlns:xlink="http://www.w3.org/1999/xlink">
    <!-- Generator: Sketch 51.3 (57544) - http://www.bohemiancoding.com/sketch -->
    <title>left-arrow-4</title>
    <desc>Created with Sketch.</desc>
    <defs></defs>
    <g id="Page-1" stroke="none" stroke-width="1" fill="none" fill-rule="evenodd">
        <g id="left-arrow-4" fill="#333333" fill-rule="nonzero">
            <path d="M3.69640459,9.00380488 L10.7010242,2.2697561 C10.8938971,2.08478049 11,1.83746341 11,1.5737561 C11,1.30990244 10.8938971,1.06273171 10.7010242,0.877463415 L10.0872409,0.287707317 C9.89467243,0.102146341 9.63725486,0 9.36293999,0 C9.08862512,0 8.83151201,0.102146341 8.63879135,0.287707317 L0.298675432,8.30517073 C0.105193633,8.49102439 -0.000757061655,8.73936585 4.07838931e-06,9.00336585 C-0.000757061655,9.26853659 0.105041405,9.51658537 0.298675432,9.70258537 L8.63102773,17.7122927 C8.82374839,17.8978537 9.08086149,18 9.35532859,18 C9.62964346,18 9.88675657,17.8978537 10.0796295,17.7122927 L10.6932606,17.1225366 C11.0925546,16.7386829 11.0925546,16.1138049 10.6932606,15.7300976 L3.69640459,9.00380488 Z" id="Shape"></path>
        </g>
    </g>
</svg>