<?xml version="1.0" encoding="UTF-8"?>
<svg width="180px" height="212px" viewBox="0 0 180 212" version="1.1" xmlns="http://www.w3.org/2000/svg" xmlns:xlink="http://www.w3.org/1999/xlink">
    <!-- Generator: Sketch 51.3 (57544) - http://www.bohemiancoding.com/sketch -->
    <title>light-bulb</title>
    <desc>Created with Sketch.</desc>
    <defs></defs>
    <g id="Page-1" stroke="none" stroke-width="1" fill="none" fill-rule="evenodd">
        <g id="Artboard-Copy" transform="translate(-715.000000, -597.000000)" fill-rule="nonzero">
            <g id="Pizza-Copy-3" transform="translate(304.000000, 533.000000)">
                <g id="light-bulb" transform="translate(411.000000, 64.000000)">
                    <polygon id="Shape" fill="#FFDE55" points="72.0242458 140.04472 89.9789872 140.04472 89.9789872 150.817888 72.0242458 150.817888"></polygon>
                    <polygon id="Shape" fill="#FFE477" points="89.9789872 140.04472 107.933729 140.04472 107.933729 150.817888 89.9789872 150.817888"></polygon>
                    <path d="M118.706897,89.7720906 C118.706897,83.8221981 113.883621,78.9989222 107.933729,78.9989222 C101.983836,78.9989222 97.1605606,83.8221981 97.1605606,89.7720906 L97.1605606,100.545259 L107.933729,100.545259 C113.883621,100.545259 118.706897,95.7219828 118.706897,89.7720906 Z" id="Shape" fill="#FFE477"></path>
                    <path d="M72.0242458,100.545259 L82.7974138,100.545259 L82.7974138,89.7720906 C82.7974138,83.8221981 77.9741379,78.9989222 72.0242458,78.9989222 C66.0743537,78.9989222 61.2510778,83.8221981 61.2510778,89.7720906 C61.2510778,95.7219828 66.0743537,100.545259 72.0242458,100.545259 Z" id="Shape" fill="#FFDE55"></path>
                    <path d="M64.8426724,168.771013 C64.8426724,172.737608 68.0576508,175.952586 72.0242458,175.952586 L107.933729,175.952586 C111.900323,175.952586 115.115302,172.737608 115.115302,168.771013 C115.115302,164.806034 111.900323,161.589439 107.933729,161.589439 L72.0242458,161.589439 C68.0576508,161.589439 64.8426724,164.806034 64.8426724,168.771013 Z" id="Shape" fill="#939598"></path>
                    <path d="M64.8426724,183.13416 C64.8426724,187.100754 68.0576508,190.317349 72.0242458,190.317349 L107.933729,190.317349 C111.900323,190.317349 115.115302,187.100754 115.115302,183.13416 C115.115302,179.167565 111.900323,175.952586 107.933729,175.952586 L72.0242458,175.952586 C68.0576508,175.952586 64.8426724,179.169181 64.8426724,183.13416 Z" id="Shape" fill="#808285"></path>
                    <path d="M75.6158404,197.498922 C75.6158404,205.432112 82.0457975,211.862069 89.9789872,211.862069 C97.9121768,211.862069 104.342134,205.432112 104.342134,197.498922 L104.342134,190.317349 L75.6158404,190.317349 L75.6158404,197.498922 Z" id="Shape" fill="#A97C50"></path>
                    <path d="M64.8426724,154.407866 C64.8426724,158.374461 68.0576508,161.589439 72.0242458,161.589439 L107.933729,161.589439 C111.900323,161.589439 115.115302,158.374461 115.115302,154.407866 C115.115302,150.441271 111.900323,147.226293 107.933729,147.226293 L72.0242458,147.226293 C68.0576508,147.226293 64.8426724,150.441271 64.8426724,154.407866 Z" id="Shape" fill="#A7A9AC"></path>
                    <path d="M82.7974138,100.545259 L72.0242458,100.545259 C66.0743537,100.545259 61.2510778,95.7219828 61.2510778,89.7720906 C61.2510778,83.8221981 66.0743537,78.9989222 72.0242458,78.9989222 C77.9741379,78.9989222 82.7974138,83.8221981 82.7974138,89.7720906 L82.7974138,100.545259 L89.9789872,100.545259 L89.9789872,32.3178877 C58.2478448,32.3292025 32.5344828,58.0619611 32.5457975,89.7931034 C32.5554956,113.188577 46.7489222,134.243534 68.434267,143.025323 C75.273168,145.818427 82.5921335,147.24569 89.9789872,147.226488 L89.9789872,100.545259 L82.7974138,100.545259 Z" id="Shape" fill="#FFDE55"></path>
                    <path d="M89.9789872,32.3178877 L89.9789872,100.545259 L97.1605606,100.545259 L97.1605606,89.7720906 C97.1605606,83.8221981 101.983836,78.9989222 107.933729,78.9989222 C113.883621,78.9989222 118.706897,83.8221981 118.706897,89.7720906 C118.706897,95.7219828 113.883621,100.545259 107.933729,100.545259 L89.9789872,100.545259 L89.9789872,147.226457 C97.3658404,147.244073 104.684806,145.818427 111.523707,143.025323 C140.935345,131.114224 155.12069,97.6163793 143.211207,68.2047414 C134.427802,46.5210128 113.374461,32.3259699 89.9789872,32.3178877 Z" id="Shape" fill="#FFE477"></path>
                    <path d="M89.9789872,21.5447197 C87.9956897,21.5447197 86.3873921,19.9380389 86.3873921,17.9547414 L86.3873921,3.58997834 C86.3873921,1.60668083 87.9956897,0 89.9789872,0 C91.9622847,0 93.5689655,1.60829752 93.5689655,3.58997834 L93.5689655,17.9547414 C93.5689655,19.9380389 91.9622847,21.5447197 89.9789872,21.5447197 Z" id="Shape" fill="#FF9811"></path>
                    <path d="M39.1971981,42.5802803 C38.2451508,42.5802803 37.3302803,42.2020473 36.6578665,41.5280172 L26.4989222,31.3706897 C25.1217674,29.9434266 25.1605606,27.6707975 26.5878232,26.2920257 C27.9795261,24.9488148 30.1858837,24.9488148 31.5775862,26.2920257 L41.7349138,36.4509699 C43.137931,37.8539872 43.137931,40.1266163 41.7349138,41.5296335 C41.0608837,42.2020473 40.1492458,42.5802803 39.1971981,42.5802803 Z" id="Shape" fill="#FF9811"></path>
                    <path d="M18.1616379,93.362069 L3.7968749,93.362069 C1.81357738,93.362069 0.206896552,91.7553881 0.206896552,89.7720906 C0.206896552,87.7887931 1.81519407,86.1804956 3.7968749,86.1804956 L18.1616379,86.1804956 C20.1449354,86.1804956 21.7516163,87.7887931 21.7516163,89.7720906 C21.7516163,91.7553881 20.1449354,93.362069 18.1616379,93.362069 Z" id="Shape" fill="#FF9811"></path>
                    <path d="M29.0382542,154.304418 C27.0549567,154.302802 25.4482759,152.694504 25.4482759,150.712823 C25.4482759,149.760776 25.8265084,148.847522 26.4989222,148.173492 L36.6578665,138.016164 C38.0350217,136.588901 40.309267,136.550108 41.7349138,137.927263 C43.1621768,139.306034 43.2009699,141.578664 41.8238148,143.00431 C41.7947197,143.035022 41.7656251,143.064116 41.7349138,143.093211 L31.5775862,153.252155 C30.9035561,153.924569 29.9903015,154.304418 29.0382542,154.304418 Z" id="Shape" fill="#FF9811"></path>
                    <path d="M150.91972,154.304418 C149.967672,154.302802 149.054418,153.924569 148.380388,153.252155 L138.22306,143.093211 C136.795798,141.714439 136.757004,139.44181 138.13416,138.014547 C139.512931,136.588901 141.785561,136.550108 143.211207,137.927263 C143.241918,137.956358 143.271013,137.985453 143.300108,138.014547 L153.459052,148.173492 C154.860453,149.576508 154.860453,151.850754 153.457435,153.252155 C152.785022,153.924569 151.871767,154.304418 150.91972,154.304418 Z" id="Shape" fill="#FF9811"></path>
                    <path d="M176.159483,93.362069 L161.796336,93.362069 C159.813039,93.362069 158.206358,91.7553881 158.206358,89.7720906 C158.206358,87.7887931 159.814655,86.1804956 161.796336,86.1804956 L176.159483,86.1804956 C178.14278,86.1804956 179.751078,87.7887931 179.751078,89.7720906 C179.751078,91.7553881 178.14278,93.362069 176.159483,93.362069 Z" id="Shape" fill="#FF9811"></path>
                    <path d="M140.760776,42.5802803 C138.777478,42.5802803 137.170798,40.9719828 137.170798,38.9886852 C137.170798,38.0366379 137.54903,37.125 138.22306,36.4509699 L148.380388,26.2920257 C149.75916,24.8663793 152.031789,24.8259699 153.459052,26.2047414 C154.884698,27.5818966 154.925108,29.8545261 153.546336,31.2817887 C153.517241,31.3125 153.488147,31.341595 153.459052,31.3706897 L143.300108,41.5280172 C142.626078,42.2020473 141.712823,42.5802803 140.760776,42.5802803 Z" id="Shape" fill="#FF9811"></path>
                    <path d="M100.752155,100.545259 L100.752155,147.226293 L93.5689655,147.226293 L93.5689655,100.545259 C93.5689655,98.5619611 95.177263,96.953664 97.1605606,96.953664 C99.1438577,96.953664 100.752155,98.5619611 100.752155,100.545259 Z" id="Shape" fill="#FF9811"></path>
                    <path d="M86.3873921,100.545259 L86.3873921,147.226293 L79.2058188,147.226293 L79.2058188,100.545259 C79.2058188,98.5619611 80.8141163,96.953664 82.7974138,96.953664 C84.7807113,96.953664 86.3873921,98.5619611 86.3873921,100.545259 Z" id="Shape" fill="#FF9811"></path>
                    <path d="M107.933729,104.135237 C105.950431,104.135237 104.342134,102.52694 104.342134,100.545259 C104.342134,98.5619611 105.950431,96.953664 107.933729,96.953664 C111.900323,96.953664 115.115302,93.7386852 115.115302,89.7720906 C115.115302,85.8054956 111.900323,82.5905172 107.933729,82.5905172 C103.967134,82.5905172 100.752155,85.8054956 100.752155,89.7720906 C100.752155,91.7553881 99.1438577,93.362069 97.1605606,93.362069 C95.177263,93.362069 93.5705818,91.7553881 93.5705818,89.7720906 C93.5705818,81.838901 100.000539,75.4089439 107.933729,75.4089439 C115.866918,75.4089439 122.296875,81.838901 122.296875,89.7720906 C122.296875,97.7052803 115.866918,104.135237 107.933729,104.135237 Z" id="Shape" fill="#FF9811"></path>
                    <path d="M72.0242458,104.135237 C64.0910561,104.135237 57.661099,97.7052803 57.661099,89.7720906 C57.661099,81.838901 64.0910561,75.4089439 72.0242458,75.4089439 C79.9574354,75.4089439 86.3873921,81.838901 86.3873921,89.7720906 C86.3873921,91.7553881 84.7807113,93.362069 82.7974138,93.362069 C80.8141163,93.362069 79.2058188,91.7553881 79.2058188,89.7720906 C79.2058188,85.8054956 75.9908404,82.5905172 72.0242458,82.5905172 C68.0576508,82.5905172 64.8426724,85.8054956 64.8426724,89.7720906 C64.8426724,93.7386852 68.0576508,96.953664 72.0242458,96.953664 C74.0075429,96.953664 75.6158404,98.5619611 75.6158404,100.545259 C75.6158404,102.52694 74.0075429,104.135237 72.0242458,104.135237 Z" id="Shape" fill="#FF9811"></path>
                    <path d="M107.933729,104.135237 L72.0242458,104.135237 C70.0409483,104.135237 68.434267,102.52694 68.434267,100.545259 C68.434267,98.5619611 70.0425646,96.953664 72.0242458,96.953664 L107.933729,96.953664 C109.917026,96.953664 111.523707,98.5619611 111.523707,100.545259 C111.523707,102.52694 109.917026,104.135237 107.933729,104.135237 Z" id="Shape" fill="#FF9811"></path>
                    <path d="M82.7974138,104.135237 C80.8141163,104.135237 79.2058188,102.52694 79.2058188,100.545259 L79.2058188,89.7720906 C79.2058188,87.7887931 80.8141163,86.1804956 82.7974138,86.1804956 C84.7807113,86.1804956 86.3873921,87.7887931 86.3873921,89.7720906 L86.3873921,100.545259 C86.3873921,102.528556 84.7807113,104.135237 82.7974138,104.135237 Z" id="Shape" fill="#FF9811"></path>
                    <path d="M97.1605606,104.135237 C95.177263,104.135237 93.5705818,102.52694 93.5705818,100.545259 L93.5705818,89.7720906 C93.5705818,87.7887931 95.177263,86.1804956 97.1605606,86.1804956 C99.1438577,86.1804956 100.752155,87.7887931 100.752155,89.7720906 L100.752155,100.545259 C100.752155,102.528556 99.1438577,104.135237 97.1605606,104.135237 Z" id="Shape" fill="#FF9811"></path>
                </g>
            </g>
        </g>
    </g>
</svg>