<?xml version="1.0" encoding="UTF-8"?>
<svg width="180px" height="129px" viewBox="0 0 180 129" version="1.1" xmlns="http://www.w3.org/2000/svg" xmlns:xlink="http://www.w3.org/1999/xlink">
    <!-- Generator: Sketch 48.2 (47327) - http://www.bohemiancoding.com/sketch -->
    <title>notes</title>
    <desc>Created with Sketch.</desc>
    <defs></defs>
    <g id="Home-Copy-7" stroke="none" stroke-width="1" fill="none" fill-rule="evenodd" transform="translate(-802.000000, -2140.000000)">
        <g id="Case-Studies" transform="translate(390.000000, 1232.000000)" fill-rule="nonzero">
            <g id="Money" transform="translate(0.000000, 800.000000)">
                <g id="notes" transform="translate(412.000000, 108.000000)">
                    <rect id="XMLID_115_" fill="#56B46F" x="0" y="25.8" width="180" height="103.2"></rect>
                    <polygon id="XMLID_114_" fill="#74BE86" points="167.142857 25.8 6.42857143 25.8 6.42857143 12.9"></polygon>
                    <path d="M131.785714,77.4 C131.785714,100.5555 113.078571,119.325 90,119.325 C66.9214286,119.325 48.2142857,100.5555 48.2142857,77.4 C48.2142857,54.2445 66.9214286,35.475 90,35.475 C113.078571,35.475 131.785714,54.2445 131.785714,77.4" id="XMLID_79_" fill="#4D8157"></path>
                    <path d="M67.8021429,112.875 C56.0507143,105.454275 48.2142857,92.360775 48.2142857,77.4 C48.2142857,62.439225 56.0507143,49.345725 67.8021429,41.925 L35.2767857,41.925 C35.325,42.457125 35.3571429,42.992475 35.3571429,43.5375 C35.3571429,53.33505 27.4403571,61.275 17.6785714,61.275 C17.1353571,61.275 16.6017857,61.24275 16.0714286,61.194375 L16.0714286,93.605625 C16.6017857,93.55725 17.1353571,93.525 17.6785714,93.525 C27.4403571,93.525 35.3571429,101.46495 35.3571429,111.2625 C35.3571429,111.807525 35.325,112.342875 35.2767857,112.875 L67.8021429,112.875 Z" id="XMLID_112_" fill="#EAEAD7"></path>
                    <path d="M162.321429,61.275 C152.556429,61.275 144.642857,53.33505 144.642857,43.5375 C144.642857,42.992475 144.675,42.457125 144.723214,41.925 L112.197857,41.925 C123.949286,49.345725 131.785714,62.439225 131.785714,77.4 C131.785714,92.360775 123.949286,105.454275 112.197857,112.875 L144.723214,112.875 C144.675,112.342875 144.642857,111.807525 144.642857,111.2625 C144.642857,101.46495 152.556429,93.525 162.321429,93.525 C162.864643,93.525 163.398214,93.55725 163.928571,93.605625 L163.928571,61.194375 C163.398214,61.24275 162.864643,61.275 162.321429,61.275" id="XMLID_111_" fill="#EAEAD7"></path>
                    <path d="M17.6785714,51.6 C13.2460714,51.6 9.64285714,47.984775 9.64285714,43.5375 C9.64285714,39.090225 13.2460714,35.475 17.6785714,35.475 C22.1110714,35.475 25.7142857,39.090225 25.7142857,43.5375 C25.7142857,47.984775 22.1110714,51.6 17.6785714,51.6" id="XMLID_110_" fill="#EAEAD7"></path>
                    <path d="M162.321429,51.6 C157.888929,51.6 154.285714,47.984775 154.285714,43.5375 C154.285714,39.090225 157.888929,35.475 162.321429,35.475 C166.753929,35.475 170.357143,39.090225 170.357143,43.5375 C170.357143,47.984775 166.753929,51.6 162.321429,51.6" id="XMLID_109_" fill="#EAEAD7"></path>
                    <path d="M17.6785714,119.325 C13.2460714,119.325 9.64285714,115.709775 9.64285714,111.2625 C9.64285714,106.815225 13.2460714,103.2 17.6785714,103.2 C22.1110714,103.2 25.7142857,106.815225 25.7142857,111.2625 C25.7142857,115.709775 22.1110714,119.325 17.6785714,119.325" id="XMLID_108_" fill="#EAEAD7"></path>
                    <path d="M162.321429,119.325 C157.888929,119.325 154.285714,115.709775 154.285714,111.2625 C154.285714,106.815225 157.888929,103.2 162.321429,103.2 C166.753929,103.2 170.357143,106.815225 170.357143,111.2625 C170.357143,115.709775 166.753929,119.325 162.321429,119.325" id="XMLID_107_" fill="#EAEAD7"></path>
                    <polygon id="XMLID_106_" fill="#83C38E" points="16.0714286 0 16.0714286 13.674 167.142857 25.8 176.785714 25.8"></polygon>
                    <path d="M107.897143,87.155625 C110.179286,86.446125 111.857143,84.330525 111.857143,81.815025 L111.857143,79.009275 C111.857143,76.8582 110.622857,75.0006 108.842143,74.0589 C107.607857,63.50025 100.652143,59.227125 89.4696429,59.227125 C88.9425,59.227125 88.4217857,59.246475 87.9139286,59.2884 C84.1114286,59.59155 80.2671429,58.8756 77.1075,56.737425 C75.7928571,55.847325 74.6871429,54.905625 73.9092857,53.912325 C73.5525,53.460825 72.8421429,53.74785 72.9096429,54.3219 C73.0221429,55.3023 73.1860714,56.4504 73.4367857,57.7017 C74.3592857,62.361825 73.8064286,61.68135 72.0096429,66.08025 C71.0164286,68.5119 70.3767857,71.211225 70.0778571,74.068575 C68.31,75.016725 67.0821429,76.86465 67.0821429,79.009275 L67.0821429,81.815025 C67.0821429,84.330525 68.7632143,86.446125 71.0421429,87.155625 C72.5560714,92.838075 75.6642857,97.3821 81.0739286,99.720225 L81.0739286,102.93555 C81.0739286,103.757925 80.6078571,104.506125 79.875,104.87055 L69.0717857,110.21115 C68.1364286,110.7207 67.365,111.420525 66.6771429,112.1913 C73.3371429,116.6934 81.3632143,119.325 90,119.325 C98.3153571,119.325 106.045714,116.857875 112.554643,112.6557 C111.754286,111.68175 110.748214,110.86905 109.578214,110.2821 L99.0385714,104.877 C98.3185714,104.50935 97.8653571,103.7676 97.8653571,102.958125 L97.8653571,99.720225 C103.275,97.3821 106.383214,92.838075 107.897143,87.155625" id="XMLID_105_" fill="#EAEAD7"></path>
                </g>
            </g>
        </g>
    </g>
</svg>