<?xml version="1.0" encoding="UTF-8"?>
<svg width="30px" height="30px" viewBox="0 0 30 30" version="1.1" xmlns="http://www.w3.org/2000/svg" xmlns:xlink="http://www.w3.org/1999/xlink">
    <!-- Generator: Sketch 47.1 (45422) - http://www.bohemiancoding.com/sketch -->
    <title>dribbble</title>
    <desc>Created with Sketch.</desc>
    <defs></defs>
    <g id="Page-1" stroke="none" stroke-width="1" fill="none" fill-rule="evenodd">
        <g id="Website" transform="translate(-771.000000, -696.000000)" fill-rule="nonzero" fill="#3946FF">
            <g id="Links" transform="translate(640.000000, 694.000000)">
                <g id="dribbble" transform="translate(131.000000, 2.000000)">
                    <path d="M14.9650685,0.000102739726 C6.69965753,0.000102739726 0,6.70068493 0,14.9651712 C0,23.2296575 6.69965753,29.930137 14.9650685,29.930137 C23.2304795,29.930137 29.930137,23.2295548 29.930137,14.9650685 C29.930137,6.70058219 23.2303767,0.000102739726 14.9650685,0.000102739726 Z M24.7848288,7.24315068 C26.3935274,9.28592466 27.3784932,11.837363 27.4560616,14.6143151 C24.0983219,14.0260274 21.2026027,14.0082534 18.7005822,14.4048288 C18.3835274,13.6771233 18.0571233,12.9700685 17.7222945,12.285411 C20.4057534,11.1817808 22.8123288,9.57205479 24.7848288,7.24315068 Z M23.062911,5.45486301 C21.3008219,7.59390411 19.0887329,9.06606164 16.5858904,10.0678767 C14.9836644,7.09921233 13.3357192,4.62523973 12.0188014,2.81917808 C12.9644178,2.58811644 13.9492808,2.46472603 14.9641438,2.46472603 C18.0534247,2.46369863 20.8798973,3.59260274 23.062911,5.45486301 Z M9.59167808,3.68054795 C10.8646233,5.37996575 12.5584932,7.84171233 14.2149658,10.86 C10.7038356,11.8243151 6.77640411,12.0843493 2.80130137,12.0955479 C3.67859589,8.37678082 6.2169863,5.2939726 9.59167808,3.68054795 Z M2.46544521,14.9640411 L2.47571918,14.5599658 L2.5430137,14.5599658 C6.9969863,14.5599658 11.4191096,14.2681849 15.3839384,13.0999315 C15.6795205,13.7013699 15.9703767,14.3186301 16.2547603,14.9537671 C11.0385616,16.4830479 7.78643836,19.9155822 5.55760274,23.1816781 C3.63462329,20.9847945 2.46544521,18.1086986 2.46544521,14.9640411 Z M7.37958904,24.889726 C9.48965753,21.7115753 12.430274,18.5670205 17.2153767,17.2463014 C18.3330822,20.110274 19.245,23.2360274 19.7276712,26.5189726 C18.2592123,27.1288356 16.6514384,27.4655137 14.9659932,27.4655137 C12.1141438,27.4655137 9.48410959,26.505 7.37958904,24.889726 Z M22.0266781,25.2732534 C21.5150342,22.2736644 20.6769863,19.4125685 19.667774,16.7600342 C21.854589,16.482226 24.3686301,16.5496233 27.2830479,17.0855137 C26.700411,20.4730479 24.7530822,23.3997945 22.0266781,25.2732534 Z" id="Shape"></path>
                </g>
            </g>
        </g>
    </g>
</svg>