<?xml version="1.0" encoding="UTF-8"?>
<svg width="20px" height="20px" viewBox="0 0 20 20" version="1.1" xmlns="http://www.w3.org/2000/svg" xmlns:xlink="http://www.w3.org/1999/xlink">
    <!-- Generator: Sketch 51.3 (57544) - http://www.bohemiancoding.com/sketch -->
    <title>dribbble-logo</title>
    <desc>Created with Sketch.</desc>
    <defs></defs>
    <g id="Page-1" stroke="none" stroke-width="1" fill="none" fill-rule="evenodd">
        <g id="Home-Copy-11" transform="translate(-474.000000, -2324.000000)" fill="#C5C5C5" fill-rule="nonzero">
            <g id="Group-2" transform="translate(394.000000, 2324.000000)">
                <g id="dribbble-logo" transform="translate(80.000000, 0.000000)">
                    <path d="M18.6592085,4.9803664 C17.7649522,3.44835292 16.5519506,2.23535689 15.0198845,1.34115029 C13.4875448,0.446989287 11.814782,0 10.0003192,0 C8.18603888,0 6.51277444,0.446989287 4.98070836,1.34115029 C3.44855107,2.23522007 2.23554952,3.4482161 1.34129322,4.9803664 C0.446991326,6.51260792 0,8.18586472 0,10 C0,11.8142265 0.447128146,13.4872097 1.3411564,15.0195424 C2.23536709,16.5515559 3.44836865,17.7645519 4.98052594,18.6588497 C6.51277444,19.5529651 8.18590206,20 10.0001368,20 C11.8143716,20 13.4876816,19.5529651 15.0198389,18.6588497 C16.551905,17.7648711 17.7648609,16.5515559 18.659026,15.0195424 C19.5530543,13.4873465 20,11.8141353 20,10 C20.0000456,8.1856823 19.5530543,6.51237988 18.6592085,4.9803664 Z M10.0001824,1.45835899 C12.1528646,1.45835899 14.0322713,2.1701396 15.638129,3.59365522 L15.4753587,3.82136847 C15.4102779,3.91267268 15.2475076,4.08825769 14.9871845,4.34880762 C14.7268158,4.60912951 14.4425036,4.85668158 14.1343847,5.09100777 C13.8259922,5.32542517 13.4074138,5.59231439 12.8776919,5.89181227 C12.3481525,6.19131014 11.7839519,6.45404917 11.1849078,6.67971013 C10.1867139,4.8392599 9.11910647,3.18128127 7.98190326,1.70568303 C8.66778251,1.54076993 9.34048142,1.45835899 10.0001824,1.45835899 Z M3.30758075,4.70020569 C4.14086087,3.65007046 5.15633979,2.84265302 6.35438235,2.27850064 C7.43074622,3.71077271 8.48968832,5.35151208 9.5314367,7.20039951 C6.89254148,7.89484966 4.26240274,8.24209753 1.64083807,8.24196075 C1.91876534,6.93127557 2.47430062,5.75056894 3.30758075,4.70020569 Z M2.03132269,13.07967 C1.64932092,12.1031437 1.45836564,11.0764958 1.45836564,10 C1.45836564,9.87841308 1.4628351,9.78724569 1.47140916,9.72654344 C4.61393923,9.72654344 7.53504875,9.32301714 10.2346921,8.5155541 C10.5125282,9.05371077 10.7425684,9.53549782 10.9248584,9.96096084 C10.8896956,9.97829131 10.8336906,9.99771968 10.7555207,10.019474 C10.6771228,10.0411827 10.6208441,10.0562328 10.5858181,10.0650349 L10.1041657,10.2342806 C9.77415559,10.3558675 9.34216887,10.5642436 8.80852481,10.8592264 C8.27474392,11.1546653 7.70835424,11.5060178 7.10935576,11.9141047 C6.51035728,12.3222373 5.89183914,12.8625831 5.25389253,13.5355525 C4.61585472,14.2082484 4.0798391,14.9307009 3.64580008,15.7032294 C2.95134677,14.9307009 2.41323324,14.0559227 2.03132269,13.07967 Z M10.0001824,18.5417778 C7.96885974,18.5417778 6.15462498,17.8906539 4.55734131,16.5886796 L4.75267483,16.7319752 C5.0564611,16.0633839 5.50345243,15.4209708 6.09387684,14.8047814 C6.68421005,14.188592 7.25274324,13.6913899 7.79961326,13.3136769 C8.34648327,12.9363288 8.94105789,12.5804613 9.58351956,12.2458464 C10.2258444,11.91187 10.663988,11.6989789 10.8985889,11.6081307 C11.1330074,11.5170089 11.3196756,11.4452243 11.4585481,11.3930505 L11.4844527,11.3799614 L11.5106765,11.3799614 C12.3611048,13.6108489 12.9690422,15.7724601 13.3334854,17.8644757 C12.2570759,18.3160713 11.1461421,18.541641 10.0001824,18.5417778 Z M17.1880729,14.6159249 C16.5456569,15.6099641 15.7425228,16.4326141 14.7792635,17.0834188 C14.4230752,15.0869488 13.8678135,13.0511203 13.112384,10.9766175 C14.8398292,10.70722 16.6149791,10.8333219 18.4379247,11.3539657 C18.2468782,12.5345355 17.8301697,13.6220681 17.1880729,14.6159249 Z M18.4117009,9.88283691 C18.3249113,9.86559765 18.2162761,9.84589564 18.0861146,9.82432377 C17.955953,9.8027519 17.7973785,9.77657377 17.6107103,9.74619984 C17.4243157,9.71582591 17.215665,9.6876867 16.9858072,9.66159978 C16.7557214,9.63555847 16.5105397,9.61175188 16.2498974,9.59004319 C15.9895743,9.56824328 15.7117383,9.55104963 15.4167541,9.53791496 C15.1212682,9.52496272 14.8219514,9.51839538 14.5180739,9.51839538 C14.2145157,9.51839538 13.8952232,9.52719744 13.5611996,9.54443669 C13.2270849,9.56153913 12.9038246,9.59227791 12.591373,9.63560408 C12.5651492,9.59214109 12.5326772,9.52049328 12.4936379,9.42061505 C12.4546441,9.32087364 12.4261855,9.244802 12.4093567,9.19271938 C12.2442148,8.82814103 12.0531683,8.41576708 11.8359436,7.95582555 C12.434942,7.71260609 13.0058468,7.43276462 13.5487034,7.11584507 C14.0910583,6.79892551 14.5247781,6.51698614 14.8505012,6.26961649 C15.1760875,6.02197321 15.4842064,5.759371 15.7749491,5.48167303 C16.0658743,5.20392946 16.2544124,5.01087715 16.3415213,4.90233368 C16.4284476,4.79360779 16.510859,4.68734465 16.588892,4.58331623 L16.6019812,4.57018156 C17.8693003,6.11532971 18.516277,7.89475845 18.5419992,9.90883261 L18.4117009,9.88283691 Z" id="Shape"></path>
                </g>
            </g>
        </g>
    </g>
</svg>