<?xml version="1.0" encoding="UTF-8"?>
<svg width="20px" height="15px" viewBox="0 0 20 15" version="1.1" xmlns="http://www.w3.org/2000/svg" xmlns:xlink="http://www.w3.org/1999/xlink">
    <!-- Generator: Sketch 51.3 (57544) - http://www.bohemiancoding.com/sketch -->
    <title>message-closed-envelope</title>
    <desc>Created with Sketch.</desc>
    <defs></defs>
    <g id="Page-1" stroke="none" stroke-width="1" fill="none" fill-rule="evenodd">
        <g id="Home-Copy-11" transform="translate(-394.000000, -2326.000000)" fill="#C5C5C5" fill-rule="nonzero">
            <g id="Group-2" transform="translate(394.000000, 2324.000000)">
                <g id="message-closed-envelope" transform="translate(0.000000, 2.000000)">
                    <path d="M17.6262244,0 L2.37382791,0 C1.06490944,0 0,1.00984746 0,2.25108277 L0,12.7489172 C0,13.9901525 1.06490944,15 2.37382791,15 L17.6262244,15 C18.9351429,15 20,13.9901525 20,12.7489172 L20,2.25108277 C20,1.00984746 18.9351429,0 17.6262244,0 Z M17.6262244,13.0126591 L2.37382791,13.0126591 C2.18142611,13.0126591 2.01268198,12.8894452 2.01268198,12.7489172 L2.01268198,3.63925479 L8.91093566,9.3900981 C9.05235831,9.50804026 9.23219852,9.57295496 9.4173774,9.57295496 L10.5824132,9.57300665 C10.7674874,9.57300665 10.9474323,9.50804026 11.0889073,9.3900981 L17.987475,3.63904806 L17.987475,12.7490206 C17.9873704,12.8894452 17.8185739,13.0126591 17.6262244,13.0126591 Z M10.0000262,7.59967198 L3.29061518,1.98734094 L16.7094372,1.98734094 L10.0000262,7.59967198 Z" id="Shape"></path>
                </g>
            </g>
        </g>
    </g>
</svg>