<?xml version="1.0" encoding="UTF-8"?>
<svg width="156px" height="190px" viewBox="0 0 156 190" version="1.1" xmlns="http://www.w3.org/2000/svg" xmlns:xlink="http://www.w3.org/1999/xlink">
    <!-- Generator: Sketch 48.2 (47327) - http://www.bohemiancoding.com/sketch -->
    <title>flask</title>
    <desc>Created with Sketch.</desc>
    <defs></defs>
    <g id="Home-Copy-7" stroke="none" stroke-width="1" fill="none" fill-rule="evenodd" transform="translate(-813.000000, -2507.000000)">
        <g id="Case-Studies" transform="translate(390.000000, 1232.000000)" fill-rule="nonzero">
            <g id="D3" transform="translate(0.000000, 1200.000000)">
                <g id="flask" transform="translate(423.000000, 75.000000)">
                    <path d="M153.316641,163.115742 L95.7421875,65.8298047 L95.7421875,11.875 C95.7421875,10.2355078 94.4144141,8.90625 92.7734375,8.90625 C91.1324609,8.90625 89.8046875,10.2355078 89.8046875,11.875 L66.0546875,11.875 C66.0546875,10.2355078 64.7269141,8.90625 63.0859375,8.90625 C61.4449609,8.90625 60.1171875,10.2355078 60.1171875,11.875 L60.1171875,65.8298047 L2.54273438,163.115742 C-0.759257812,168.692168 -0.811582031,175.382246 2.39763672,181.010996 C5.60685547,186.639746 11.3907227,190 17.8703906,190 L137.988613,190 C144.468281,190 150.252148,186.639746 153.461367,181.010996 C156.670957,175.382246 156.619004,168.692539 153.316641,163.115742 Z" id="Shape" fill="#85EAFB"></path>
                    <path d="M77.9296875,11.875 L66.0546875,11.875 C66.0546875,10.2355078 64.7269141,8.90625 63.0859375,8.90625 C61.4449609,8.90625 60.1171875,10.2355078 60.1171875,11.875 L60.1171875,65.8298047 L2.54273437,163.115742 C-0.759257813,168.692168 -0.811582031,175.382246 2.39763672,181.010996 C5.60685547,186.639746 11.3907227,190 17.8703906,190 L77.9296875,190 L77.9296875,11.875 Z" id="Shape" fill="#5DDCFC"></path>
                    <path d="M143.100059,169.163457 L126.424219,140.987793 C125.890586,140.084551 124.919434,139.530879 123.86998,139.530879 L31.9893945,139.530879 C30.9399414,139.530879 29.9687891,140.084551 29.4351563,140.987793 L12.7619141,169.163457 C11.6456641,171.047871 11.625625,173.220996 12.7125586,175.131387 C13.802832,177.033242 15.6813086,178.124629 17.8700195,178.124629 L137.988242,178.124629 C140.176953,178.124629 142.055801,177.033242 143.148672,175.125449 C144.23375,173.22248 144.216309,171.049355 143.100059,169.163457 Z" id="Shape" fill="#00E68C"></path>
                    <path d="M77.9296875,139.53125 L31.9893945,139.53125 C30.9399414,139.53125 29.9687891,140.084922 29.4351563,140.988164 L12.7619141,169.163828 C11.6456641,171.048242 11.625625,173.221367 12.7125586,175.131758 C13.802832,177.033613 15.6813086,178.125 17.8700195,178.125 L77.9296875,178.125 L77.9296875,139.53125 Z" id="Shape" fill="#00BEBE"></path>
                    <path d="M86.8359375,97.96875 L69.0234375,97.96875 C67.3824609,97.96875 66.0546875,96.6394922 66.0546875,95 C66.0546875,93.3605078 67.3824609,92.03125 69.0234375,92.03125 L86.8359375,92.03125 C88.4769141,92.03125 89.8046875,93.3605078 89.8046875,95 C89.8046875,96.6394922 88.4769141,97.96875 86.8359375,97.96875 Z" id="Shape" fill="#FFFFFF"></path>
                    <path d="M86.8359375,112.8125 L69.0234375,112.8125 C67.3824609,112.8125 66.0546875,111.483242 66.0546875,109.84375 C66.0546875,108.204258 67.3824609,106.875 69.0234375,106.875 L86.8359375,106.875 C88.4769141,106.875 89.8046875,108.204258 89.8046875,109.84375 C89.8046875,111.483242 88.4769141,112.8125 86.8359375,112.8125 Z" id="Shape" fill="#FFFFFF"></path>
                    <path d="M86.8359375,127.65625 L69.0234375,127.65625 C67.3824609,127.65625 66.0546875,126.326992 66.0546875,124.6875 C66.0546875,123.048008 67.3824609,121.71875 69.0234375,121.71875 L86.8359375,121.71875 C88.4769141,121.71875 89.8046875,123.048008 89.8046875,124.6875 C89.8046875,126.326992 88.4769141,127.65625 86.8359375,127.65625 Z" id="Shape" fill="#FFFFFF"></path>
                    <circle id="Oval" fill="#FFFFFF" cx="89.8046875" cy="160.3125" r="5.9375"></circle>
                    <circle id="Oval" fill="#00E68C" cx="57.1484375" cy="151.40625" r="5.9375"></circle>
                    <circle id="Oval" fill="#FFFFFF" cx="110.585938" cy="154.375" r="2.96875"></circle>
                    <circle id="Oval" fill="#00E68C" cx="66.0546875" cy="163.28125" r="2.96875"></circle>
                    <circle id="Oval" fill="#00E68C" cx="39.3359375" cy="157.34375" r="2.96875"></circle>
                    <path d="M95.7421875,0 L60.1171875,0 C56.837832,0 54.1796875,2.65814453 54.1796875,5.9375 C54.1796875,9.21685547 56.837832,11.875 60.1171875,11.875 L95.7421875,11.875 C99.021543,11.875 101.679688,9.21685547 101.679688,5.9375 C101.679688,2.65814453 99.0211719,0 95.7421875,0 Z" id="Shape" fill="#44BEF1"></path>
                </g>
            </g>
        </g>
    </g>
</svg>