<?xml version="1.0" encoding="UTF-8"?>
<svg width="10px" height="15px" viewBox="0 0 10 15" version="1.1" xmlns="http://www.w3.org/2000/svg" xmlns:xlink="http://www.w3.org/1999/xlink">
    <!-- Generator: Sketch 51.3 (57544) - http://www.bohemiancoding.com/sketch -->
    <title>left-arrow-4 copy</title>
    <desc>Created with Sketch.</desc>
    <defs></defs>
    <g id="Page-1" stroke="none" stroke-width="1" fill="none" fill-rule="evenodd">
        <g id="left-arrow-4-copy" transform="translate(4.583333, 7.500000) scale(-1, 1) translate(-4.583333, -7.500000) " fill="#333333" fill-rule="nonzero">
            <path d="M3.08033716,7.50317073 L8.91752016,1.89146341 C9.07824756,1.73731707 9.16666667,1.53121951 9.16666667,1.31146341 C9.16666667,1.09158537 9.07824756,0.885609756 8.91752016,0.731219512 L8.40603405,0.239756098 C8.24556036,0.0851219512 8.03104572,0 7.80244999,0 C7.57385427,0 7.35959334,0.0851219512 7.1989928,0.239756098 L0.248896193,6.92097561 C0.0876613604,7.07585366 -0.000630884713,7.28280488 3.39865776e-06,7.50280488 C-0.000630884713,7.72378049 0.0875345038,7.9304878 0.248896193,8.0854878 L7.1925231,14.7602439 C7.35312365,14.914878 7.56738458,15 7.79610716,15 C8.02470289,15 8.23896381,14.914878 8.39969122,14.7602439 L8.91105047,14.2687805 C9.24379552,13.9489024 9.24379552,13.4281707 8.91105047,13.1084146 L3.08033716,7.50317073 Z" id="Shape"></path>
        </g>
    </g>
</svg>