<?xml version="1.0" encoding="UTF-8"?>
<svg width="180px" height="174px" viewBox="0 0 180 174" version="1.1" xmlns="http://www.w3.org/2000/svg" xmlns:xlink="http://www.w3.org/1999/xlink">
    <!-- Generator: Sketch 48.2 (47327) - http://www.bohemiancoding.com/sketch -->
    <title>bars-chart</title>
    <desc>Created with Sketch.</desc>
    <defs></defs>
    <g id="Home-Copy-7" stroke="none" stroke-width="1" fill="none" fill-rule="evenodd" transform="translate(-801.000000, -2509.000000)">
        <g id="Case-Studies" transform="translate(390.000000, 1232.000000)" fill-rule="nonzero">
            <g id="D3" transform="translate(0.000000, 1200.000000)">
                <g id="bars-chart" transform="translate(411.000000, 77.000000)">
                    <path d="M103.762807,170.612964 L88.2757895,170.612964 C86.5652632,170.612964 85.1782456,169.226226 85.1782456,167.516044 L85.1782456,96.2904073 C85.1782456,94.5802258 86.5652632,93.1934879 88.2757895,93.1934879 L103.762807,93.1934879 C105.473333,93.1934879 106.860351,94.5802258 106.860351,96.2904073 L106.860351,167.516044 C106.860351,169.226226 105.473333,170.612964 103.762807,170.612964 Z" id="Shape" fill="#FFD782"></path>
                    <path d="M103.762807,170.612964 L88.2757895,170.612964 C86.5652632,170.612964 85.1782456,169.226226 85.1782456,167.516044 L85.1782456,114.870871 C85.1782456,113.16069 86.5652632,111.773952 88.2757895,111.773952 L103.762807,111.773952 C105.473333,111.773952 106.860351,113.16069 106.860351,114.870871 L106.860351,167.516044 C106.860351,169.226226 105.473333,170.612964 103.762807,170.612964 Z" id="Shape" fill="#FFC36E"></path>
                    <path d="M134.736842,170.612964 L119.249825,170.612964 C117.539298,170.612964 116.152281,169.226226 116.152281,167.516044 L116.152281,40.5483145 C116.152281,38.8381331 117.539298,37.4513952 119.249825,37.4513952 L134.736842,37.4513952 C136.447368,37.4513952 137.834386,38.8381331 137.834386,40.5483145 L137.834386,167.516044 C137.834386,169.226226 136.447368,170.612964 134.736842,170.612964 Z" id="Shape" fill="#C3E678"></path>
                    <path d="M134.736842,170.612964 L119.249825,170.612964 C117.539298,170.612964 116.152281,169.226226 116.152281,167.516044 L116.152281,77.7095927 C116.152281,75.9994113 117.539298,74.6126734 119.249825,74.6126734 L134.736842,74.6126734 C136.447368,74.6126734 137.834386,75.9994113 137.834386,77.7095927 L137.834386,167.516044 C137.834386,169.226226 136.447368,170.612964 134.736842,170.612964 Z" id="Shape" fill="#A5D76E"></path>
                    <path d="M41.8147368,170.612964 L26.3277193,170.612964 C24.617193,170.612964 23.2301754,169.226226 23.2301754,167.516044 L23.2301754,114.870871 C23.2301754,113.16069 24.617193,111.773952 26.3277193,111.773952 L41.8147368,111.773952 C43.5252632,111.773952 44.9122807,113.16069 44.9122807,114.870871 L44.9122807,167.516044 C44.9122807,169.226226 43.5252632,170.612964 41.8147368,170.612964 Z" id="Shape" fill="#00D2FF"></path>
                    <path d="M165.710877,170.612964 L150.22386,170.612964 C148.513333,170.612964 147.126316,169.226226 147.126316,167.516044 L147.126316,21.9678508 C147.126316,20.2576694 148.513333,18.8709315 150.22386,18.8709315 L165.710877,18.8709315 C167.421404,18.8709315 168.808421,20.2576694 168.808421,21.9678508 L168.808421,167.516395 C168.80807,169.226226 167.421404,170.612964 165.710877,170.612964 Z" id="Shape" fill="#9BE6D2"></path>
                    <path d="M165.710877,170.612964 L150.22386,170.612964 C148.513333,170.612964 147.126316,169.226226 147.126316,167.516044 L147.126316,59.129129 C147.126316,57.4189476 148.513333,56.0322097 150.22386,56.0322097 L165.710877,56.0322097 C167.421404,56.0322097 168.808421,57.4189476 168.808421,59.129129 L168.808421,167.516395 C168.80807,169.226226 167.421404,170.612964 165.710877,170.612964 Z" id="Shape" fill="#78D2BE"></path>
                    <path d="M72.7887719,170.612964 L57.3017544,170.612964 C55.5912281,170.612964 54.2042105,169.226226 54.2042105,167.516044 L54.2042105,77.7095927 C54.2042105,75.9994113 55.5912281,74.6126734 57.3017544,74.6126734 L72.7887719,74.6126734 C74.4992982,74.6126734 75.8863158,75.9994113 75.8863158,77.7095927 L75.8863158,167.516044 C75.8863158,169.226226 74.4992982,170.612964 72.7887719,170.612964 Z" id="Shape" fill="#FF6464"></path>
                    <path d="M72.7887719,170.612964 L57.3017544,170.612964 C55.5912281,170.612964 54.2042105,169.226226 54.2042105,167.516044 L54.2042105,96.2904073 C54.2042105,94.5802258 55.5912281,93.1934879 57.3017544,93.1934879 L72.7887719,93.1934879 C74.4992982,93.1934879 75.8863158,94.5802258 75.8863158,96.2904073 L75.8863158,167.516044 C75.8863158,169.226226 74.4992982,170.612964 72.7887719,170.612964 Z" id="Shape" fill="#D2555A"></path>
                    <path d="M41.8147368,170.612964 L26.3277193,170.612964 C24.617193,170.612964 23.2301754,169.226226 23.2301754,167.516044 L23.2301754,133.451685 C23.2301754,131.741504 24.617193,130.354766 26.3277193,130.354766 L41.8147368,130.354766 C43.5252632,130.354766 44.9122807,131.741504 44.9122807,133.451685 L44.9122807,167.516044 C44.9122807,169.226226 43.5252632,170.612964 41.8147368,170.612964 Z" id="Shape" fill="#18BDF6"></path>
                    <g id="Group" transform="translate(0.000000, 18.592742)" fill="#D7DEED">
                        <path d="M9.2922807,136.536327 L3.09754386,136.536327 C1.38701754,136.536327 0,135.149589 0,133.439407 C0,131.729226 1.38701754,130.342488 3.09754386,130.342488 L9.2922807,130.342488 L9.2922807,136.536327 Z" id="Shape"></path>
                        <path d="M9.2922807,117.955512 L3.09754386,117.955512 C1.38701754,117.955512 0,116.568774 0,114.858593 C0,113.148411 1.38701754,111.761673 3.09754386,111.761673 L9.2922807,111.761673 L9.2922807,117.955512 Z" id="Shape"></path>
                        <path d="M9.2922807,99.3750484 L3.09754386,99.3750484 C1.38701754,99.3750484 0,97.9883105 0,96.278129 C0,94.5679476 1.38701754,93.1812097 3.09754386,93.1812097 L9.2922807,93.1812097 L9.2922807,99.3750484 Z" id="Shape"></path>
                        <path d="M9.2922807,80.7942339 L3.09754386,80.7942339 C1.38701754,80.7942339 0,79.407496 0,77.6973145 C0,75.9871331 1.38701754,74.6003952 3.09754386,74.6003952 L9.2922807,74.6003952 L9.2922807,80.7942339 Z" id="Shape"></path>
                        <path d="M9.2922807,62.2137702 L3.09754386,62.2137702 C1.38701754,62.2137702 0,60.8270323 0,59.1168508 C0,57.4066694 1.38701754,56.0199315 3.09754386,56.0199315 L9.2922807,56.0199315 L9.2922807,62.2137702 Z" id="Shape"></path>
                        <path d="M9.2922807,43.6329556 L3.09754386,43.6329556 C1.38701754,43.6329556 0,42.2462177 0,40.5360363 C0,38.8258548 1.38701754,37.4391169 3.09754386,37.4391169 L9.2922807,37.4391169 L9.2922807,43.6329556 Z" id="Shape"></path>
                        <path d="M9.2922807,25.0524919 L3.09754386,25.0524919 C1.38701754,25.0524919 0,23.665754 0,21.9555726 C0,20.2453911 1.38701754,18.8586532 3.09754386,18.8586532 L9.2922807,18.8586532 L9.2922807,25.0524919 Z" id="Shape"></path>
                        <path d="M9.2922807,6.47167742 L3.09754386,6.47167742 C1.38701754,6.47167742 0,5.08529032 0,3.37510887 C0,1.66492742 1.38701754,0.278189516 3.09754386,0.278189516 L9.2922807,0.278189516 L9.2922807,6.47167742 Z" id="Shape"></path>
                    </g>
                    <path d="M9.2922807,170.612964 C7.58175439,170.612964 6.19473684,169.226226 6.19473684,167.516044 L6.19473684,3.38703629 C6.19473684,1.67685484 7.58175439,0.290116935 9.2922807,0.290116935 C11.002807,0.290116935 12.3898246,1.67685484 12.3898246,3.38703629 L12.3898246,167.516044 C12.3894737,169.226226 11.002807,170.612964 9.2922807,170.612964 Z" id="Shape" fill="#C7CFE2"></path>
                    <path d="M0,170.612964 C0,168.902782 1.38701754,167.516044 3.09754386,167.516044 L176.55193,167.516044 C178.262456,167.516044 179.649474,168.902782 179.649474,170.612964 C179.649474,172.323145 178.262456,173.709883 176.55193,173.709883 L3.09754386,173.709883 C1.38701754,173.709532 0,172.323145 0,170.612964 Z" id="Shape" fill="#AFB9D2"></path>
                </g>
            </g>
        </g>
    </g>
</svg>