<?xml version="1.0" encoding="UTF-8"?>
<svg width="670px" height="380px" viewBox="0 0 670 380" version="1.1" xmlns="http://www.w3.org/2000/svg" xmlns:xlink="http://www.w3.org/1999/xlink">
    <!-- Generator: Sketch 48.2 (47327) - http://www.bohemiancoding.com/sketch -->
    <title>Jesse Wu Block</title>
    <desc>Created with Sketch.</desc>
    <defs>
        <radialGradient cx="0%" cy="0%" fx="0%" fy="0%" r="141.421356%" gradientTransform="translate(0.000000,0.000000),scale(0.541791,1.000000),rotate(28.448438),translate(-0.000000,-0.000000)" id="radialGradient-1">
            <stop stop-color="#9F93FF" offset="0%"></stop>
            <stop stop-color="#93F6FF" offset="100%"></stop>
        </radialGradient>
    </defs>
    <g id="Home-Copy-7" stroke="none" stroke-width="1" fill="none" fill-rule="evenodd" transform="translate(-390.000000, -145.000000)">
        <g id="Jesse-Wu-Block" transform="translate(390.000000, 144.000000)">
            <rect id="Rectangle-3" fill="url(#radialGradient-1)" x="0" y="6" width="670" height="363" rx="10"></rect>
            <path d="M227.03627,63.2597003 C212.973699,69.0930628 201.932143,77.9210995 193.91127,89.7440753 C185.890396,101.567051 181.88002,116.124197 181.88002,133.41595 C181.88002,137.478471 182.114392,140.785729 182.583145,143.337825 C183.051897,145.889921 183.572725,147.921151 184.145645,149.431575 C184.718564,150.942 185.239392,152.113863 185.708145,152.9472 C186.176897,153.780538 186.41127,154.509697 186.41127,155.1347 C180.890409,155.1347 175.994624,154.587831 171.72377,153.494075 C167.452915,152.40032 163.885242,150.655546 161.020645,148.2597 C158.156047,145.863855 155.968569,142.686803 154.458145,138.72845 C152.94772,134.770097 152.19252,129.874313 152.19252,124.04095 C152.19252,116.957582 153.728963,109.978485 156.801895,103.10345 C159.874827,96.2284159 164.093534,89.7180644 169.458145,83.5722003 C174.822755,77.4263362 181.124775,71.7493097 188.364395,66.5409503 C195.604014,61.3325909 203.364353,56.8274276 211.645645,53.0253253 C219.926936,49.2232229 228.572683,46.2545026 237.583145,44.1190753 C246.593606,41.9836479 255.577891,40.9159503 264.53627,40.9159503 L277.34877,40.9159503 L229.38002,268.10345 C226.77584,280.291011 223.390457,291.280485 219.22377,301.0722 C215.057082,310.863916 209.666511,319.171125 203.051895,325.994075 C196.437278,332.817026 188.416525,338.051349 178.989395,341.6972 C169.562264,345.343052 158.286335,347.16595 145.16127,347.16595 C137.452898,347.16595 130.656091,346.072211 124.770645,343.8847 C118.885199,341.697189 113.937331,338.624303 109.926895,334.66595 C105.916458,330.707597 102.895655,325.968061 100.864395,320.4472 C98.8331345,314.926339 97.8175196,308.780567 97.8175196,302.0097 C97.8175196,296.593007 98.676886,291.306601 100.395645,286.150325 C102.114403,280.99405 104.614378,276.436803 107.895645,272.47845 C111.176911,268.520097 115.23937,265.317004 120.083145,262.869075 C124.926919,260.421146 130.525821,259.1972 136.88002,259.1972 C140.109202,259.1972 143.546668,259.353449 147.19252,259.66595 C150.838371,259.978452 154.223754,260.837818 157.34877,262.244075 C160.473785,263.650332 163.051884,265.785728 165.083145,268.650325 C167.114405,271.514923 168.13002,275.499258 168.13002,280.60345 C168.13002,284.353469 167.505026,288.62426 166.25502,293.41595 C164.275843,291.749275 162.452945,290.369081 160.78627,289.275325 C159.119595,288.18157 157.531069,287.322203 156.020645,286.6972 C154.51022,286.072197 153.02586,285.655535 151.56752,285.4472 C150.109179,285.238866 148.598777,285.1347 147.03627,285.1347 C143.286251,285.1347 140.005034,285.811777 137.19252,287.16595 C134.380006,288.520124 132.06232,290.290939 130.239395,292.47845 C128.416469,294.665961 127.036274,297.191978 126.09877,300.056575 C125.161265,302.921173 124.69252,305.811769 124.69252,308.72845 C124.69252,312.895138 125.395638,316.410728 126.801895,319.275325 C128.208152,322.139923 129.978967,324.457608 132.114395,326.22845 C134.249822,327.999292 136.593549,329.275321 139.145645,330.056575 C141.697741,330.837829 144.119591,331.22845 146.41127,331.22845 C149.952954,331.22845 153.182088,330.733664 156.09877,329.744075 C159.015451,328.754487 161.697716,326.853464 164.145645,324.04095 C166.593574,321.228436 168.859176,317.244101 170.94252,312.087825 C173.025863,306.93155 175.00501,300.186825 176.88002,291.85345 L227.03627,63.2597003 Z M459.06752,280.91595 L455.31752,118.10345 L394.53627,280.91595 L348.44252,280.91595 L343.28627,62.3222003 C328.286195,67.9472284 316.593603,76.7492237 308.208145,88.7284503 C299.822686,100.707677 295.63002,115.603361 295.63002,133.41595 C295.63002,137.478471 295.864392,140.785729 296.333145,143.337825 C296.801897,145.889921 297.296684,147.921151 297.81752,149.431575 C298.338356,150.942 298.833142,152.113863 299.301895,152.9472 C299.770647,153.780538 300.00502,154.509697 300.00502,155.1347 C294.484159,155.1347 289.588374,154.587831 285.31752,153.494075 C281.046665,152.40032 277.478992,150.655546 274.614395,148.2597 C271.749797,145.863855 269.562319,142.686803 268.051895,138.72845 C266.54147,134.770097 265.78627,129.874313 265.78627,124.04095 C265.78627,116.957582 267.322713,109.978485 270.395645,103.10345 C273.468577,96.2284159 277.687284,89.7180644 283.051895,83.5722003 C288.416505,77.4263362 294.718525,71.7493097 301.958145,66.5409503 C309.197764,61.3325909 316.958103,56.8274276 325.239395,53.0253253 C333.520686,49.2232229 342.166433,46.2545026 351.176895,44.1190753 C360.187356,41.9836479 369.171641,40.9159503 378.13002,40.9159503 C380.525865,40.9159503 382.739384,40.9680331 384.770645,41.0722003 C386.801905,41.1763675 388.859176,41.3326159 390.94252,41.5409503 L393.75502,238.41595 L461.09877,42.4784503 L501.72377,42.4784503 L504.53627,238.41595 L571.72377,42.4784503 L594.22377,42.4784503 L505.16127,280.91595 L459.06752,280.91595 Z" id="JW" fill="#FFFFFF" transform="translate(346.020645, 194.040950) rotate(-10.000000) translate(-346.020645, -194.040950) "></path>
        </g>
    </g>
</svg>