<?xml version="1.0" encoding="UTF-8"?>
<svg width="28px" height="26px" viewBox="0 0 28 26" version="1.1" xmlns="http://www.w3.org/2000/svg" xmlns:xlink="http://www.w3.org/1999/xlink">
    <!-- Generator: Sketch 47.1 (45422) - http://www.bohemiancoding.com/sketch -->
    <title>linked-in-logo-of-two-letters</title>
    <desc>Created with Sketch.</desc>
    <defs></defs>
    <g id="Page-1" stroke="none" stroke-width="1" fill="none" fill-rule="evenodd">
        <g id="Website" transform="translate(-640.000000, -697.000000)" fill-rule="nonzero" fill="#3946FF">
            <g id="Links" transform="translate(640.000000, 694.000000)">
                <g id="linked-in-logo-of-two-letters" transform="translate(0.000000, 3.000000)">
                    <path d="M0.908860759,25.6128608 L4.54739241,25.6128608 C5.04936709,25.6128608 5.45625316,25.2059241 5.45625316,24.7039494 L5.45625316,8.8 C5.45625316,8.29797468 5.04936709,7.89113924 4.54739241,7.89113924 L0.908860759,7.89113924 C0.406835443,7.89113924 0,8.29797468 0,8.8 L0,24.7039494 C0,25.2058734 0.406835443,25.6128608 0.908860759,25.6128608 Z" id="Shape"></path>
                    <path d="M0.908860759,5.09513924 L4.54739241,5.09513924 C5.04936709,5.09513924 5.45625316,4.68825316 5.45625316,4.18627848 L5.45625316,0.955240506 C5.45625316,0.453265823 5.04936709,0.0463797468 4.54739241,0.0463797468 L0.908860759,0.0463797468 C0.406835443,0.0463797468 0,0.453265823 0,0.955240506 L0,4.18627848 C0,4.68825316 0.406835443,5.09513924 0.908860759,5.09513924 Z" id="Shape"></path>
                    <path d="M26.6193418,9.73579747 C26.1080506,9.06278481 25.3541266,8.50931646 24.3572658,8.07549367 C23.3604051,7.64197468 22.2600506,7.42506329 21.0561519,7.42506329 C18.6122025,7.42506329 16.5413165,8.35777215 14.8435443,10.2235443 C14.5057215,10.5947848 14.2601013,10.5136203 14.2601013,10.0115949 L14.2601013,8.8 C14.2601013,8.29797468 13.8531646,7.89113924 13.3511899,7.89113924 L10.100962,7.89113924 C9.59893671,7.89113924 9.19210127,8.29797468 9.19210127,8.8 L9.19210127,24.7039494 C9.19210127,25.2059241 9.59898734,25.6128608 10.100962,25.6128608 L13.7394937,25.6128608 C14.241519,25.6128608 14.6483544,25.2059241 14.6483544,24.7039494 L14.6483544,19.172962 C14.6483544,16.8687595 14.7874937,15.2893671 15.0657722,14.435038 C15.3439494,13.5807089 15.8586835,12.8946835 16.6094684,12.3768608 C17.3603544,11.859038 18.2081519,11.6 19.1532658,11.6 C19.8910886,11.6 20.5222278,11.7812658 21.0465823,12.1438481 C21.5708861,12.5063797 21.9495696,13.0142278 22.1825823,13.6681013 C22.4156962,14.3218734 22.5321519,15.7619747 22.5321519,17.9886076 L22.5321519,24.7038987 C22.5321519,25.2058734 22.9389873,25.6128101 23.440962,25.6128101 L27.0794937,25.6128101 C27.5814684,25.6128101 27.9883038,25.2058734 27.9883038,24.7038987 L27.9883038,15.6972152 C27.9883038,14.1050633 27.8879494,12.8816709 27.6874937,12.0273418 C27.487038,11.1730127 27.1309367,10.4091646 26.6193418,9.73579747 Z" id="Shape"></path>
                </g>
            </g>
        </g>
    </g>
</svg>