<?xml version="1.0" encoding="UTF-8"?>
<svg width="180px" height="163px" viewBox="0 0 180 163" version="1.1" xmlns="http://www.w3.org/2000/svg" xmlns:xlink="http://www.w3.org/1999/xlink">
    <!-- Generator: Sketch 49.2 (51160) - http://www.bohemiancoding.com/sketch -->
    <title>first-aid-kit</title>
    <desc>Created with Sketch.</desc>
    <defs></defs>
    <g id="Page-1" stroke="none" stroke-width="1" fill="none" fill-rule="evenodd">
        <g id="first-aid-kit" fill-rule="nonzero">
            <path d="M112.110534,0.0755871886 L67.2661922,0.0755871886 C61.0776512,0.0755871886 56.0549466,5.09829181 56.0549466,11.2868327 L56.0549466,28.1037011 L67.2661922,28.1037011 L67.2661922,16.8918149 C67.2661922,13.7978648 69.7720996,11.2861922 72.8718149,11.2861922 L106.504911,11.2861922 C109.604626,11.2861922 112.110534,13.7972242 112.110534,16.8918149 L112.110534,28.1030605 L123.321779,28.1030605 L123.321779,11.2861922 C123.321779,5.10341637 118.299075,0.0755871886 112.110534,0.0755871886 Z" id="Shape" fill="#324D5B"></path>
            <path d="M11.2112456,28.1088256 L168.166121,28.1088256 C174.354662,28.1088256 179.377367,33.1315302 179.377367,39.3251957 L179.377367,151.43573 C179.377367,157.62427 174.354662,162.646975 168.166121,162.646975 L11.2112456,162.646975 C5.02270463,162.646975 0,157.62427 0,151.43573 L0,39.3251957 C0,33.1308897 5.02270463,28.1088256 11.2112456,28.1088256 Z" id="Shape" fill="#E2574C"></path>
            <path d="M117.716157,84.1580071 L100.899288,84.1580071 L100.899288,67.352669 C100.899288,64.2529537 98.3933808,61.7361566 95.2936655,61.7361566 L84.0824199,61.7361566 C80.9827046,61.7361566 78.4767972,64.2529537 78.4767972,67.352669 L78.4767972,84.1580071 L61.6605694,84.1580071 C58.5608541,84.1580071 56.0549466,86.6748043 56.0549466,89.7636299 L56.0549466,100.974875 C56.0549466,104.080356 58.5608541,106.591388 61.6605694,106.591388 L78.4774377,106.591388 L78.4774377,123.396726 C78.4774377,126.502206 80.9833452,129.002349 84.0830605,129.002349 L95.294306,129.002349 C98.3940214,129.002349 100.899929,126.502206 100.899929,123.396726 L100.899929,106.591388 L117.716797,106.591388 C120.816512,106.591388 123.32242,104.080356 123.32242,100.974875 L123.32242,89.7636299 C123.321779,86.6805694 120.815872,84.1580071 117.716157,84.1580071 Z" id="Shape" fill="#FFFFFF"></path>
            <path d="M11.2112456,28.1088256 C5.02270463,28.1088256 0,33.1308897 0,39.3251957 L0,67.3475445 L39.2387189,28.1088256 C39.2387189,28.1088256 11.2112456,28.1088256 11.2112456,28.1088256 Z M11.1548754,162.64121 L39.2387189,162.64121 L0,123.396726 L0,151.43573 C0,157.607616 4.98875445,162.613025 11.1548754,162.64121 Z M168.166121,28.1088256 L140.138648,28.1088256 L179.377367,67.3475445 L179.377367,39.3251957 C179.376726,33.1308897 174.354662,28.1088256 168.166121,28.1088256 Z M168.221851,162.64121 C174.387972,162.60726 179.376726,157.607616 179.376726,151.43573 L179.376726,123.396726 L140.138007,162.64121 L168.221851,162.64121 Z" id="Shape" fill="#BF392C"></path>
        </g>
    </g>
</svg>