<?xml version="1.0" encoding="UTF-8"?>
<svg width="1440px" height="614px" viewBox="0 0 1440 614" version="1.1" xmlns="http://www.w3.org/2000/svg" xmlns:xlink="http://www.w3.org/1999/xlink">
    <!-- Generator: Sketch 51.3 (57544) - http://www.bohemiancoding.com/sketch -->
    <title>Home Copy 5</title>
    <desc>Created with Sketch.</desc>
    <defs>
        <linearGradient x1="100%" y1="50%" x2="1.03639812%" y2="50%" id="linearGradient-1">
            <stop stop-color="#FFFFFF" stop-opacity="0" offset="0%"></stop>
            <stop stop-color="#FFFFFF" stop-opacity="0.8" offset="100%"></stop>
        </linearGradient>
        <linearGradient x1="100%" y1="50%" x2="0.284501445%" y2="50%" id="linearGradient-2">
            <stop stop-color="#FFFFFF" stop-opacity="0" offset="0%"></stop>
            <stop stop-color="#FFFFFF" stop-opacity="0.8" offset="100%"></stop>
        </linearGradient>
    </defs>
    <g id="Home-Copy-5" stroke="none" stroke-width="1" fill="none" fill-rule="evenodd">
        <rect fill="#FFFFFF" x="0" y="0" width="1440" height="614"></rect>
        <g id="Group-2" transform="translate(-25.000000, 0.000000)">
            <g id="Group-2-Copy-7" transform="translate(1337.000000, 0.000000)">
                <rect id="Rectangle-10" fill="#F2FBCA" transform="translate(28.150508, 176.320508) rotate(60.000000) translate(-28.150508, -176.320508) " x="8.15050808" y="156.320508" width="40" height="40" rx="10"></rect>
                <rect id="Rectangle-10-Copy-12" fill="#F2FBCA" transform="translate(124.320508, 84.320508) rotate(60.000000) translate(-124.320508, -84.320508) " x="104.320508" y="64.3205081" width="40" height="40" rx="10"></rect>
                <rect id="Rectangle-10-Copy-2" fill="#F2FBCA" transform="translate(116.320508, 283.320508) rotate(60.000000) translate(-116.320508, -283.320508) " x="96.3205081" y="263.320508" width="40" height="40" rx="10"></rect>
                <rect id="Rectangle-10-Copy-7" fill="#FFE8CE" transform="translate(47.999119, 251.169119) rotate(80.000000) translate(-47.999119, -251.169119) " x="27.9991186" y="231.169119" width="40" height="40" rx="10"></rect>
                <rect id="Rectangle-10-Copy-10" fill="#FFE8CE" transform="translate(112.169119, 153.169119) rotate(80.000000) translate(-112.169119, -153.169119) " x="92.1691186" y="133.169119" width="40" height="40" rx="10"></rect>
                <rect id="Rectangle-10-Copy-3" fill="#CEFFDF" transform="translate(48.006641, 101.176641) rotate(40.000000) translate(-48.006641, -101.176641) " x="28.0066411" y="81.1766411" width="40" height="40" rx="10"></rect>
                <rect id="Rectangle-10-Copy-14" fill="#D0F9FF" transform="translate(127.176641, 214.176641) rotate(40.000000) translate(-127.176641, -214.176641) " x="107.176641" y="194.176641" width="40" height="40" rx="10"></rect>
                <rect id="Rectangle-10-Copy-5" fill="#D0F9FF" transform="translate(68.465137, 25.634255) rotate(20.000000) translate(-68.465137, -25.634255) " x="48.4651367" y="5.63425528" width="40" height="40" rx="10"></rect>
                <rect id="Rectangle-10-Copy" fill="#F2FBCA" transform="translate(32.670508, 487.320508) rotate(60.000000) translate(-32.670508, -487.320508) " x="12.6705081" y="467.320508" width="40" height="40" rx="10"></rect>
                <rect id="Rectangle-10-Copy-8" fill="#FFE8CE" transform="translate(42.522618, 562.169119) rotate(80.000000) translate(-42.522618, -562.169119) " x="22.5226183" y="542.169119" width="40" height="40" rx="10"></rect>
                <rect id="Rectangle-10-Copy-4" fill="#CEFFDF" transform="translate(42.530141, 412.176641) rotate(40.000000) translate(-42.530141, -412.176641) " x="22.5301408" y="392.176641" width="40" height="40" rx="10"></rect>
                <rect id="Rectangle-10-Copy-13" fill="#CEFFDF" transform="translate(115.176641, 373.176641) rotate(40.000000) translate(-115.176641, -373.176641) " x="95.1766411" y="353.176641" width="40" height="40" rx="10"></rect>
                <rect id="Rectangle-10-Copy-11" fill="#CEFFDF" transform="translate(117.176641, 549.176641) rotate(40.000000) translate(-117.176641, -549.176641) " x="97.1766411" y="529.176641" width="40" height="40" rx="10"></rect>
                <rect id="Rectangle-10-Copy-6" fill="#D0F9FF" transform="translate(31.984255, 336.634255) rotate(20.000000) translate(-31.984255, -336.634255) " x="11.9842553" y="316.634255" width="40" height="40" rx="10"></rect>
                <rect id="Rectangle-10-Copy-9" fill="#D0F9FF" transform="translate(101.634255, 465.634255) rotate(20.000000) translate(-101.634255, -465.634255) " x="81.6342553" y="445.634255" width="40" height="40" rx="10"></rect>
            </g>
            <g id="Group-2-Copy-8" transform="translate(78.000000, 293.000000) scale(-1, 1) translate(-78.000000, -293.000000) ">
                <rect id="Rectangle-10" fill="#F2FBCA" transform="translate(28.150508, 176.320508) rotate(60.000000) translate(-28.150508, -176.320508) " x="8.15050808" y="156.320508" width="40" height="40" rx="10"></rect>
                <rect id="Rectangle-10-Copy-12" fill="#F2FBCA" transform="translate(124.320508, 84.320508) rotate(60.000000) translate(-124.320508, -84.320508) " x="104.320508" y="64.3205081" width="40" height="40" rx="10"></rect>
                <rect id="Rectangle-10-Copy-2" fill="#F2FBCA" transform="translate(116.320508, 283.320508) rotate(60.000000) translate(-116.320508, -283.320508) " x="96.3205081" y="263.320508" width="40" height="40" rx="10"></rect>
                <rect id="Rectangle-10-Copy-7" fill="#FFE8CE" transform="translate(47.999119, 251.169119) rotate(80.000000) translate(-47.999119, -251.169119) " x="27.9991186" y="231.169119" width="40" height="40" rx="10"></rect>
                <rect id="Rectangle-10-Copy-10" fill="#FFE8CE" transform="translate(112.169119, 153.169119) rotate(80.000000) translate(-112.169119, -153.169119) " x="92.1691186" y="133.169119" width="40" height="40" rx="10"></rect>
                <rect id="Rectangle-10-Copy-3" fill="#CEFFDF" transform="translate(48.006641, 101.176641) rotate(40.000000) translate(-48.006641, -101.176641) " x="28.0066411" y="81.1766411" width="40" height="40" rx="10"></rect>
                <rect id="Rectangle-10-Copy-14" fill="#D0F9FF" transform="translate(127.176641, 214.176641) rotate(40.000000) translate(-127.176641, -214.176641) " x="107.176641" y="194.176641" width="40" height="40" rx="10"></rect>
                <rect id="Rectangle-10-Copy-5" fill="#D0F9FF" transform="translate(68.465137, 25.634255) rotate(20.000000) translate(-68.465137, -25.634255) " x="48.4651367" y="5.63425528" width="40" height="40" rx="10"></rect>
                <rect id="Rectangle-10-Copy" fill="#F2FBCA" transform="translate(32.670508, 487.320508) rotate(60.000000) translate(-32.670508, -487.320508) " x="12.6705081" y="467.320508" width="40" height="40" rx="10"></rect>
                <rect id="Rectangle-10-Copy-8" fill="#FFE8CE" transform="translate(42.522618, 562.169119) rotate(80.000000) translate(-42.522618, -562.169119) " x="22.5226183" y="542.169119" width="40" height="40" rx="10"></rect>
                <rect id="Rectangle-10-Copy-4" fill="#CEFFDF" transform="translate(42.530141, 412.176641) rotate(40.000000) translate(-42.530141, -412.176641) " x="22.5301408" y="392.176641" width="40" height="40" rx="10"></rect>
                <rect id="Rectangle-10-Copy-13" fill="#CEFFDF" transform="translate(115.176641, 373.176641) rotate(40.000000) translate(-115.176641, -373.176641) " x="95.1766411" y="353.176641" width="40" height="40" rx="10"></rect>
                <rect id="Rectangle-10-Copy-11" fill="#CEFFDF" transform="translate(117.176641, 549.176641) rotate(40.000000) translate(-117.176641, -549.176641) " x="97.1766411" y="529.176641" width="40" height="40" rx="10"></rect>
                <rect id="Rectangle-10-Copy-6" fill="#D0F9FF" transform="translate(31.984255, 336.634255) rotate(20.000000) translate(-31.984255, -336.634255) " x="11.9842553" y="316.634255" width="40" height="40" rx="10"></rect>
                <rect id="Rectangle-10-Copy-9" fill="#D0F9FF" transform="translate(101.634255, 465.634255) rotate(20.000000) translate(-101.634255, -465.634255) " x="81.6342553" y="445.634255" width="40" height="40" rx="10"></rect>
            </g>
        </g>
        <rect id="Rectangle-15" fill="url(#linearGradient-1)" x="1313" y="0" width="127" height="614"></rect>
        <rect id="Rectangle-15-Copy" fill="url(#linearGradient-2)" transform="translate(63.500000, 307.000000) scale(-1, 1) translate(-63.500000, -307.000000) " x="0" y="0" width="127" height="614"></rect>
    </g>
</svg>