<?xml version="1.0" encoding="UTF-8"?>
<svg width="1440px" height="614px" viewBox="0 0 1440 614" version="1.1" xmlns="http://www.w3.org/2000/svg" xmlns:xlink="http://www.w3.org/1999/xlink">
    <!-- Generator: Sketch 51.3 (57544) - http://www.bohemiancoding.com/sketch -->
    <title>Home Copy 5</title>
    <desc>Created with Sketch.</desc>
    <defs>
        <linearGradient x1="50%" y1="0%" x2="50%" y2="100%" id="linearGradient-1">
            <stop stop-color="#FFFFFF" stop-opacity="0" offset="0%"></stop>
            <stop stop-color="#FFFFFF" offset="100%"></stop>
        </linearGradient>
    </defs>
    <g id="Home-Copy-5" stroke="none" stroke-width="1" fill="none" fill-rule="evenodd">
        <rect fill="#FFFFFF" x="0" y="0" width="1440" height="614"></rect>
        <g id="Group" transform="translate(-73.000000, -37.000000)">
            <g id="Group-2-Copy-8" transform="translate(377.200000, 107.500000) scale(-1, 1) rotate(-90.000000) translate(-377.200000, -107.500000) translate(269.800000, -269.050279)">
                <rect id="Rectangle-10" fill="#F2FBCA" transform="translate(33.780211, 241.839903) rotate(60.000000) translate(-33.780211, -241.839903) " x="9.78021124" y="217.817557" width="48" height="48.0446927" rx="12"></rect>
                <rect id="Rectangle-10-Copy-12" fill="#F2FBCA" transform="translate(133.575583, 57.842316) rotate(60.000000) translate(-133.575583, -57.842316) " x="109.575583" y="33.8199699" width="48" height="48.0446927" rx="12"></rect>
                <rect id="Rectangle-10-Copy-2" fill="#F2FBCA" transform="translate(180.828766, 252.831771) rotate(60.000000) translate(-180.828766, -252.831771) " x="156.828766" y="228.809425" width="48" height="48.0446927" rx="12"></rect>
                <rect id="Rectangle-10-Copy-15" fill="#F2FBCA" transform="translate(100.790973, 663.984869) rotate(60.000000) translate(-100.790973, -663.984869) " x="76.7909731" y="639.962523" width="48" height="48.0446927" rx="12"></rect>
                <rect id="Rectangle-10-Copy-7" fill="#FFE8CE" transform="translate(100.790973, 302.483868) rotate(80.000000) translate(-100.790973, -302.483868) " x="76.7909731" y="278.461522" width="48" height="48.0446927" rx="12"></rect>
                <rect id="Rectangle-10-Copy-10" fill="#FFE8CE" transform="translate(180.828766, 130.515525) rotate(80.000000) translate(-180.828766, -130.515525) " x="156.828766" y="106.493179" width="48" height="48.0446927" rx="12"></rect>
                <rect id="Rectangle-10-Copy-3" fill="#CEFFDF" transform="translate(41.893714, 124.500903) rotate(40.000000) translate(-41.893714, -124.500903) " x="17.893714" y="100.478557" width="48" height="48.0446927" rx="12"></rect>
                <rect id="Rectangle-10-Copy-14" fill="#D0F9FF" transform="translate(121.268573, 175.181316) rotate(40.000000) translate(-121.268573, -175.181316) " x="97.2685731" y="151.15897" width="48" height="48.0446927" rx="12"></rect>
                <rect id="Rectangle-10-Copy-5" fill="#D0F9FF" transform="translate(62.517814, 31.638022) rotate(20.000000) translate(-62.517814, -31.638022) " x="38.5178142" y="7.6156761" width="48" height="48.0446927" rx="12"></rect>
                <rect id="Rectangle-10-Copy" fill="#F2FBCA" transform="translate(120.241214, 536.728317) rotate(60.000000) translate(-120.241214, -536.728317) " x="96.2412135" y="512.705971" width="48" height="48.0446927" rx="12"></rect>
                <rect id="Rectangle-10-Copy-8" fill="#FFE8CE" transform="translate(34.714872, 613.061302) rotate(80.000000) translate(-34.714872, -613.061302) " x="10.7148719" y="589.038956" width="48" height="48.0446927" rx="12"></rect>
                <rect id="Rectangle-10-Copy-4" fill="#CEFFDF" transform="translate(59.466951, 495.038675) rotate(40.000000) translate(-59.466951, -495.038675) " x="35.4669513" y="471.016328" width="48" height="48.0446927" rx="12"></rect>
                <rect id="Rectangle-10-Copy-13" fill="#CEFFDF" transform="translate(138.649949, 366.480544) rotate(40.000000) translate(-138.649949, -366.480544) " x="114.649949" y="342.458197" width="48" height="48.0446927" rx="12"></rect>
                <rect id="Rectangle-10-Copy-11" fill="#CEFFDF" transform="translate(167.387552, 619.075924) rotate(40.000000) translate(-167.387552, -619.075924) " x="143.387552" y="595.053578" width="48" height="48.0446927" rx="12"></rect>
                <rect id="Rectangle-10-Copy-6" fill="#D0F9FF" transform="translate(62.517814, 400.323995) rotate(20.000000) translate(-62.517814, -400.323995) " x="38.5178142" y="376.301649" width="48" height="48.0446927" rx="12"></rect>
                <rect id="Rectangle-10-Copy-16" fill="#D0F9FF" transform="translate(31.756708, 705.122480) rotate(20.000000) translate(-31.756708, -705.122480) " x="7.75670789" y="681.100134" width="48" height="48.0446927" rx="12"></rect>
                <rect id="Rectangle-10-Copy-9" fill="#D0F9FF" transform="translate(169.411055, 473.123434) rotate(20.000000) translate(-169.411055, -473.123434) " x="145.411055" y="449.101087" width="48" height="48.0446927" rx="12"></rect>
            </g>
            <g id="Group-2-Copy-8" transform="translate(1136.800000, 107.500000) scale(-1, 1) rotate(-90.000000) translate(-1136.800000, -107.500000) translate(1029.400000, -269.050279)">
                <rect id="Rectangle-10" fill="#F2FBCA" transform="translate(33.780211, 241.839903) rotate(60.000000) translate(-33.780211, -241.839903) " x="9.78021124" y="217.817557" width="48" height="48.0446927" rx="12"></rect>
                <rect id="Rectangle-10-Copy-12" fill="#F2FBCA" transform="translate(133.575583, 57.842316) rotate(60.000000) translate(-133.575583, -57.842316) " x="109.575583" y="33.8199699" width="48" height="48.0446927" rx="12"></rect>
                <rect id="Rectangle-10-Copy-2" fill="#F2FBCA" transform="translate(180.828766, 252.831771) rotate(60.000000) translate(-180.828766, -252.831771) " x="156.828766" y="228.809425" width="48" height="48.0446927" rx="12"></rect>
                <rect id="Rectangle-10-Copy-15" fill="#F2FBCA" transform="translate(100.790973, 663.984869) rotate(60.000000) translate(-100.790973, -663.984869) " x="76.7909731" y="639.962523" width="48" height="48.0446927" rx="12"></rect>
                <rect id="Rectangle-10-Copy-7" fill="#FFE8CE" transform="translate(100.790973, 302.483868) rotate(80.000000) translate(-100.790973, -302.483868) " x="76.7909731" y="278.461522" width="48" height="48.0446927" rx="12"></rect>
                <rect id="Rectangle-10-Copy-10" fill="#FFE8CE" transform="translate(180.828766, 130.515525) rotate(80.000000) translate(-180.828766, -130.515525) " x="156.828766" y="106.493179" width="48" height="48.0446927" rx="12"></rect>
                <rect id="Rectangle-10-Copy-3" fill="#CEFFDF" transform="translate(41.893714, 124.500903) rotate(40.000000) translate(-41.893714, -124.500903) " x="17.893714" y="100.478557" width="48" height="48.0446927" rx="12"></rect>
                <rect id="Rectangle-10-Copy-14" fill="#D0F9FF" transform="translate(121.268573, 175.181316) rotate(40.000000) translate(-121.268573, -175.181316) " x="97.2685731" y="151.15897" width="48" height="48.0446927" rx="12"></rect>
                <rect id="Rectangle-10-Copy-5" fill="#D0F9FF" transform="translate(62.517814, 31.638022) rotate(20.000000) translate(-62.517814, -31.638022) " x="38.5178142" y="7.6156761" width="48" height="48.0446927" rx="12"></rect>
                <rect id="Rectangle-10-Copy" fill="#F2FBCA" transform="translate(120.241214, 536.728317) rotate(60.000000) translate(-120.241214, -536.728317) " x="96.2412135" y="512.705971" width="48" height="48.0446927" rx="12"></rect>
                <rect id="Rectangle-10-Copy-8" fill="#FFE8CE" transform="translate(34.714872, 613.061302) rotate(80.000000) translate(-34.714872, -613.061302) " x="10.7148719" y="589.038956" width="48" height="48.0446927" rx="12"></rect>
                <rect id="Rectangle-10-Copy-17" fill="#FFE8CE" transform="translate(161.378525, 724.628834) rotate(80.000000) translate(-161.378525, -724.628834) " x="137.378525" y="700.606488" width="48" height="48.0446927" rx="12"></rect>
                <rect id="Rectangle-10-Copy-4" fill="#CEFFDF" transform="translate(59.466951, 495.038675) rotate(40.000000) translate(-59.466951, -495.038675) " x="35.4669513" y="471.016328" width="48" height="48.0446927" rx="12"></rect>
                <rect id="Rectangle-10-Copy-13" fill="#CEFFDF" transform="translate(138.649949, 366.480544) rotate(40.000000) translate(-138.649949, -366.480544) " x="114.649949" y="342.458197" width="48" height="48.0446927" rx="12"></rect>
                <rect id="Rectangle-10-Copy-11" fill="#CEFFDF" transform="translate(167.387552, 619.075924) rotate(40.000000) translate(-167.387552, -619.075924) " x="143.387552" y="595.053578" width="48" height="48.0446927" rx="12"></rect>
                <rect id="Rectangle-10-Copy-6" fill="#D0F9FF" transform="translate(62.517814, 400.323995) rotate(20.000000) translate(-62.517814, -400.323995) " x="38.5178142" y="376.301649" width="48" height="48.0446927" rx="12"></rect>
                <rect id="Rectangle-10-Copy-16" fill="#D0F9FF" transform="translate(31.756708, 705.122480) rotate(20.000000) translate(-31.756708, -705.122480) " x="7.75670789" y="681.100134" width="48" height="48.0446927" rx="12"></rect>
                <rect id="Rectangle-10-Copy-9" fill="#D0F9FF" transform="translate(169.411055, 473.123434) rotate(20.000000) translate(-169.411055, -473.123434) " x="145.411055" y="449.101087" width="48" height="48.0446927" rx="12"></rect>
            </g>
        </g>
        <g id="Group-Copy" transform="translate(-205.000000, 138.000000)">
            <g id="Group-2-Copy-8" transform="translate(313.500000, 101.000000) scale(-1, 1) rotate(-90.000000) translate(-313.500000, -101.000000) translate(214.500000, -212.500000)">
                <rect id="Rectangle-10" fill="#F2FBCA" transform="translate(28.150176, 201.345780) rotate(60.000000) translate(-28.150176, -201.345780) " x="8.15017604" y="181.34578" width="40" height="40" rx="10"></rect>
                <rect id="Rectangle-10-Copy-12" fill="#F2FBCA" transform="translate(111.312986, 48.157091) rotate(60.000000) translate(-111.312986, -48.157091) " x="91.3129856" y="28.1570912" width="40" height="40" rx="10"></rect>
                <rect id="Rectangle-10-Copy-2" fill="#F2FBCA" transform="translate(150.690638, 210.497149) rotate(60.000000) translate(-150.690638, -210.497149) " x="130.690638" y="190.497149" width="40" height="40" rx="10"></rect>
                <rect id="Rectangle-10-Copy-7" fill="#FFE8CE" transform="translate(83.992478, 251.835406) rotate(80.000000) translate(-83.992478, -251.835406) " x="63.9924776" y="231.835406" width="40" height="40" rx="10"></rect>
                <rect id="Rectangle-10-Copy-10" fill="#FFE8CE" transform="translate(173.859757, 80.485122) rotate(80.000000) translate(-173.859757, -80.485122) " x="153.859757" y="60.4851217" width="40" height="40" rx="10"></rect>
                <rect id="Rectangle-10-Copy-3" fill="#CEFFDF" transform="translate(34.911428, 103.654240) rotate(40.000000) translate(-34.911428, -103.654240) " x="14.9114283" y="83.6542403" width="40" height="40" rx="10"></rect>
                <rect id="Rectangle-10-Copy-14" fill="#D0F9FF" transform="translate(101.057144, 145.848631) rotate(40.000000) translate(-101.057144, -145.848631) " x="81.0571442" y="125.848631" width="40" height="40" rx="10"></rect>
                <rect id="Rectangle-10-Copy-5" fill="#D0F9FF" transform="translate(52.098179, 26.340493) rotate(20.000000) translate(-52.098179, -26.340493) " x="32.0981785" y="6.34049312" width="40" height="40" rx="10"></rect>
                <rect id="Rectangle-10-Copy" fill="#F2FBCA" transform="translate(100.201011, 446.857529) rotate(60.000000) translate(-100.201011, -446.857529) " x="80.2010113" y="426.857529" width="40" height="40" rx="10"></rect>
                <rect id="Rectangle-10-Copy-4" fill="#CEFFDF" transform="translate(49.555793, 412.148478) rotate(40.000000) translate(-49.555793, -412.148478) " x="29.5557928" y="392.148478" width="40" height="40" rx="10"></rect>
                <rect id="Rectangle-10-Copy-13" fill="#CEFFDF" transform="translate(115.541624, 305.116360) rotate(40.000000) translate(-115.541624, -305.116360) " x="95.5416242" y="285.11636" width="40" height="40" rx="10"></rect>
                <rect id="Rectangle-10-Copy-6" fill="#D0F9FF" transform="translate(52.098179, 333.293001) rotate(20.000000) translate(-52.098179, -333.293001) " x="32.0981785" y="313.293001" width="40" height="40" rx="10"></rect>
                <rect id="Rectangle-10-Copy-9" fill="#D0F9FF" transform="translate(141.175879, 393.902766) rotate(20.000000) translate(-141.175879, -393.902766) " x="121.175879" y="373.902766" width="40" height="40" rx="10"></rect>
            </g>
            <g id="Group-2-Copy-8" transform="translate(958.000000, 103.500000) scale(-1, 1) rotate(-90.000000) translate(-958.000000, -103.500000) translate(860.500000, -216.500000)">
                <rect id="Rectangle-10" fill="#F2FBCA" transform="translate(27.463923, 214.345780) rotate(60.000000) translate(-27.463923, -214.345780) " x="7.46392324" y="194.34578" width="40" height="40" rx="10"></rect>
                <rect id="Rectangle-10-Copy-12" fill="#F2FBCA" transform="translate(112.312986, 28.023226) rotate(60.000000) translate(-112.312986, -28.023226) " x="92.3129856" y="8.02322576" width="40" height="40" rx="10"></rect>
                <rect id="Rectangle-10-Copy-2" fill="#F2FBCA" transform="translate(166.954002, 158.848631) rotate(60.000000) translate(-166.954002, -158.848631) " x="146.954002" y="138.848631" width="40" height="40" rx="10"></rect>
                <rect id="Rectangle-10-Copy-15" fill="#F2FBCA" transform="translate(84.992478, 565.806008) rotate(60.000000) translate(-84.992478, -565.806008) " x="64.9924776" y="545.806008" width="40" height="40" rx="10"></rect>
                <rect id="Rectangle-10-Copy-7" fill="#FFE8CE" transform="translate(84.992478, 264.835406) rotate(80.000000) translate(-84.992478, -264.835406) " x="64.9924776" y="244.835406" width="40" height="40" rx="10"></rect>
                <rect id="Rectangle-10-Copy-10" fill="#FFE8CE" transform="translate(168.666268, 65.308481) rotate(80.000000) translate(-168.666268, -65.308481) " x="148.666268" y="45.3084807" width="40" height="40" rx="10"></rect>
                <rect id="Rectangle-10-Copy-3" fill="#CEFFDF" transform="translate(103.154074, 110.678779) rotate(40.000000) translate(-103.154074, -110.678779) " x="83.1540737" y="90.6787787" width="40" height="40" rx="10"></rect>
                <rect id="Rectangle-10-Copy-14" fill="#D0F9FF" transform="translate(100.344878, 186.169139) rotate(40.000000) translate(-100.344878, -186.169139) " x="80.3448783" y="166.169139" width="40" height="40" rx="10"></rect>
                <rect id="Rectangle-10-Copy-5" fill="#D0F9FF" transform="translate(53.098179, 39.340493) rotate(20.000000) translate(-53.098179, -39.340493) " x="33.0981785" y="19.3404931" width="40" height="40" rx="10"></rect>
                <rect id="Rectangle-10-Copy" fill="#F2FBCA" transform="translate(101.201011, 459.857529) rotate(60.000000) translate(-101.201011, -459.857529) " x="81.2010113" y="439.857529" width="40" height="40" rx="10"></rect>
                <rect id="Rectangle-10-Copy-8" fill="#FFE8CE" transform="translate(29.929060, 523.409177) rotate(80.000000) translate(-29.929060, -523.409177) " x="9.92905991" y="503.409177" width="40" height="40" rx="10"></rect>
                <rect id="Rectangle-10-Copy-17" fill="#FFE8CE" transform="translate(131.330715, 616.295634) rotate(80.000000) translate(-131.330715, -616.295634) " x="111.330715" y="596.295634" width="40" height="40" rx="10"></rect>
                <rect id="Rectangle-10-Copy-4" fill="#CEFFDF" transform="translate(50.555793, 425.148478) rotate(40.000000) translate(-50.555793, -425.148478) " x="30.5557928" y="405.148478" width="40" height="40" rx="10"></rect>
                <rect id="Rectangle-10-Copy-13" fill="#CEFFDF" transform="translate(130.474582, 292.482104) rotate(40.000000) translate(-130.474582, -292.482104) " x="110.474582" y="272.482104" width="40" height="40" rx="10"></rect>
                <rect id="Rectangle-10-Copy-11" fill="#CEFFDF" transform="translate(144.718265, 546.578296) rotate(40.000000) translate(-144.718265, -546.578296) " x="124.718265" y="526.578296" width="40" height="40" rx="10"></rect>
                <rect id="Rectangle-10-Copy-6" fill="#D0F9FF" transform="translate(53.098179, 346.293001) rotate(20.000000) translate(-53.098179, -346.293001) " x="33.0981785" y="326.293001" width="40" height="40" rx="10"></rect>
                <rect id="Rectangle-10-Copy-16" fill="#D0F9FF" transform="translate(27.463923, 600.055460) rotate(20.000000) translate(-27.463923, -600.055460) " x="7.46392324" y="580.05546" width="40" height="40" rx="10"></rect>
                <rect id="Rectangle-10-Copy-9" fill="#D0F9FF" transform="translate(142.175879, 406.902766) rotate(20.000000) translate(-142.175879, -406.902766) " x="122.175879" y="386.902766" width="40" height="40" rx="10"></rect>
            </g>
            <g id="Group-2-Copy-8" transform="translate(1594.000000, 94.000000) scale(-1, 1) rotate(-90.000000) translate(-1594.000000, -94.000000) translate(1500.000000, -210.000000)">
                <rect id="Rectangle-10-Copy-15" fill="#F2FBCA" transform="translate(97.735875, 574.524599) rotate(60.000000) translate(-97.735875, -574.524599) " x="77.7358746" y="554.524599" width="40" height="40" rx="10"></rect>
                <rect id="Rectangle-10-Copy-7" fill="#FFE8CE" transform="translate(83.992478, 251.835406) rotate(80.000000) translate(-83.992478, -251.835406) " x="63.9924776" y="231.835406" width="40" height="40" rx="10"></rect>
                <rect id="Rectangle-10-Copy" fill="#F2FBCA" transform="translate(146.539248, 430.184758) rotate(60.000000) translate(-146.539248, -430.184758) " x="126.539248" y="410.184758" width="40" height="40" rx="10"></rect>
                <rect id="Rectangle-10-Copy-8" fill="#FFE8CE" transform="translate(49.555793, 474.693737) rotate(80.000000) translate(-49.555793, -474.693737) " x="29.5557928" y="454.693737" width="40" height="40" rx="10"></rect>
                <rect id="Rectangle-10-Copy-17" fill="#FFE8CE" transform="translate(164.344998, 584.590323) rotate(80.000000) translate(-164.344998, -584.590323) " x="144.344998" y="564.590323" width="40" height="40" rx="10"></rect>
                <rect id="Rectangle-10-Copy-4" fill="#CEFFDF" transform="translate(77.732434, 402.864250) rotate(40.000000) translate(-77.732434, -402.864250) " x="57.7324338" y="382.86425" width="40" height="40" rx="10"></rect>
                <rect id="Rectangle-10-Copy-13" fill="#CEFFDF" transform="translate(141.175879, 303.181166) rotate(40.000000) translate(-141.175879, -303.181166) " x="121.175879" y="283.181166" width="40" height="40" rx="10"></rect>
                <rect id="Rectangle-10-Copy-11" fill="#CEFFDF" transform="translate(114.433829, 502.870378) rotate(40.000000) translate(-114.433829, -502.870378) " x="94.4338291" y="482.870378" width="40" height="40" rx="10"></rect>
                <rect id="Rectangle-10-Copy-6" fill="#D0F9FF" transform="translate(70.415367, 328.815421) rotate(20.000000) translate(-70.415367, -328.815421) " x="50.4153665" y="308.815421" width="40" height="40" rx="10"></rect>
                <rect id="Rectangle-10-Copy-16" fill="#D0F9FF" transform="translate(37.453814, 572.838346) rotate(20.000000) translate(-37.453814, -572.838346) " x="17.4538141" y="552.838346" width="40" height="40" rx="10"></rect>
                <rect id="Rectangle-10-Copy-9" fill="#D0F9FF" transform="translate(123.370130, 368.078625) rotate(20.000000) translate(-123.370130, -368.078625) " x="103.37013" y="348.078625" width="40" height="40" rx="10"></rect>
            </g>
        </g>
        <rect id="Rectangle-19" fill="url(#linearGradient-1)" x="0" y="2" width="1440" height="337"></rect>
    </g>
</svg>