<?xml version="1.0" encoding="UTF-8"?>
<svg width="25px" height="33px" viewBox="0 0 25 33" version="1.1" xmlns="http://www.w3.org/2000/svg" xmlns:xlink="http://www.w3.org/1999/xlink">
    <!-- Generator: Sketch 47.1 (45422) - http://www.bohemiancoding.com/sketch -->
    <title>resume</title>
    <desc>Created with Sketch.</desc>
    <defs></defs>
    <g id="Page-1" stroke="none" stroke-width="1" fill="none" fill-rule="evenodd">
        <g id="Website" transform="translate(-707.000000, -694.000000)" fill-rule="nonzero" fill="#3946FF">
            <g id="Links" transform="translate(640.000000, 694.000000)">
                <g id="resume" transform="translate(67.000000, 0.000000)">
                    <path d="M9.63541667,10.9375 C10.9276693,10.9375 11.9791667,9.88600268 11.9791667,8.59375 C11.9791667,7.30149732 10.9276693,6.25 9.63541667,6.25 C8.34316399,6.25 7.29166667,7.30149732 7.29166667,8.59375 C7.29166667,9.88600268 8.34304923,10.9375 9.63541667,10.9375 L9.63541667,10.9375 Z M9.63541667,7.80527045 C10.0702222,7.80527045 10.4238962,8.15894444 10.4238962,8.59375 C10.4238962,9.02855556 10.0702222,9.38222955 9.63541667,9.38222955 C9.20061111,9.38222955 8.84693712,9.02855556 8.84693712,8.59375 C8.84693712,8.15882969 9.20061111,7.80527045 9.63541667,7.80527045 Z" id="Shape"></path>
                    <path d="M24.0339616,0 L0.965928352,0 C0.43244445,0 0,0.427185045 0,0.954180696 L0,31.337486 C0,31.8644816 0.43244445,32.2916667 0.965928352,32.2916667 L24.0340716,32.2916667 C24.5675555,32.2916667 25,31.8644816 25,31.337486 L25,0.954180696 C24.9998899,0.427185045 24.5674455,0 24.0339616,0 Z M23.0681433,30.3833053 L1.93174664,30.3833053 L1.93174664,1.90836139 L23.0680332,1.90836139 L23.0680332,30.3833053 L23.0681433,30.3833053 Z" id="Shape"></path>
                    <path d="M4.49643736,16.6666667 L14.774396,16.6666667 C15.244193,16.6666667 15.625,16.2928346 15.625,15.8316424 L15.625,4.48085756 C15.625,4.01966544 15.244193,3.64583333 14.774396,3.64583333 L4.49643736,3.64583333 C4.02664036,3.64583333 3.64583333,4.01966544 3.64583333,4.48085756 L3.64583333,15.8316424 C3.64583333,16.292942 4.02664036,16.6666667 4.49643736,16.6666667 Z M11.881182,14.9967257 L10.4878815,14.9967257 L11.5347451,12.1768131 C11.7470951,12.3059726 11.881182,12.5352793 11.881182,12.7885481 L11.881182,14.9967257 L11.881182,14.9967257 Z M7.38954183,14.9967257 L7.38954183,12.7885481 C7.38954183,12.5352793 7.52362881,12.3058652 7.73597881,12.1768131 L8.78284239,14.9967257 L7.38954183,14.9967257 L7.38954183,14.9967257 Z M5.34704138,5.31588179 L13.923792,5.31588179 L13.923792,14.9967257 L13.3647861,14.9967257 L13.3647861,12.7885481 C13.3647861,11.8502607 12.7556481,11.0206091 11.8488917,10.7239289 C11.8433093,10.7221022 11.8376175,10.7202755 11.8320351,10.7185562 L11.3048817,10.5597394 C10.9273584,10.4463755 10.5255353,10.6424789 10.3903537,11.0065327 L9.63541667,13.0399902 L8.8804796,11.0065327 C8.74529803,10.6425863 8.34358438,10.4463755 7.96595166,10.5597394 L7.43879828,10.7185562 C7.43321588,10.7202755 7.42752402,10.7221022 7.42194163,10.7239289 C6.51529472,11.0206091 5.90604726,11.8502607 5.90604726,12.7885481 L5.90604726,14.9967257 L5.34704138,14.9967257 L5.34704138,5.31588179 Z" id="Shape"></path>
                    <path d="M20.3897302,18.75 L4.61026983,18.75 C4.07760988,18.75 3.64583333,19.2163524 3.64583333,19.7916667 C3.64583333,20.366981 4.07760988,20.8333333 4.61026983,20.8333333 L20.3897302,20.8333333 C20.9223901,20.8333333 21.3541667,20.366981 21.3541667,19.7916667 C21.3540568,19.2163524 20.9222802,18.75 20.3897302,18.75 Z" id="Shape"></path>
                    <path d="M18.1011968,13.5416667 L19.9196366,13.5416667 C20.4242729,13.5416667 20.8333333,13.0753143 20.8333333,12.5 C20.8333333,11.9246857 20.4242729,11.4583333 19.9196366,11.4583333 L18.1011968,11.4583333 C17.5965605,11.4583333 17.1875,11.9246857 17.1875,12.5 C17.1875,13.0753143 17.5965605,13.5416667 18.1011968,13.5416667 Z" id="Shape"></path>
                    <path d="M18.1011968,9.89583333 L19.9196366,9.89583333 C20.4242729,9.89583333 20.8333333,9.42948097 20.8333333,8.85416667 C20.8333333,8.27885236 20.4242729,7.8125 19.9196366,7.8125 L18.1011968,7.8125 C17.5965605,7.8125 17.1875,8.27885236 17.1875,8.85416667 C17.1875,9.42948097 17.5965605,9.89583333 18.1011968,9.89583333 Z" id="Shape"></path>
                    <path d="M20.3897302,24.4791667 L4.61026983,24.4791667 C4.07760988,24.4791667 3.64583333,24.945519 3.64583333,25.5208333 C3.64583333,26.0961476 4.07760988,26.5625 4.61026983,26.5625 L20.3897302,26.5625 C20.9223901,26.5625 21.3541667,26.0961476 21.3541667,25.5208333 C21.3541667,24.945519 20.9222802,24.4791667 20.3897302,24.4791667 Z" id="Shape"></path>
                </g>
            </g>
        </g>
    </g>
</svg>