<?xml version="1.0" encoding="UTF-8"?>
<svg width="180px" height="180px" viewBox="0 0 180 180" version="1.1" xmlns="http://www.w3.org/2000/svg" xmlns:xlink="http://www.w3.org/1999/xlink">
    <!-- Generator: Sketch 51.3 (57544) - http://www.bohemiancoding.com/sketch -->
    <title>startup</title>
    <desc>Created with Sketch.</desc>
    <defs></defs>
    <g id="Page-1" stroke="none" stroke-width="1" fill="none" fill-rule="evenodd">
        <g id="Artboard-Copy" transform="translate(-715.000000, -213.000000)" fill-rule="nonzero">
            <g id="Pizza-Copy-2" transform="translate(304.000000, 133.000000)">
                <g id="startup" transform="translate(411.000000, 80.000000)">
                    <path d="M123.693347,110.205179 L109.830837,109.830478 L110.205538,123.692988 C110.580239,146.172908 129.313506,164.531474 151.793426,165.280876 L165.655936,165.655578 L165.281235,151.793068 C164.531474,129.313147 146.172908,110.57988 123.693347,110.205179 Z" id="Shape" fill="#F8B64C"></path>
                    <path d="M127.44,117.698486 L117.698845,117.323785 L118.073546,127.06494 C118.448247,143.175657 131.936056,156.663466 148.046773,157.038167 L157.787928,157.412869 L157.413227,147.671713 C157.038526,131.560996 143.550359,118.073187 127.44,117.698486 Z" id="Shape" fill="#FFD15C"></path>
                    <path d="M179.892789,109.081076 C178.019641,105.709124 175.396733,102.711873 172.774183,100.088964 C166.030279,93.3450598 157.78757,88.849004 148.795458,86.6011554 C131.935697,82.4798008 113.20243,86.9758566 100.088964,100.088964 C86.975498,113.202072 82.4798008,131.935339 86.6011554,148.795458 C88.849004,157.412869 93.3450598,166.02992 100.088964,172.773825 C102.711514,175.396375 106.083466,178.019283 109.081076,179.89243 C89.5984064,180.641833 69.3666932,173.523227 54.3800797,158.536614 C42.3907171,146.547251 35.6468127,131.935339 33.3989641,116.574024 C30.4017131,94.4688048 37.5203187,71.6141833 54.3800797,54.7544223 C71.2398406,37.8946614 94.4691633,30.7760558 116.199681,33.7733068 C131.560996,36.0211554 146.54761,42.7654183 158.162271,54.7544223 C173.523586,69.3666932 180.642191,89.5987649 179.892789,109.081076 Z" id="Shape" fill="#FF7058"></path>
                    <path d="M147.671713,109.455777 C137.181155,45.3883267 82.1054582,-1.81936255 13.9162948,0.0537848606 L0.428486056,0.428486056 L0.0537848606,13.9162948 C-1.81936255,82.1054582 45.3883267,137.181155 109.455777,147.671713 L147.671713,109.455777 Z" id="Shape" fill="#F2F2F2"></path>
                    <g id="Group" fill="#40596B">
                        <path d="M80.2319522,139.429004 C89.5984064,143.175657 99.3399203,145.798207 109.455777,147.671713 L147.297012,109.830478 C145.798207,99.7146215 142.800956,89.9731076 139.054303,80.6066534 L80.2319522,139.429004 Z" id="Shape"></path>
                        <path d="M58.5014343,6.04864542 C44.6389243,1.92729084 29.6523108,-0.320916335 13.9162948,0.0537848606 L0.428486056,0.428486056 L0.0537848606,13.9162948 C-0.320916335,29.6523108 1.92693227,44.6389243 6.04828685,58.5014343 L58.5014343,6.04864542 Z" id="Shape"></path>
                    </g>
                    <path d="M109.455777,147.671713 C113.20243,148.421116 117.323785,148.795817 121.070438,149.170518 L148.795458,121.445498 C148.420757,117.324143 148.046056,113.57749 147.296653,109.830837 L109.455777,147.671713 Z" id="Shape" fill="#F2F2F2"></path>
                    <circle id="Oval" fill="#40596B" cx="62.5750996" cy="62.7353785" r="28.8487649"></circle>
                    <circle id="Oval" fill="#84DBFF" cx="62.5750996" cy="62.7353785" r="20.2317131"></circle>
                    <path d="M49.8843825,52.8816335 C57.002988,45.7630279 68.2429482,45.7630279 75.3615538,52.8816335 C82.1054582,59.6255378 82.4801594,70.4907968 76.1109562,77.6094024 C76.4856574,77.2347012 76.8603586,77.2347012 76.8603586,76.86 C84.7283665,68.991992 84.7283665,56.2535857 76.8603586,48.3855777 C68.9923506,40.5175697 56.2539442,40.5175697 48.3859363,48.3855777 C40.5179283,56.2535857 40.5179283,68.991992 48.3859363,76.86 C48.7606375,77.2347012 49.1353386,77.2347012 49.1353386,77.6094024 C43.1404781,70.4907968 43.1404781,59.6255378 49.8843825,52.8816335 Z" id="Shape" fill="#54C0EB"></path>
                </g>
            </g>
        </g>
    </g>
</svg>