<?xml version="1.0" encoding="UTF-8"?>
<svg width="180px" height="182px" viewBox="0 0 180 182" version="1.1" xmlns="http://www.w3.org/2000/svg" xmlns:xlink="http://www.w3.org/1999/xlink">
    <!-- Generator: Sketch 48.2 (47327) - http://www.bohemiancoding.com/sketch -->
    <title>pizza-2</title>
    <desc>Created with Sketch.</desc>
    <defs></defs>
    <g id="Home-Copy-7" stroke="none" stroke-width="1" fill="none" fill-rule="evenodd" transform="translate(-801.000000, -1312.000000)">
        <g id="Case-Studies" transform="translate(390.000000, 1232.000000)" fill-rule="nonzero">
            <g id="Pizza">
                <g id="pizza-2" transform="translate(411.000000, 80.000000)">
                    <path d="M90,0 C57.0846261,0 26.2967695,8.86714833 0,24.2758203 L90,170.581395 L180,24.2758203 C153.703231,8.86714833 122.915374,0 90,0 Z" id="Shape" fill="#D9A460"></path>
                    <path d="M89.4776559,26.1627907 C61.3462876,26.1627907 35.0329639,33.6657089 12.5581395,46.7032685 L62.141948,126.503248 C62.1401245,126.568368 62.1316148,126.632315 62.1316148,126.698022 L62.1316148,174.480505 C62.1316148,178.107297 65.1774929,181.046512 68.934542,181.046512 C72.6915911,181.046512 75.7374692,178.10671 75.7374692,174.480505 L75.7374692,148.384266 L89.4770481,170.495845 L120.586825,120.428283 L120.586825,140.481825 C120.586825,144.10803 123.632703,147.047245 127.389752,147.047245 C131.147409,147.047245 134.192679,144.107444 134.192679,140.481825 L134.192679,98.5308387 L140.427885,88.4958543 L140.427885,107.163683 C140.427885,110.789888 143.473763,113.729103 147.230812,113.729103 C150.988469,113.729103 154.03374,110.789301 154.03374,107.163683 L154.03374,66.597823 L166.395349,46.7032685 C143.922348,33.6657089 117.609024,26.1627907 89.4776559,26.1627907 Z" id="Shape" fill="#F2D383"></path>
                    <path d="M89.4767442,26.1627907 C61.3457093,26.1627907 35.0326975,33.8407345 12.5581395,47.18243 L16.3163597,53.372093 C37.6931745,40.6823833 62.7200156,33.3796616 89.4767442,33.3796616 C116.233473,33.3796616 141.260314,40.6823833 162.637129,53.3714927 L166.395349,47.1818297 C143.920791,33.8407345 117.607779,26.1627907 89.4767442,26.1627907 Z" id="Shape" fill="#B3874F"></path>
                    <path d="M113.567996,96.2790698 C99.3961024,96.2790698 87.9069767,106.958568 87.9069767,120.132355 C87.9069767,131.462064 96.4088804,140.939674 107.803712,143.372093 L132.906977,104.463133 C128.202734,99.4504946 121.285962,96.2790698 113.567996,96.2790698 Z" id="Shape" fill="#E94F3D"></path>
                    <path d="M50.9101969,60.6976744 C41.5380798,60.6976744 33.4020399,66.1225639 29.3023256,74.0822455 L50.8022015,110.927216 C50.8385913,110.92782 50.8743941,110.930233 50.9101969,110.930233 C64.4072662,110.930233 75.3488372,99.6859382 75.3488372,85.8145567 C75.3488372,71.9431753 64.4072662,60.6976744 50.9101969,60.6976744 Z" id="Shape" fill="#E94F3D"></path>
                    <ellipse id="Oval" fill="#E94F3D" cx="116.686047" cy="62.7906977" rx="25.6395349" ry="25.1162791"></ellipse>
                    <g id="Group" transform="translate(28.255814, 26.162791)">
                        <path d="M49.0902366,0.457017784 C31.8362544,2.10597127 15.4427773,6.61069083 0.406485101,13.4814295 C4.08800908,22.7294938 13.2866389,29.2878181 24.0587988,29.2878181 C38.0730887,29.2878181 49.4339512,18.1950205 49.4339512,4.51186047 C49.4339512,3.13009576 49.312676,1.77629959 49.0902366,0.457017784 Z" id="Shape" fill="#E94F3D"></path>
                        <path d="M49.0902366,0.457017784 C31.8362544,2.10597127 15.4421679,6.61069083 0.406485101,13.4814295 C1.30721221,15.7409302 2.53580885,17.8409508 4.0380364,19.7231737 C18.0236834,13.4010944 33.2330517,9.22307114 49.2267474,7.63005472 C49.3583827,6.60771546 49.4339512,5.56871409 49.4339512,4.51186047 C49.4339512,3.13009576 49.312676,1.77629959 49.0902366,0.457017784 Z" id="Shape" fill="#C24232"></path>
                    </g>
                    <g id="Group" transform="translate(11.511628, 5.232558)" fill="#B3874F">
                        <ellipse id="Oval" cx="2.62167347" cy="19.0715663" rx="2.44331172" ry="2.38030096"></ellipse>
                        <ellipse id="Oval" cx="22.5328315" cy="23.8321683" rx="2.44331172" ry="2.38030096"></ellipse>
                        <ellipse id="Oval" cx="44.0498561" cy="7.61696306" rx="2.44331172" ry="2.38030096"></ellipse>
                        <ellipse id="Oval" cx="71.9506435" cy="12.377565" rx="2.44331172" ry="2.38030096"></ellipse>
                        <ellipse id="Oval" cx="101.305812" cy="2.85636115" rx="2.44331172" ry="2.38030096"></ellipse>
                        <ellipse id="Oval" cx="115.547265" cy="16.6912654" rx="2.44331172" ry="2.38030096"></ellipse>
                        <ellipse id="Oval" cx="159.632549" cy="21.1721819" rx="2.44331172" ry="2.38030096"></ellipse>
                        <ellipse id="Oval" cx="139.141716" cy="16.41158" rx="2.44331172" ry="2.38030096"></ellipse>
                    </g>
                </g>
            </g>
        </g>
    </g>
</svg>