<?xml version="1.0" encoding="UTF-8"?>
<svg width="180px" height="180px" viewBox="0 0 180 180" version="1.1" xmlns="http://www.w3.org/2000/svg" xmlns:xlink="http://www.w3.org/1999/xlink">
    <!-- Generator: Sketch 48.2 (47327) - http://www.bohemiancoding.com/sketch -->
    <title>happy</title>
    <desc>Created with Sketch.</desc>
    <defs></defs>
    <g id="Home-Copy-7" stroke="none" stroke-width="1" fill="none" fill-rule="evenodd" transform="translate(-801.000000, -1710.000000)">
        <g id="Case-Studies" transform="translate(390.000000, 1232.000000)" fill-rule="nonzero">
            <g id="Stocks" transform="translate(0.000000, 400.000000)">
                <g id="happy" transform="translate(411.000000, 78.000000)">
                    <circle id="Oval" fill="#F4D44E" cx="90" cy="90" r="90"></circle>
                    <path d="M60.8882106,158.874437 C3.97192258,126.130301 0.515260878,45.9445781 53.1566403,8.1 C36.4913356,15.5713261 21.9391601,28.1371213 12.1043318,45.1113081 C-12.8135984,88.1178039 1.97407435,143.109757 45.1324611,167.939234 C76.8939116,186.211805 115.167847,183.055426 143.1,162.974744 C117.542208,174.43326 87.0128877,173.904211 60.8882106,158.874437 Z" id="Shape" fill="#E8C842"></path>
                    <ellipse id="Oval" fill="#656566" cx="118.8" cy="72.45" rx="8.1" ry="10.35"></ellipse>
                    <path d="M119.09988,72.45 C119.09988,68.6197643 120.78984,65.2778081 123.3,63.4881438 C122.064312,62.6066725 120.630396,62.1 119.09988,62.1 C114.460572,62.1 110.7,66.733971 110.7,72.45 C110.7,78.166029 114.460931,82.8 119.09988,82.8 C120.630396,82.8 122.063952,82.2933275 123.3,81.4118562 C120.78984,79.6221919 119.09988,76.2802357 119.09988,72.45 Z" id="Shape" fill="#4F4F51"></path>
                    <ellipse id="Oval" fill="#656566" cx="61.2" cy="72.45" rx="8.1" ry="10.35"></ellipse>
                    <path d="M61.4998803,72.45 C61.4998803,68.6197643 63.1898395,65.2778081 65.7,63.4881438 C64.4643116,62.6066725 63.0303959,62.1 61.4998803,62.1 C56.8605723,62.1 53.1,66.733971 53.1,72.45 C53.1,78.166029 56.8609314,82.8 61.4998803,82.8 C63.0303959,82.8 64.4639525,82.2933275 65.7,81.4118562 C63.1898395,79.6221919 61.4998803,76.2802357 61.4998803,72.45 Z" id="Shape" fill="#4F4F51"></path>
                    <path d="M33.3,118.8 C48.1307107,153.313006 89.4443547,166.839432 121.56257,148.21296 C133.639485,141.209166 142.489234,130.75113 147.6,118.8 L33.3,118.8 Z" id="Shape" fill="#656566"></path>
                    <path d="M146.047256,106.2 L34.854511,106.2 C32.0267424,106.2 29.9923385,108.961064 30.7653065,111.735758 C31.5998165,114.73247 32.6643179,117.694749 33.9591623,120.6 L146.954562,120.6 C148.228658,117.727747 149.293511,114.766544 150.134703,111.741138 C150.906967,108.963933 148.877135,106.2 146.047256,106.2 Z" id="Shape" fill="#EAE9E8"></path>
                    <path d="M42.3189253,118.8 L33.3,118.8 C43.8365262,143.546348 68.4735989,158.372046 94.5,156.42994 C74.8148779,154.968666 51.5300847,140.434939 42.3189253,118.8 Z" id="Shape" fill="#4F4F51"></path>
                    <path d="M44.1,106.2 L34.9091018,106.2 C32.0450493,106.2 29.9845414,108.961064 30.7674275,111.735758 C31.6126454,114.73247 32.6908057,117.694749 34.0022647,120.6 L43.1928066,120.6 C41.8813477,117.695108 40.8031874,114.73247 39.9579695,111.735758 C39.1750834,108.961064 41.2355913,106.2 44.1,106.2 Z" id="Shape" fill="#DBDBDB"></path>
                    <path d="M86.2090048,136.979801 C75.2748704,132.474963 62.389831,135.762731 54.9,145.839531 C75.5482502,159.961688 102.872869,160.411172 124.2,145.836675 C119.559221,139.593878 112.335391,135.418567 104.16457,135.033345 C94.0319514,134.5553 92.1200504,139.415013 86.2090048,136.979801 Z" id="Shape" fill="#ED694A"></path>
                    <path d="M58.6730515,141.3 C57.2828304,142.492167 56.016508,143.819453 54.9,145.262456 C66.236905,152.708908 80.1455059,156.552876 94.5,155.540175 C81.4462643,154.595726 68.844812,149.676349 58.6730515,141.3 Z" id="Shape" fill="#D8553A"></path>
                </g>
            </g>
        </g>
    </g>
</svg>