<?xml version="1.0" encoding="UTF-8"?>
<svg width="670px" height="378px" viewBox="0 0 670 378" version="1.1" xmlns="http://www.w3.org/2000/svg" xmlns:xlink="http://www.w3.org/1999/xlink">
    <!-- Generator: Sketch 48.2 (47327) - http://www.bohemiancoding.com/sketch -->
    <title>Thank You Block</title>
    <desc>Created with Sketch.</desc>
    <defs>
        <radialGradient cx="0%" cy="0%" fx="0%" fy="0%" r="141.421356%" gradientTransform="translate(0.000000,0.000000),scale(0.541791,1.000000),rotate(28.448438),translate(-0.000000,-0.000000)" id="radialGradient-1">
            <stop stop-color="#9F93FF" offset="0%"></stop>
            <stop stop-color="#93F6FF" offset="100%"></stop>
        </radialGradient>
    </defs>
    <g id="Home-Copy-7" stroke="none" stroke-width="1" fill="none" fill-rule="evenodd" transform="translate(-390.000000, -3464.000000)">
        <g id="Thank-You-Block" transform="translate(390.000000, 3446.000000)">
            <rect id="Rectangle-3" fill="url(#radialGradient-1)" x="0" y="27" width="670" height="363" rx="10"></rect>
            <path d="M284.98584,162.368164 C282.046372,170.981488 278.867693,177.851537 275.449707,182.978516 C272.031721,188.105494 268.596697,192.019029 265.144531,194.719238 C261.692366,197.419447 258.30861,199.179683 254.993164,200 C251.677718,200.820317 248.652846,201.230469 245.918457,201.230469 C241.269996,201.230469 237.373551,200.563972 234.229004,199.230957 C231.084457,197.897943 228.538096,196.120617 226.589844,193.898926 C224.641592,191.677235 223.240239,189.147963 222.385742,186.311035 C221.531246,183.474107 221.104004,180.551773 221.104004,177.543945 C221.104004,173.98924 221.599604,169.83645 222.59082,165.085449 C223.582036,160.334449 224.658686,155.463892 225.820801,150.473633 C226.982916,145.483373 228.059565,140.664086 229.050781,136.015625 C230.041997,131.367164 230.537598,127.368181 230.537598,124.018555 C230.537598,116.840784 228.008326,113.251953 222.949707,113.251953 C221.103995,113.251953 219.395027,113.730464 217.822754,114.6875 C216.25048,115.644536 214.797858,116.943351 213.464844,118.583984 C212.131829,120.224618 210.935552,122.138661 209.875977,124.326172 C208.816401,126.513683 207.876469,128.837878 207.056152,131.298828 C205.2788,140.664109 203.330577,150.952092 201.211426,162.163086 C199.092275,173.374079 196.768079,185.986258 194.23877,200 L163.989746,200 L192.803223,65.9814453 C188.49656,65.6396467 184.019066,65.1611359 179.370605,64.5458984 C174.722145,63.930661 169.937036,63.2470741 165.015137,62.4951172 L135.381348,200 L105.234863,200 L135.17627,60.546875 C129.297334,60.8203139 123.794459,61.6406182 118.66748,63.0078125 C113.540502,64.3750068 109.080097,66.665023 105.286133,69.8779297 C101.492169,73.0908364 98.5014758,77.4145236 96.3139648,82.8491211 C94.1264539,88.2837186 93.0327148,95.1366774 93.0327148,103.408203 C93.0327148,106.074232 93.1865219,108.244621 93.4941406,109.919434 C93.8017594,111.594247 94.1264631,112.927241 94.4682617,113.918457 C94.8100603,114.909673 95.1347641,115.678708 95.4423828,116.225586 C95.7500015,116.772464 95.9038086,117.250975 95.9038086,117.661133 C92.2807436,117.661133 89.0678851,117.30225 86.2651367,116.584473 C83.4623883,115.866696 81.1211031,114.721688 79.2412109,113.149414 C77.3613187,111.577141 75.9257862,109.4922 74.9345703,106.894531 C73.9433544,104.296862 73.4477539,101.118183 73.4477539,97.3583984 C73.4477539,90.3857073 74.8661968,83.6011072 77.703125,77.0043945 C80.5400532,70.4076819 84.9491888,64.5801034 90.9306641,59.5214844 C96.9121393,54.4628653 104.568313,50.3955232 113.899414,47.3193359 C123.230515,44.2431487 134.390072,42.7050781 147.378418,42.7050781 C149.702648,42.7050781 152.983866,42.9956026 157.222168,43.5766602 C161.46047,44.1577177 166.16013,44.772946 171.321289,45.4223633 C176.482448,46.0717806 181.899874,46.6870088 187.57373,47.2680664 C193.247587,47.849124 198.750462,48.1396484 204.08252,48.1396484 C209.209498,48.1396484 213.994607,47.797855 218.437988,47.1142578 C222.88137,46.4306606 226.572739,45.0976662 229.512207,43.1152344 C228.69189,44.6875079 227.905765,46.2255784 227.153809,47.7294922 C226.401852,49.233406 225.632816,50.9936423 224.84668,53.0102539 C224.060543,55.0268656 223.257328,57.4365094 222.437012,60.2392578 C221.616695,63.0420062 220.676763,66.5282995 219.617188,70.6982422 C218.557612,74.8681849 217.395514,79.8583694 216.130859,85.6689453 C214.866205,91.4795212 213.447762,98.3837491 211.875488,106.381836 C214.131359,103.784167 216.387196,101.682137 218.643066,100.075684 C220.898937,98.4692302 223.103505,97.2387738 225.256836,96.3842773 C227.410167,95.5297809 229.460928,94.948732 231.40918,94.6411133 C233.357432,94.3334946 235.186027,94.1796875 236.89502,94.1796875 C240.244646,94.1796875 243.337876,94.624019 246.174805,95.5126953 C249.011733,96.4013716 251.472646,97.8027248 253.557617,99.7167969 C255.642589,101.630869 257.266107,104.091782 258.428223,107.099609 C259.590338,110.107437 260.171387,113.696268 260.171387,117.866211 C260.171387,120.668959 259.915042,123.693831 259.402344,126.940918 C258.889646,130.188005 258.274418,133.503401 257.556641,136.887207 C256.838864,140.271013 256.035649,143.637679 255.146973,146.987305 C254.258296,150.336931 253.455082,153.549789 252.737305,156.625977 C252.019528,159.702164 251.404299,162.556139 250.891602,165.187988 C250.378904,167.819837 250.122559,170.126943 250.122559,172.109375 C250.122559,174.707044 250.703607,176.826164 251.865723,178.466797 C253.027838,180.10743 255.249495,180.927734 258.530762,180.927734 C260.786632,180.927734 262.769034,180.483403 264.478027,179.594727 C266.18702,178.70605 267.725091,177.441414 269.092285,175.800781 C270.459479,174.160148 271.707026,172.194836 272.834961,169.904785 C273.962896,167.614735 275.073725,165.102553 276.16748,162.368164 L284.98584,162.368164 Z M395.42041,162.368164 C393.437978,168.042021 391.28468,172.963846 388.960449,177.133789 C386.636219,181.303732 384.226575,184.824204 381.731445,187.695312 C379.236316,190.566421 376.689954,192.890616 374.092285,194.667969 C371.494616,196.445321 368.965344,197.812495 366.504395,198.769531 C364.043445,199.726567 361.68507,200.375975 359.429199,200.717773 C357.173329,201.059572 355.122568,201.230469 353.276855,201.230469 C347.32956,201.230469 342.595721,199.60695 339.075195,196.359863 C335.55467,193.112777 333.418461,188.310579 332.666504,181.953125 C330.957511,184.345715 329.077647,186.687 327.026855,188.977051 C324.976064,191.267101 322.686048,193.317862 320.156738,195.129395 C317.627429,196.940927 314.807633,198.410639 311.697266,199.538574 C308.586899,200.66651 305.151874,201.230469 301.39209,201.230469 C297.769025,201.230469 294.282732,200.64942 290.933105,199.487305 C287.583479,198.32519 284.609876,196.411146 282.012207,193.745117 C279.414538,191.079088 277.329598,187.592795 275.757324,183.286133 C274.185051,178.979471 273.398926,173.715851 273.398926,167.495117 C273.398926,162.709937 273.877437,157.583035 274.834473,152.114258 C275.791509,146.64548 277.261221,141.176785 279.243652,135.708008 C281.226084,130.23923 283.704087,124.992701 286.677734,119.968262 C289.651382,114.943823 293.137675,110.500508 297.136719,106.638184 C301.135762,102.77586 305.664525,99.6997185 310.723145,97.409668 C315.781764,95.1196175 321.352997,93.9746094 327.437012,93.9746094 C333.384307,93.9746094 337.707994,94.9999897 340.408203,97.0507812 C343.108412,99.1015728 344.458496,101.630844 344.458496,104.638672 L344.458496,106.176758 L346.714355,95 L376.963379,95 L361.890137,166.367188 C361.548338,167.529303 361.309083,168.674311 361.172363,169.802246 C361.035644,170.930181 360.967285,172.04101 360.967285,173.134766 C360.967285,179.150421 363.83835,182.158203 369.580566,182.158203 C371.631358,182.158203 373.528312,181.628423 375.271484,180.568848 C377.014657,179.509272 378.603997,178.090829 380.039551,176.313477 C381.475105,174.536124 382.739741,172.434094 383.833496,170.007324 C384.927252,167.580554 385.850094,165.034193 386.602051,162.368164 L395.42041,162.368164 Z M342.510254,114.995117 C342.510254,114.37988 342.373537,113.610844 342.100098,112.687988 C341.826659,111.765132 341.365238,110.876469 340.71582,110.021973 C340.066403,109.167476 339.19483,108.44971 338.101074,107.868652 C337.007319,107.287595 335.605966,106.99707 333.896973,106.99707 C330.957505,106.99707 328.171888,107.954092 325.540039,109.868164 C322.90819,111.782236 320.498546,114.328597 318.311035,117.507324 C316.123524,120.686051 314.175302,124.291972 312.466309,128.325195 C310.757316,132.358419 309.304693,136.511209 308.108398,140.783691 C306.912103,145.056174 306.006351,149.260233 305.391113,153.395996 C304.775876,157.531759 304.468262,161.240218 304.468262,164.521484 C304.468262,168.554708 304.844235,171.665028 305.596191,173.852539 C306.348148,176.04005 307.253901,177.663569 308.313477,178.723145 C309.373052,179.78272 310.51806,180.415038 311.748535,180.620117 C312.97901,180.825196 314.072749,180.927734 315.029785,180.927734 C316.602059,180.927734 318.259757,180.534672 320.00293,179.748535 C321.746102,178.962398 323.42089,177.800301 325.027344,176.262207 C326.633797,174.724113 328.103509,172.79298 329.436523,170.46875 C330.769538,168.14452 331.777829,165.444351 332.461426,162.368164 L342.510254,114.995117 Z M501.445801,162.368164 C498.506333,170.981488 495.344743,177.851537 491.960937,182.978516 C488.577132,188.105494 485.159197,192.019029 481.707031,194.719238 C478.254866,197.419447 474.87111,199.179683 471.555664,200 C468.240218,200.820317 465.181166,201.230469 462.378418,201.230469 C457.729957,201.230469 453.833512,200.563972 450.688965,199.230957 C447.544418,197.897943 445.015146,196.120617 443.101074,193.898926 C441.187002,191.677235 439.802739,189.147963 438.948242,186.311035 C438.093746,183.474107 437.666504,180.551773 437.666504,177.543945 C437.666504,173.98924 438.162104,169.83645 439.15332,165.085449 C440.144536,160.334449 441.221186,155.463892 442.383301,150.473633 C443.545416,145.483373 444.622065,140.664086 445.613281,136.015625 C446.604497,131.367164 447.100098,127.368181 447.100098,124.018555 C447.100098,116.840784 444.570826,113.251953 439.512207,113.251953 C437.598135,113.251953 435.820809,113.764643 434.180176,114.790039 C432.539543,115.815435 431.035651,117.199698 429.668457,118.942871 C428.301263,120.686044 427.070806,122.736805 425.977051,125.095215 C424.883295,127.453625 423.926274,129.965807 423.105957,132.631836 L408.853027,200 L378.604004,200 L384.569887,171.84763 L400.85498,95 L431.104004,95 L428.848145,105.869141 C431.104015,103.339831 433.342762,101.30616 435.564453,99.7680664 C437.786144,98.2299728 439.956532,97.0507854 442.075684,96.2304688 C444.194835,95.4101521 446.194327,94.8632826 448.074219,94.5898438 C449.954111,94.3164049 451.714347,94.1796875 453.35498,94.1796875 C456.704607,94.1796875 459.814927,94.624019 462.686035,95.5126953 C465.557143,96.4013716 468.035146,97.8027248 470.120117,99.7167969 C472.205089,101.630869 473.828607,104.091782 474.990723,107.099609 C476.152838,110.107437 476.733887,113.696268 476.733887,117.866211 C476.733887,120.668959 476.477542,123.693831 475.964844,126.940918 C475.452146,130.188005 474.819828,133.503401 474.067871,136.887207 C473.315914,140.271013 472.5127,143.637679 471.658203,146.987305 C470.803707,150.336931 470.000492,153.549789 469.248535,156.625977 C468.496578,159.702164 467.86426,162.556139 467.351562,165.187988 C466.838865,167.819837 466.58252,170.126943 466.58252,172.109375 C466.58252,174.707044 467.180658,176.826164 468.376953,178.466797 C469.573248,180.10743 471.777816,180.927734 474.990723,180.927734 C477.246593,180.927734 479.228995,180.483403 480.937988,179.594727 C482.646981,178.70605 484.185052,177.441414 485.552246,175.800781 C486.91944,174.160148 488.166987,172.194836 489.294922,169.904785 C490.422857,167.614735 491.533686,165.102553 492.627441,162.368164 L501.445801,162.368164 Z M576.606934,166.367187 C576.265135,167.529303 576.00879,168.657221 575.837891,169.750977 C575.666991,170.844732 575.581543,171.97265 575.581543,173.134766 C575.581543,175.253917 576.128412,177.082512 577.222168,178.620605 C578.315923,180.158699 580.503402,180.927734 583.784668,180.927734 C585.015143,180.927734 586.023434,180.893555 586.80957,180.825195 C587.595707,180.756836 588.245115,180.654298 588.757812,180.517578 C589.27051,180.380859 589.697752,180.227052 590.039551,180.056152 C590.381349,179.885253 590.757322,179.731446 591.16748,179.594727 C590.894042,183.354511 589.988289,186.584459 588.450195,189.284668 C586.912102,191.984877 585.117686,194.223624 583.066895,196.000977 C581.016103,197.778329 578.948253,199.094234 576.863281,199.94873 C574.77831,200.803227 573.018074,201.230469 571.58252,201.230469 C562.832476,201.230469 556.235862,199.162618 551.79248,195.026855 C547.349099,190.891093 545.127441,184.995155 545.127441,177.338867 C545.127441,174.057601 545.537594,170.400411 546.35791,166.367187 L548.101074,158.164062 C548.442873,156.796868 548.665039,155.463874 548.767578,154.165039 C548.870118,152.866204 548.921387,151.635748 548.921387,150.473633 C548.921387,147.397446 548.374517,144.936533 547.280762,143.09082 C546.187006,141.245108 544.204604,140.322266 541.333496,140.322266 C538.940906,140.322266 536.497083,141.022942 534.001953,142.424316 C531.506823,143.825691 528.789565,145.722644 525.850098,148.115234 L514.878418,200 L484.629395,200 L515.083496,57.1630859 L546.152832,52.9589844 L530.464355,126.889648 L570.967285,95 L591.782715,95 L549.741699,124.223633 C552.06593,123.608395 554.390125,123.300781 556.714355,123.300781 C560.610859,123.300781 564.011704,123.950189 566.916992,125.249023 C569.82228,126.547858 572.231924,128.325184 574.145996,130.581055 C576.060068,132.836925 577.478511,135.451645 578.401367,138.425293 C579.324223,141.398941 579.785645,144.56053 579.785645,147.910156 C579.785645,149.208991 579.734376,150.524896 579.631836,151.85791 C579.529296,153.190925 579.307131,154.541009 578.965332,155.908203 L576.606934,166.367187 Z M230.947754,380 L244.893066,315.297852 L224.692871,236.547852 C214.849072,240.239276 207.175809,246.015586 201.672852,253.876953 C196.169894,261.738321 193.418457,271.513613 193.418457,283.203125 C193.418457,285.869154 193.572264,288.039542 193.879883,289.714355 C194.187502,291.389169 194.512205,292.722163 194.854004,293.713379 C195.195802,294.704595 195.520506,295.47363 195.828125,296.020508 C196.135744,296.567386 196.289551,297.045896 196.289551,297.456055 C192.666486,297.456055 189.453627,297.097172 186.650879,296.379395 C183.848131,295.661618 181.506845,294.516609 179.626953,292.944336 C177.747061,291.372062 176.311528,289.287122 175.320312,286.689453 C174.329097,284.091784 173.833496,280.878925 173.833496,277.050781 C173.833496,272.402321 174.841787,267.822288 176.858398,263.310547 C178.87501,258.798806 181.643537,254.526387 185.164062,250.493164 C188.684588,246.459941 192.820289,242.734392 197.571289,239.316406 C202.322289,235.89842 207.415012,232.941907 212.849609,230.446777 C218.284207,227.951648 223.957978,226.003425 229.871094,224.602051 C235.784209,223.200677 241.680146,222.5 247.559082,222.5 C249.131356,222.5 250.583978,222.534179 251.916992,222.602539 C253.250007,222.670899 254.600091,222.773437 255.967285,222.910156 L274.219238,298.071289 L305.288574,223.525391 L319.233887,223.525391 L278.42334,315.297852 L264.580566,380 L230.947754,380 Z M420.850098,300.224609 C416.748515,304.531272 411.450716,308.188462 404.956543,311.196289 C398.46237,314.204117 391.353066,316.357415 383.628418,317.65625 C382.808101,327.36333 380.945327,336.113242 378.040039,343.90625 C375.134751,351.699258 371.460471,358.330051 367.01709,363.798828 C362.573708,369.267605 357.480986,373.471665 351.73877,376.411133 C345.996553,379.350601 339.91263,380.820312 333.486816,380.820312 C328.633277,380.820312 324.138693,380.222174 320.00293,379.025879 C315.867167,377.829584 312.312515,375.915541 309.338867,373.283691 C306.36522,370.651842 304.041024,367.233908 302.366211,363.029785 C300.691398,358.825663 299.854004,353.71585 299.854004,347.700195 C299.854004,343.598612 300.281246,338.933132 301.135742,333.703613 C301.990239,328.474095 303.357412,323.090848 305.237305,317.553711 C307.117197,312.016574 309.54393,306.599148 312.517578,301.30127 C315.491226,296.003391 319.114236,291.269552 323.386719,287.099609 C327.659201,282.929667 332.598117,279.563001 338.203613,276.999512 C343.80911,274.436022 350.200648,273.154297 357.378418,273.154297 C375.357023,273.154297 384.346191,284.330943 384.346191,306.68457 L384.346191,306.889648 C384.68799,307.026368 385.012694,307.094727 385.320312,307.094727 L386.602051,307.094727 C389.063001,307.094727 391.7119,306.735843 394.548828,306.018066 C397.385756,305.300289 400.239732,304.360357 403.11084,303.198242 C405.981948,302.036127 408.784654,300.686043 411.519043,299.147949 C414.253432,297.609856 416.748524,296.054695 419.004395,294.482422 L420.850098,300.224609 Z M366.196777,318.271484 C364.009266,317.724607 362.522465,316.647957 361.736328,315.041504 C360.950191,313.435051 360.557129,311.572276 360.557129,309.453125 C360.557129,306.513657 361.155267,304.104013 362.351562,302.224121 C363.547858,300.344229 365.137197,298.959965 367.119629,298.071289 C366.982909,295.815418 366.743654,293.918465 366.401855,292.380371 C366.060057,290.842277 365.581546,289.577642 364.966309,288.586426 C364.351071,287.59521 363.582036,286.894533 362.65918,286.484375 C361.736324,286.074217 360.557136,285.869141 359.121582,285.869141 C356.592273,285.869141 354.165539,286.843252 351.841309,288.791504 C349.517078,290.739756 347.31251,293.320296 345.227539,296.533203 C343.142568,299.74611 341.228524,303.420389 339.485352,307.556152 C337.742179,311.691915 336.255377,315.947244 335.024902,320.322266 C333.794427,324.697288 332.837406,329.020975 332.153809,333.293457 C331.470211,337.565939 331.128418,341.445295 331.128418,344.931641 C331.128418,348.417986 331.316404,351.254872 331.692383,353.442383 C332.068361,355.629894 332.683589,357.355951 333.538086,358.620605 C334.392582,359.88526 335.503411,360.756834 336.870605,361.235352 C338.2378,361.71387 339.912588,361.953125 341.89502,361.953125 C344.424329,361.953125 346.97069,360.825207 349.53418,358.569336 C352.097669,356.313465 354.473134,353.237324 356.660645,349.34082 C358.848155,345.444316 360.779289,340.830105 362.454102,335.498047 C364.128915,330.165989 365.376461,324.423859 366.196777,318.271484 Z M461.147949,275 L491.396973,275 L476.32373,346.367188 C475.981932,347.529303 475.742676,348.674311 475.605957,349.802246 C475.469238,350.930181 475.400879,352.04101 475.400879,353.134766 C475.400879,356.074233 476.101555,358.107905 477.50293,359.23584 C478.904304,360.363775 481.074692,360.927734 484.01416,360.927734 C485.039556,360.927734 485.87695,360.893555 486.526367,360.825195 C487.175784,360.756836 487.756833,360.654298 488.269531,360.517578 C488.782229,360.380859 489.24365,360.227052 489.653809,360.056152 C490.063967,359.885253 490.508298,359.731446 490.986816,359.594727 C490.713378,363.422871 489.893073,366.686998 488.525879,369.387207 C487.158685,372.087416 485.415538,374.326163 483.296387,376.103516 C481.177235,377.880868 478.767592,379.179683 476.067383,380 C473.367174,380.820317 470.581557,381.230469 467.710449,381.230469 C461.763154,381.230469 457.029314,379.504412 453.508789,376.052246 C449.988264,372.60008 447.852055,367.695344 447.100098,361.337891 C444.502428,365.644553 441.81935,369.096667 439.050781,371.694336 C436.282213,374.292005 433.547865,376.308587 430.847656,377.744141 C428.147447,379.179695 425.515638,380.119627 422.952148,380.563965 C420.388659,381.008303 418.013195,381.230469 415.825684,381.230469 C412.681137,381.230469 409.741713,380.751958 407.007324,379.794922 C404.272936,378.837886 401.897471,377.333995 399.880859,375.283203 C397.864248,373.232412 396.274908,370.634781 395.112793,367.490234 C393.950678,364.345687 393.369629,360.55178 393.369629,356.108398 C393.369629,354.194326 393.506346,352.092297 393.779785,349.802246 C394.053224,347.512196 394.463376,345.034193 395.010254,342.368164 L409.263184,275 L439.512207,275 L424.438965,346.367188 C424.028807,348.14454 423.82373,349.921866 423.82373,351.699219 C423.82373,352.929694 423.926269,354.091791 424.131348,355.185547 C424.336427,356.279302 424.67822,357.253414 425.156738,358.10791 C425.635256,358.962407 426.267574,359.645994 427.053711,360.158691 C427.839848,360.671389 428.848138,360.927734 430.078613,360.927734 C432.129405,360.927734 434.009269,360.466313 435.718262,359.543457 C437.427255,358.620601 438.982415,357.338875 440.383789,355.698242 C441.785163,354.057609 443.01562,352.092297 444.075195,349.802246 C445.134771,347.512196 446.074703,345.034193 446.89502,342.368164 L461.147949,275 Z" id="Thank-You" fill="#FFFFFF" transform="translate(332.615234, 211.967773) rotate(-10.000000) translate(-332.615234, -211.967773) "></path>
            <polygon id="Rectangle" fill="#FFFFFF" points="418.021047 289.414895 432.070267 278.214642 439.896922 293.123196 415.234256 300.043309"></polygon>
            <polygon id="Rectangle-2" fill="#FFFFFF" points="266.634958 171 280 171 280 193 267 193.202171"></polygon>
            <polygon id="Rectangle-5" fill="#FFFFFF" points="481.600785 135.311635 490.440966 133.519621 486.830132 161.070446 480.1305 163.448522"></polygon>
            <polygon id="Rectangle-4" fill="#FFFFFF" points="377.148284 153.704454 385.925417 152.014827 380.972157 178.715377 376.044424 180.488701"></polygon>
        </g>
    </g>
</svg>